<mxfile host="www.draw.io" modified="2019-12-19T07:36:50.537Z" agent="Mozilla/5.0 (Windows NT 10.0; Win64; x64) AppleWebKit/537.36 (KHTML, like Gecko) Chrome/78.0.3904.108 Safari/537.36" etag="dJXR_x1qpO4sBsZ44Nj6" version="12.4.3" type="github" pages="2">
  <diagram id="v5UNNmAI6avvm8mkg2mC" name="第 1 页">
    <mxGraphModel dx="1038" dy="580" grid="1" gridSize="10" guides="1" tooltips="1" connect="1" arrows="1" fold="1" page="1" pageScale="1" pageWidth="3300" pageHeight="2339" math="0" shadow="0">
      <root>
        <mxCell id="0"/>
        <mxCell id="1" parent="0"/>
        <mxCell id="XqAwryNyBwVGznu84Bff-36" value="" style="endArrow=none;dashed=1;html=1;fontSize=14;" parent="1" edge="1">
          <mxGeometry width="50" height="50" relative="1" as="geometry">
            <mxPoint x="610" y="1220.800048828125" as="sourcePoint"/>
            <mxPoint x="610" y="430" as="targetPoint"/>
          </mxGeometry>
        </mxCell>
        <mxCell id="XqAwryNyBwVGznu84Bff-9" value="子任务操作" style="rounded=0;whiteSpace=wrap;html=1;fontSize=14;" parent="1" vertex="1">
          <mxGeometry x="380" y="650" width="120" height="50" as="geometry"/>
        </mxCell>
        <mxCell id="XqAwryNyBwVGznu84Bff-10" value="异常任务操作" style="rounded=0;whiteSpace=wrap;html=1;fontSize=14;" parent="1" vertex="1">
          <mxGeometry x="380" y="720" width="120" height="50" as="geometry"/>
        </mxCell>
        <mxCell id="XqAwryNyBwVGznu84Bff-11" value="机器状态读取" style="rounded=0;whiteSpace=wrap;html=1;fontSize=14;" parent="1" vertex="1">
          <mxGeometry x="310" y="790" width="120" height="50" as="geometry"/>
        </mxCell>
        <mxCell id="XqAwryNyBwVGznu84Bff-12" value="生产任务操作" style="rounded=0;whiteSpace=wrap;html=1;fontSize=14;" parent="1" vertex="1">
          <mxGeometry x="380" y="580" width="120" height="50" as="geometry"/>
        </mxCell>
        <mxCell id="XqAwryNyBwVGznu84Bff-14" value="展示数据表" style="swimlane;fontStyle=0;childLayout=stackLayout;horizontal=1;startSize=26;fillColor=#e0e0e0;horizontalStack=0;resizeParent=1;resizeParentMax=0;resizeLast=0;collapsible=1;marginBottom=0;swimlaneFillColor=#ffffff;align=center;fontSize=14;" parent="1" vertex="1">
          <mxGeometry x="1230" y="603" width="160" height="156" as="geometry"/>
        </mxCell>
        <mxCell id="XqAwryNyBwVGznu84Bff-15" value="机器 id" style="text;strokeColor=none;fillColor=none;spacingLeft=4;spacingRight=4;overflow=hidden;rotatable=0;points=[[0,0.5],[1,0.5]];portConstraint=eastwest;fontSize=12;" parent="XqAwryNyBwVGznu84Bff-14" vertex="1">
          <mxGeometry y="26" width="160" height="26" as="geometry"/>
        </mxCell>
        <mxCell id="XqAwryNyBwVGznu84Bff-27" value="设备看板展示用状态" style="text;strokeColor=none;fillColor=none;spacingLeft=4;spacingRight=4;overflow=hidden;rotatable=0;points=[[0,0.5],[1,0.5]];portConstraint=eastwest;fontSize=12;" parent="XqAwryNyBwVGznu84Bff-14" vertex="1">
          <mxGeometry y="52" width="160" height="26" as="geometry"/>
        </mxCell>
        <mxCell id="XqAwryNyBwVGznu84Bff-16" value="状态分类" style="text;strokeColor=none;fillColor=none;spacingLeft=4;spacingRight=4;overflow=hidden;rotatable=0;points=[[0,0.5],[1,0.5]];portConstraint=eastwest;fontSize=12;" parent="XqAwryNyBwVGznu84Bff-14" vertex="1">
          <mxGeometry y="78" width="160" height="26" as="geometry"/>
        </mxCell>
        <mxCell id="XqAwryNyBwVGznu84Bff-23" value="开始时间" style="text;strokeColor=none;fillColor=none;spacingLeft=4;spacingRight=4;overflow=hidden;rotatable=0;points=[[0,0.5],[1,0.5]];portConstraint=eastwest;fontSize=12;" parent="XqAwryNyBwVGznu84Bff-14" vertex="1">
          <mxGeometry y="104" width="160" height="26" as="geometry"/>
        </mxCell>
        <mxCell id="XqAwryNyBwVGznu84Bff-17" value="结束时间" style="text;strokeColor=none;fillColor=none;spacingLeft=4;spacingRight=4;overflow=hidden;rotatable=0;points=[[0,0.5],[1,0.5]];portConstraint=eastwest;fontSize=12;" parent="XqAwryNyBwVGznu84Bff-14" vertex="1">
          <mxGeometry y="130" width="160" height="26" as="geometry"/>
        </mxCell>
        <mxCell id="XqAwryNyBwVGznu84Bff-24" value="停机原因录入" style="rounded=0;whiteSpace=wrap;html=1;fontSize=14;" parent="1" vertex="1">
          <mxGeometry x="450" y="790" width="120" height="50" as="geometry"/>
        </mxCell>
        <mxCell id="XqAwryNyBwVGznu84Bff-29" value="" style="shape=image;imageAspect=0;aspect=fixed;verticalLabelPosition=bottom;verticalAlign=top;fontSize=14;image=data:image/jpeg,/9j/4AAQSkZJRgABAQEAeAB4AAD/2wBDAAMCAgMCAgMDAwMEAwMEBQgFBQQEBQoHBwYIDAoMDAsKCwsNDhIQDQ4RDgsLEBYQERMUFRUVDA8XGBYUGBIUFRT/2wBDAQMEBAUEBQkFBQkUDQsNFBQUFBQUFBQUFBQUFBQUFBQUFBQUFBQUFBQUFBQUFBQUFBQUFBQUFBQUFBQUFBQUFBT/wAARCAIyAVMDASIAAhEBAxEB/8QAHwAAAQUBAQEBAQEAAAAAAAAAAAECAwQFBgcICQoL/8QAtRAAAgEDAwIEAwUFBAQAAAF9AQIDAAQRBRIhMUEGE1FhByJxFDKBkaEII0KxwRVS0fAkM2JyggkKFhcYGRolJicoKSo0NTY3ODk6Q0RFRkdISUpTVFVWV1hZWmNkZWZnaGlqc3R1dnd4eXqDhIWGh4iJipKTlJWWl5iZmqKjpKWmp6ipqrKztLW2t7i5usLDxMXGx8jJytLT1NXW19jZ2uHi4+Tl5ufo6erx8vP09fb3+Pn6/8QAHwEAAwEBAQEBAQEBAQAAAAAAAAECAwQFBgcICQoL/8QAtREAAgECBAQDBAcFBAQAAQJ3AAECAxEEBSExBhJBUQdhcRMiMoEIFEKRobHBCSMzUvAVYnLRChYkNOEl8RcYGRomJygpKjU2Nzg5OkNERUZHSElKU1RVVldYWVpjZGVmZ2hpanN0dXZ3eHl6goOEhYaHiImKkpOUlZaXmJmaoqOkpaanqKmqsrO0tba3uLm6wsPExcbHyMnK0tPU1dbX2Nna4uPk5ebn6Onq8vP09fb3+Pn6/9oADAMBAAIRAxEAPwD9U6KK8p/al1rUPD/wI8T6hpV9c6bfw/ZfLurOZopUzdQqdrKQRkEjjsTXRhqLxNeFBOzk0vvdjnxNZYahOu1dRTf3K56tRX5VR/GL4hzNtTxv4mc9cLq1wf8A2ehfjF8Q2VmHjfxMVXqRq1xgfX56+6/1Or/8/l9zPhP9cqH/AD5f3o/VWivyq/4XF8Q/LEn/AAm/ibYTgN/a1xjPpnfQ3xg+Iibd3jbxOu7lc6tcc/T56P8AU6v/AM/l9zD/AFyof8+Zfej9VaK/KqT4xfEOJyj+N/EyMOqtq1wD/wCh11Wk33xv1yzW7s9b8YPbONySSarPGHH+zukG78M1nPhKpTV514peZpDi6nUdoUJN+R+ldFflrrHxK+KHh+8a01PxZ4ssLpesNzqdyjfkXql/wub4gf8AQ9eJf/Bvcf8AxdWuD60ldVo29GQ+MaEXZ0ZX9UfqvRX5Uf8AC5viB/0PXiX/AMG9x/8AF0f8Lm+IH/Q9eJf/AAb3H/xdV/qbX/5/L7mT/rlh/wDny/vR+q9FflR/wub4gf8AQ9eJf/Bvcf8AxdH/AAub4gf9D14l/wDBvcf/ABdH+ptf/n8vuYf65Yf/AJ8v70fqvRX5Uf8AC5viB/0PXiX/AMG9x/8AF0f8Lm+IH/Q9eJf/AAb3H/xdH+ptf/n8vuYf65Yf/ny/vR+q9FflR/wub4gf9D14l/8ABvcf/F1c0n4nfE7Xr6Oy07xf4qvbqT7sMOqXLMfXgPUvg+vFXdaP3MpcY0JOyoyv6o/Uuivy41b4jfFPQbqS21HxV4tsp4yA6TancqRkZH8fcdK0LrxL8ZrP7F52ueNI/trBbYNf3WZWIyABu6kc49Kj/VKorN146l/63U22vq8tD9N6K/LrXPiF8VfDN6tpqvirxZYXLKHWOfVLlSyngEfPyODyPSte+1T426bYteXOs+M4rZY1laT+0rkhUIBDHD8Dkcn1pPhOaSbxEddvP0GuLINtLDy038vU/S6ivzHufE3xks/EsPh6fX/GUWtzbTHYNqVyJX3DKkDfzkVjX3xZ+I+m3k1rdeNPE8FzC5jkifVrgMrA4II39aqPCNWfw14vr8iZcX0ofFQkunz7H6o0V+VH/C5viB/0PXiX/wAG9x/8XR/wub4gf9D14l/8G9x/8XWn+ptf/n8vuZn/AK5Yf/ny/vR+q9FflR/wub4gf9D14l/8G9x/8XR/wub4gf8AQ9eJf/Bvcf8AxdH+ptf/AJ/L7mH+uWH/AOfL+9H6r0V+VH/C5viB/wBD14l/8G9x/wDF0f8AC5viB/0PXiX/AMG9x/8AF0f6m1/+fy+5h/rlh/8Any/vR+q9FflR/wALm+IH/Q9eJf8Awb3H/wAXT4fjB8RLiVY4vG3ieWRjhUTVrgk/Qb6X+ptf/n8vuY/9cqH/AD5f3o/VSivy+t/HHxbvGuVg8R+MpWtjtmCahdExnGcN83BxUf8AwsD4r/2amo/8JP4w+wyY23P9o3Xltk4GDux14qP9Uau3t4l/63U/+fEj9RaK/LmX4hfFWG6W2k8UeL0uGjaURNqV0GKAElsbugAPPtRoPxE+KXie+Fnpfi/xRd3JGdi6xOP1LgUf6o1UuZ142D/W+k3yqhK5+o1FfnF9k+PP/QZ8Wf8Ag7k/+O0fZPjz/wBBnxZ/4O5P/jtc/wDqyv8AoKh9/wDwTo/1nf8A0Cz+7/gH6O0V+Wmr/E74maDqE1jf+MvE9tdwnDxNq8+RkZHR/SvvX9lrWtQ8QfAjwxqGq31zqV/N9q8y6vJmllfF1Mo3MxJOAAOewFcGaZDUyyhHESqKSbS0803+h35Xn1PNMRLDxpuLSb18ml+p6tRRRXy59SFFFFABXjv7Xn/Ju/iz/t0/9K4a9irx39rz/k3fxZ/26f8ApXDXp5X/AL/Q/wAcf/SkeZmn+4Yj/BL/ANJZ8Yfs/wDxqsfgzqWsXF94di11b+FI1ZiFkhKljgEg8Nu5/wB0V03hb9prS/D/AIT8V6TL4JsZpdZnnmjdSoSMSAgKwK5IXPGMV4FRX7jWyzC15yqVI3crX1fTbqfhlHNMVh4Rp05WUb20XXfoe5ah+0Zpl58F9O8Er4Os0u7VYka9JXY2xgS+3GdzY5Oe5rW8XftTaT4j1rwZfReBrKBNBm86WFypEuU27VwvAH3hnPIFfO9FZ/2Tg735esnu95Kz6mn9r4y1ubpFbLaLuuh6T8ePixZ/GDxdBq9loceiRRW6wbFILyEEncxAA74FXvAfxgh0vR7621sLNcQwFrS4bTYL2S4k6LHK84YqgH9zGADXlFFdP1Gh7COHS92O3X8zm+vV/byxDfvS36flY1PEniS78Uak93dbYxk+VbxFvKgUknZGCTtXJPGay6KK7YxUEox2OGUnNuUtwoooqiQooooAKKKKACu9+D3jDTvCOtak2pGOKK+sJbRLma2+0JC7YwzR/wAS8cjB+hrgqKxrUo16bpy2ZtRqyoVFUjuj0z4geNNF1Jyml3t44VrRpbeCAQWFzJGhDyiLPyc/dUKBgnp0ruYfi94V0vWtav49Rur1fEN6bl0+zMr6arROnfhmUvgbey/hXz1RXDLLqU4KDbsvTy8vJf8ADHfDMa0JuaSu/Xz8/N/8Odz4+17SrjSfCui6ZfPqyaPDMJdQaFoxI0kzSbVVvm2qCOuOS1dZ4y+Ntj/bl1P4c0ixSW706HT59YkE5uGj8tVkUI0nljoRkJ0rxqitfqVJ8vNd2v8AO7u728/l5GX16qublsr2+VlZWv5fPzPpPWPj14YvvE914hWW4fWrK7ktNMufJIzYyurszdw0eZwB1/eD0rwjxzqtvrnjLW9RtGL2t1eSzRMykEqzEg4PSsOipwuBpYR3p32tr2/rX5srFY+ti1apbe+nf+vyQUUUV6J5oUUUUAFFFFABVzR9Sm0nVLa7gnktpIpA3mRMQwGecEe1U6KTSkrMpNxd0ez2fxE0G616x1CfVJbJdN1/+1yPJdmvI8RnauBw+UI+bAwetU7z4haR9nm1a1vWjvZNFt9Nj0oQt+5mjCjfnGzZld45zlunevJKK85ZfSTvd/h/kei8wqtWsvx327/11PWY/iDot9ZtYXq2m6azPmXBjuEg8xplkaI7D5uz5pWODgvs42ripvgZ8QvDXw5+Ktzq1xJcW+hCV/s+6MySCLeSgIGfm24/GvIKKJYClOnOk27S31FHH1YVIVUleO2h+iH/AA2t8MP+f/UP/AF6P+G1vhh/z/6h/wCAL1+d9FfOf6pZf3l96/yPpP8AW7MO0fuf+Z6Z8eviNpnxE8Y3V1pNpCtp9pmnS+8spNOJAmFfIHCbCB/vH1r7a/ZD/wCTd/Cf/b3/AOlc1fmzX6Tfsh/8m7+E/wDt7/8ASuauTiijDD5XSow2Ul/6TI7OFq88TmlWtU3cX/6VE9iooor8nP1kKKKKACvHf2vP+Td/Fn/bp/6Vw17FXjv7Xn/Ju/iz/t0/9K4a9PK/9/of44/+lI8zNP8AcMR/gl/6Sz82aKKK/oU/ncKKKKACiiigAooooAKKKKACiiigAooooAfb28t3cRwQRPNNKwRI41LM7E4AAHUk9q3NN+H/AIo1q+vrLT/Der315Ytsu7e2sJZJLdskYkVVJU5B4OOhrL0mSxj1GBtSt7i7sQf3sNrOsEjDHG12RwvOOqn+tfSPxG+Ht5baD4o0e31pbXT4dWgF9q/iOa9vL67jVTHaKohtWUQqxkTI3ZcAZXAU+Zi8W8POEEvi/wA0ntq99ura87ephMIsRCdSW0f8pPrott+iT8j5u1bR7/QNQmsNTsbnTr+HAktbuFopUyARuVgCMgg89iKTVNJvtDvpbHUrK40+9ix5ltdRNFImQGGVYAjIIP0Ir6SvYNPn/aEsLK7+z2XjG6tra3F7FEdVs7a6MMccbrbyrbNFIipuxJ521mHy7l49ttX8RXk0E4u9cgv7gfYI/EDjWTicRhftLaS1otugYsDhmEYOSGJU15FbO5UIwfs73jd6218tGrb95dkevh8ljiJVIqpbldtr6eeq1/8AJe8tj4O8PeDfEHi7zxoWhalrX2fb539n2kk/l7s7d2wHGcHGeuDWw3wb8fopZvA/iRVAySdIuAB/45XtPwt8F6DN8TNd0W61D+3LyS/uIJb3VILE3FxcQrI8ix2klveSFSVYmbdGDnGC4VT6HqHhyLxFeajf6l4d+wWtrYzTJGuhptijhhJSFHu9BQKoChRulyBjGelLE5xUp1OWnFctk9b7P7vPp0NMLktOtD32+bm5baau/wA126ta+tvixNMvJNPlv0tJ2sYpFhkuljYxI7AlVLYwCQCQOpwajtrSe8kaO3hkndUeQrGhYhFUszYHYKCSewBNfYPwWtbax+F/hxnubDTpL7xTZz2dtLpdvdzfZvMkWKOWVIg3mt5c22cjcvy/cUkjE+Jl5Mmi+KtYj8TeOhoEtks1hfP4nMlnd3EzlDaeQIRwjCZWTfkLFzjcK2/tiXt5UVT2dr366Ltq7vZPp8zCGTRlhoYl1N1d6dLvXfay3aS/JfKlFFFfSny4UUUUAFFFFABRRRQAUUUUAFFFOiTzJETcF3EDc3Qe9AxY4ZJt3lxtJtGTtUnA9aZX3frniAfs7a9oPhrw1P4WsdDtLITX1vqN+tteajKysokkcxuQARuGOvTIXivG/wBrrwro0cHg3xppVrY2E/iO3ke7t9NmEtu0iBD5iMFXdnzME4GcA4yTXzWEzn6zWhB07Rnfld77Xeqtpor9T6XF5L9Wozmql5QtzK1t7LR311duh86V+k37If8Aybv4T/7e/wD0rmr82a/Sb9kP/k3fwn/29/8ApXNXl8Yf7hD/ABr/ANJkepwf/v8AP/A//SonsVFFFfkB+whRRRQAV47+15/ybv4s/wC3T/0rhr2KvNv2ifDv/CXfCXUtD+0fZP7SvNOtPtGzf5e++gXdtyM4znGRXdgKkKOLo1ajtGMot+iaOHH051sJWpU1eUoyS9WnY/MCivrb/hgf/qev/KR/9vo/4YH/AOp6/wDKR/8Ab6/Zf9Y8r/5/f+Sy/wAj8Z/1azX/AJ8/+TR/zPkmivrb/hgf/qev/KR/9vo/4YH/AOp6/wDKR/8Ab6P9Y8r/AOf3/ksv8g/1azX/AJ8/+TR/zPkmivrb/hgf/qev/KR/9vo/4YH/AOp6/wDKR/8Ab6P9Y8r/AOf3/ksv8g/1azX/AJ8/+TR/zPkmivrb/hgf/qev/KR/9vo/4YH/AOp6/wDKR/8Ab6P9Y8r/AOf3/ksv8g/1azX/AJ8/+TR/zPkmivrb/hgf/qev/KR/9vo/4YH/AOp6/wDKR/8Ab6P9Y8r/AOf3/ksv8g/1azX/AJ8/+TR/zPkmivrb/hgf/qev/KR/9vo/4YH/AOp6/wDKR/8Ab6P9Y8r/AOf3/ksv8g/1azX/AJ8/+TR/zPkmivrb/hgf/qev/KR/9vo/4YH/AOp6/wDKR/8Ab6P9Y8r/AOf3/ksv8g/1azX/AJ8/+TR/zPkqNzHIrjGVORuAI/I9a9S/4aU8bR3kepW1xZ2+vAMsutG1We7lQnIj3S71ijBziOFY05OQc17H/wAMD/8AU9f+Uj/7fR/wwP8A9T1/5SP/ALfXPWzvJa9vazUrd4y6/L+tDoo5FneHu6UHG/aUem32t10e6u+7Pn2P4pXNv4u0bxNa6HotlrGnyid5LWCSOO8kAHzSxCTy16E4iWMEsePS7p3x18Uaa9iEh0B7ezuheRWp8O6esYl+XLDZCCrEIoLKQ2AORgV7r/wwP/1PX/lI/wDt9H/DA/8A1PX/AJSP/t9Q84yOStKSdtNYyf5rzLWS57GTnGDTe9pRV/W0tT520X4mapoPxEuPGdvb2T6pNNcztDNEXt906urjYWyQBI2ASegznnOlpPxs1/R5rh4rHw6fPtprVvL0Czt2CyxsjESQxI4OGPRseoI4r3f/AIYH/wCp6/8AKR/9vo/4YH/6nr/ykf8A2+nLOMjn8Uk9LfDLZX0282OGTZ9TacIta83xR301+LyR4J8PfjHrHw1026s9NstOuVnuFuhLeROzxSLG8YZCrqAdsjc4JGcjBFF98YNV1PTLjSLrTdHl0Bo9lvo62flwWTAkrJCyESLIMnLlyX6SbxxXvf8AwwP/ANT1/wCUj/7fR/wwP/1PX/lI/wDt9KWcZJKbqOfvO2vLLpt03XRihkmeU4KlGn7qvZc0eur67Pqtn1Pkmivrb/hgf/qev/KR/wDb6P8Ahgf/AKnr/wApH/2+uv8A1jyv/n9/5LL/ACOT/VrNf+fP/k0f8z5Jor62/wCGB/8Aqev/ACkf/b6P+GB/+p6/8pH/ANvo/wBY8r/5/f8Aksv8g/1azX/nz/5NH/M+SaK+tv8Ahgf/AKnr/wApH/2+j/hgf/qev/KR/wDb6P8AWPK/+f3/AJLL/IP9Ws1/58/+TR/zPkmivrb/AIYH/wCp6/8AKR/9vo/4YH/6nr/ykf8A2+j/AFjyv/n9/wCSy/yD/VrNf+fP/k0f8z5Jor62/wCGB/8Aqev/ACkf/b6P+GB/+p6/8pH/ANvo/wBY8r/5/f8Aksv8g/1azX/nz/5NH/M+SaK+tv8Ahgf/AKnr/wApH/2+j/hgf/qev/KR/wDb6P8AWPK/+f3/AJLL/IP9Ws1/58/+TR/zOS8PftbJceBF8MeOPCUPi+COJIEuftRt5JI0IKLIQpJ5AyQRkdQcnPl/xa+Lmq/FzXYL2+gg0+xs4vs9hptoMQ2sQ/hX1PAyfYcAAAe+/wDDA/8A1PX/AJSP/t9H/DA//U9f+Uj/AO315tDMcgw1V1qUrPXpOyvvZWsr+R6dfLOIMTSVGrC606wu7bXd7u3mz5Jr9Jv2Q/8Ak3fwn/29/wDpXNXh/wDwwP8A9T1/5SP/ALfX0T+zt4d/4RH4S6bof2j7X/Zt5qNp9o2bPM2X067tuTjOM4ya8biTNsFj8JGlhp80lJPZrSz7pdz2eG8oxuX4uVXE0+WLi1unrddm+x6TRRRX5ufpAUUUUAFcf8Vv+RUt/wDsM6T/AOnG2rsK4/4rf8ipb/8AYZ0n/wBONtQBJ4gvNR0/R7ibSdNXVtRG1YLSS4FujMWAy8hB2oudzEKzYU7VY4U8VpPxf8vQ/FM/iPTI9K1Xw7erYXVnYXZvIriWSOKSBIJWjiLtJ58aBSikOSOmCel8fw+JbjwjqMPhCSxg8QyIEtZtQkMcUeWAZ8iOT5gu4rlGG4DIIyK4HTfhHq+reF7GwvrmTwTe6beyXsM3h/VU1VryaRGVprmS8sRucl3P3DjggjAAcnK0uXt+q29FcpW0ubHw/wDjB/wnVx4SiOkfYP7e8Of2/wA3PmeR88S+T9wbv9b97j7vTnjpvA/i7/hMtMvrv7J9j+y6ne6ds8zfu+z3EkO/OBjd5e7HbOMnrXk3gv8AZnhgh8C23je10Xxna+H/AA5JpUkeqWsV0FuGliYGJWhVdiqjKGID4xnJJNej/CfwGPhv4XudFjgsrW1/tS/urW309NkMME1zJLFGF2qF2o6gqBgEYGRzXS+XW3n/AOlO3/ktiO9u6+7l1/8AJjs6KKKyGFFFFABRRRQAUUUUAFFFFABRRRQAUUUUAFFFFABRRRQAUUUUAFFFFABRRRQAUUUUAFFFFABRRRQAUUUUAFZXwp/5FS4/7DOrf+nG5rVrK+FP/IqXH/YZ1b/043NTIDsKKKKgAooooAK4v4uxzzeDY47aWOG5bV9KWKSWMyIjHULfBZQylgDjIDDPqOtdpXJfE/8A5Fuz/wCw3pH/AKcragCr/wAI342/6GXQP/BBP/8AJtH/AAjfjb/oZdA/8EE//wAm129cRpfxSgvPGEfh7UNA1nQJrqKafTrzUkgEF/HEV8xk8uV3jIDq22ZY2wemQwBzdA6XD/hG/G3/AEMugf8Aggn/APk2j/hG/G3/AEMugf8Aggn/APk2s/w58ctI8Sa3pVoulatYabrXnDRtcvI4Vs9UMal2EW2UyLlFd1MsaB1QlSRjMei/HfTNd1Kwgt9B1tLLV1nOh6pNHbpbay0SM5SDM29SyI7IZljV1UkEjmnd/wBf1+G4Gp/wjfjb/oZdA/8ABBP/APJtH/CN+Nv+hl0D/wAEE/8A8m1keHfjZeeIfE1/ov8AwrnxXp82myRx6hcXU2lmK08xPMVm8u9ZmG0g/IrH2zV/4a/Fef4m2dhqNt4K8Q6Pol/ai8tdV1OSw8mVGAKjZDdSSgsDkZQdOcUK72Asf8I342/6GXQP/BBP/wDJtH/CN+Nv+hl0D/wQT/8AybXb0UXYHEf8I342/wChl0D/AMEE/wD8m0f8I342/wChl0D/AMEE/wD8m129FF2BxH/CN+Nv+hl0D/wQT/8AybR/wjfjb/oZdA/8EE//AMm129FF2BxH/CN+Nv8AoZdA/wDBBP8A/JtH/CN+Nv8AoZdA/wDBBP8A/JtdvRRdgcR/wjfjb/oZdA/8EE//AMm0f8I342/6GXQP/BBP/wDJtdvRRdgcR/wjfjb/AKGXQP8AwQT/APybR/wjfjb/AKGXQP8AwQT/APybXb0UXYHEf8I342/6GXQP/BBP/wDJtH/CN+Nv+hl0D/wQT/8AybXb0UXYHEf8I342/wChl0D/AMEE/wD8m0f8I342/wChl0D/AMEE/wD8m129FF2BxH/CN+Nv+hl0D/wQT/8AybR/wjfjb/oZdA/8EE//AMm129FF2BxH/CN+Nv8AoZdA/wDBBP8A/JtH/CN+Nv8AoZdA/wDBBP8A/JtdvRRdgcR/wjfjb/oZdA/8EE//AMm0f8I342/6GXQP/BBP/wDJtdvRRdgcR/wjfjb/AKGXQP8AwQT/APybR/wjfjb/AKGXQP8AwQT/APybXb0UXYHEf8I342/6GXQP/BBP/wDJtH/CN+Nv+hl0D/wQT/8AybXb0UXYHEf8I342/wChl0D/AMEE/wD8m0f8I342/wChl0D/AMEE/wD8m129FF2BxH/CN+Nv+hl0D/wQT/8AybR/wjfjb/oZdA/8EE//AMm129FF2BxH/CN+Nv8AoZdA/wDBBP8A/JtP+EUc8Pg2SO5ljmuV1fVVlkijMaOw1C4yVUsxUE5wCxx6nrXaVyXww/5Fu8/7Der/APpyuaAOtooopAFFFFABXJfE/wD5Fuz/AOw3pH/pytq62uS+J/8AyLdn/wBhvSP/AE5W1AHWM21STnAGeBk188f23p3i/wCK2mjw14zj8f3dxbalb3VvK0TSeGoZIsggW6RiEmVIoilyrTHJ2uuyUN9EUVMoqV0+qa+9WKUnHVHy5o93Z+OvBvwf8E6HcRnxH4bZP7a06Jl87R/I025tmFwgOYiZnRVz97OVyASLvg3VtP8AFWjfBDwlpM0cuveFbqCXXdLiKmbSBbafcW7rcoDmImV1RQfvZyuQCa+lqK1525OT6tSfqtrf5akW0UV0i4r0e/z8zyzwb/yVD4vf9dNP/wDSJayP2VvDOpab8IfBOpXHi7WdVs7jQrby9Hu4rJbW2yiEeW0dukx2gbRvkbgnOTgj2qioj7qfnb8L/wCfyKburBRRRQIKKKKACiiigAooooAKKKKACiiigAooooAKKKKACiiigAooooAKKKKACiiigAooooAKKKKACiiigArkvhh/yLd5/wBhvV//AE5XNdbXJfDD/kW7z/sN6v8A+nK5oA62iiigAooooAK5L4n/APIt2f8A2G9I/wDTlbV1tcl8T/8AkW7P/sN6R/6cragDzj9qdbm+f4VaRHqusaVZ6r4te2vTomq3OmzTxLo+pzCMzW8kcm3zIYm2hsEoM5rjv+FO6V/0MfxA/wDDha9/8m12v7TH/IwfBX/sc5v/AEw6vUtAHiPxa+HsPhnwxp13pniv4gW1xN4i0Kxd/wDhP9cfMNxqtpbzJhrwj5opZFz1G7IIIBHo3/CkdE/6GH4gf+HD1/8A+Tawvjx/yJekf9jb4Z/9PtjXrtfy14wZxmeWY7CQwOJqUk4NtQnKN9etmrnuZfThOEuaKZ5L42+EOmaR4N16+tPEvxAiurWwuJ4ZP+Fg68211jZlODe4OCB1ryn/AIRm4/6HL4gf+F5rf/yXX0d8SP8Aknfij/sFXX/olq8Mr4zhriDOK+Bc6uMqyfO1d1JPpHuz7rI8Fha0qvtKUXbl3Sf8xif8Izcf9Dl8QP8AwvNb/wDkuuB+Nx1vwh4Dm1HSPHfxAtLxZ40En/Cc6w/BPIw10R+les15Z+0l/wAkvuP+vmH/ANCr9DybNsxq4+lCpiJtN7OUmtn5n2OHyvASxNCLw8LOcE/djs5xTW3U+b/+FtfEX/oqHxA/8LDU/wD5Ira8GfEjx7q3iSztbr4mfECW3k37k/4TLVBnCMRyLjPUCvPa6P4d/wDI46f/ANtP/RbV+zUK9WVWCc3uur7n6jxBw/k9HJ8ZVpYOlGUaVRpqnFNNRdmnbRo+l/L1j/oeviB/4XOs/wDyVR5esf8AQ9fED/wudZ/+Sqs0V/PH9t5p/wBBVT/wOX+Z/nx7er/O/vZW8vWP+h6+IH/hc6z/APJVHl6x/wBD18QP/C51n/5KqzRR/beaf9BVT/wOX+Ye3q/zv72VvL1j/oeviB/4XOs//JVHl6x/0PXxA/8AC51n/wCSqs0Uf23mn/QVU/8AA5f5h7er/O/vZW8vWP8AoeviB/4XOs//ACVR5esf9D18QP8AwudZ/wDkqrNFH9t5p/0FVP8AwOX+Ye3q/wA7+9lby9Y/6Hr4gf8Ahc6z/wDJVHl6x/0PXxA/8LnWf/kqrNFH9t5p/wBBVT/wOX+Ye3q/zv72VvL1j/oeviB/4XOs/wDyVR5esf8AQ9fED/wudZ/+Sqs0Uf23mn/QVU/8Dl/mHt6v87+9lby9Y/6Hr4gf+FzrP/yVR5esf9D18QP/AAudZ/8AkqrNFH9t5p/0FVP/AAOX+Ye3q/zv72VvL1j/AKHr4gf+FzrP/wAlUeXrH/Q9fED/AMLnWf8A5KqzRR/beaf9BVT/AMDl/mHt6v8AO/vZ6P8As5eBx48+IV1pmu+LviBfWSaXNcrF/wAJ9rkeJFlgUNlLwHo7cZxzX0p/wzT4R/6C/wAQP/Dj+If/AJOrw/8AZD/5Kxe/9gS4/wDR9tX2LX9E8J16uJyahVrzcpPmu2238curPo8JJyoxcnd6/meVf8M0+Ef+gv8AED/w4/iH/wCTqP8Ahmnwj/0F/iB/4cfxD/8AJ1eq0V9adh5V/wAM0+Ef+gv8QP8Aw4/iH/5Oo/4Zp8I/9Bf4gf8Ahx/EP/ydXqtFAHlX/DNPhH/oL/ED/wAOP4h/+TqP+GafCP8A0F/iB/4cfxD/APJ1eq0UAeVf8M0+Ef8AoL/ED/w4/iH/AOTqP+GafCP/AEF/iB/4cfxD/wDJ1eq0UAeFaJ4Ktvhr+0l4S0zRtY8UT6bqvhLXbm7s9b8Ualq0LywXmjrDIEu7iUIyrcTDcoBxIQc16R8MP+RbvP8AsN6v/wCnK5rl/Ef/ACdN8PP+xM8Tf+l2g11Hww/5Fu8/7Der/wDpyuaAOtooooAKKKKACuS+J/8AyLdn/wBhvSP/AE5W1dbXJfE//kW7P/sN6R/6cragC742+HvhX4laVFpni7wzo/irTYZhcx2et2EV5CkoVlEgSRWAYK7jdjOGI7muK/4ZO+CH/RG/h/8A+EvY/wDxqvUpkMkTortEzKQJExlfcZBGfqDXKfDu1+ww6/B50tx5eqyqZZ23O/yR8sfWjrYfS5zH/DJ3wQ/6I38P/wDwl7H/AONUf8MnfBD/AKI38P8A/wAJex/+NVd0azOieLLe6kj0fUm1i/u9lzax7rmAAMf9aT8ygKVZQBgnqa2fB1mbDxN4qha4nu286BmmuGDOxMQPYAAc8AAACuWpWdOpShy3U3a/Z8rfz2HbfyOZ/wCGTvgh/wBEb+H/AP4S9j/8ao/4ZO+CH/RG/h//AOEvY/8AxqtK6sf7N8XSa1JHo+pC71OK1RfK33UH7sL8shPysMFim3pk5r0OssJiJ4hTc4crTa3vpo0/mmnbW3cco8rseVf8MnfBD/ojfw//APCXsf8A41R/wyd8EP8Aojfw/wD/AAl7H/41XQeG9JspvEg1HRLVLPS4YZIJblBzqEhYfNnq4Qqf3jZ3FjgkcnsLmJp7eWJJntndCqzRhS0ZIwGG4EZHXkEeoNa0K0q1Pncfud0/NPTR+i8rqze1alGlNRT+9Wt5Pf8Arz0PL/8Ahk74If8ARG/h/wD+EvY//GqP+GTvgh/0Rv4f/wDhL2P/AMarR+C+ljRbDxTZLc3V55Ov3QNxezGWaQlYyWZj3JJ4GAOgAAAGB4e8K6Jqvxdi13whpFvp9vpcl5FrXiKGMB9WuH+VrQyEb51jcB3cnajxpGpJEiptGTkotLdX/C/9bfezs+pwU6sXN2grp20emieujey3+5Nl7/hk74If9Eb+H/8A4S9j/wDGqP8Ahk74If8ARG/h/wD+EvY//Gq9VorQ8o8q/wCGTvgh/wBEb+H/AP4S9j/8ao/4ZO+CH/RG/h//AOEvY/8AxqvVaKAPKv8Ahk74If8ARG/h/wD+EvY//GqP+GTvgh/0Rv4f/wDhL2P/AMar1WigDyr/AIZO+CH/AERv4f8A/hL2P/xqj/hk74If9Eb+H/8A4S9j/wDGq9VryT48aG11eeBtTbUr9I7XxNpaLp0coS2d2uk/eOAu52AyAGYqM527gGDiuacYd2l97sZVZunSnUSvypv7lcm/4ZO+CH/RG/h//wCEvY//ABqj/hk74If9Eb+H/wD4S9j/APGqx/EXhDQ/FXxc0+XwvpNvH4k0nVYb7XfFgj3S20Yj/wCPETN8ztLGyqYVOyONizAExh/baS+FN/15/wBdr7WCM3Kco20XX9PVdd97Xunbyr/hk74If9Eb+H//AIS9j/8AGqP+GTvgh/0Rv4f/APhL2P8A8ar1Wig1PKv+GTvgh/0Rv4f/APhL2P8A8ao/4ZO+CH/RG/h//wCEvY//ABqvVaKAPKv+GTvgh/0Rv4f/APhL2P8A8ao/4ZO+CH/RG/h//wCEvY//ABqvVaKAPKv+GTvgh/0Rv4f/APhL2P8A8ao/4ZO+CH/RG/h//wCEvY//ABqvVaKAPKv+GTvgh/0Rv4f/APhL2P8A8ao/4ZO+CH/RG/h//wCEvY//ABqvVaKAPKv+GTvgh/0Rv4f/APhL2P8A8ao/4ZO+CH/RG/h//wCEvY//ABqvVaKAPKv+GTvgh/0Rv4f/APhL2P8A8ao/4ZO+CH/RG/h//wCEvY//ABqvVaKAPKv+GTvgh/0Rv4f/APhL2P8A8ao/4ZO+CH/RG/h//wCEvY//ABqvVa8C+P0jatpvxWiuOU0bwO8tlG3RXuVu1lkxnqRbxqDjgbwD8xoNIR55Jen4tL9T0jwT8Efh18NdVl1Pwj4A8L+FdSmhNtJeaJo1tZzPEWVjGXjRSVLIh25xlQewqx8MP+RbvP8AsN6v/wCnK5rzW7k1tbH4k6DrniCTWv7H0iz17Tr6e3hhlsrhlncKhiRAUjktlZNwLYJDM1d/8GbuS/8AAoupU8uWbVNUkZP7pOoXBI/Wn1a7W/G/+TMIy5lF9/0t/mjuKKKKRYUUUUAFcl8T/wDkW7P/ALDekf8Apytq62uS+J//ACLdn/2G9I/9OVtQB1tVTpdmyuptICryidh5S4aQEEOeOWyBz14FWqKAKVvoun2t/LfQ2FrDezDElzHCqyPnrlgMnoOvpUkmm2c32jzLSB/tG0zbo1PmY6buOcYGM+lWaKlxUtGgKX9i6eNSOoiwthqBG03fkr5uMYxvxnpx1q5S0Uo04QTUVa+vze47mXp/hbRdJuPtFjpFhZT4K+bb2yRtg9RkDNalFFKnThSjy04pLy0KnOVR3m7vzM+Tw/pc0TxSabZyRvcreMjQIQ06srLKRjlwyqwbqCoOeKxdL+FHgnQ9eGuab4O0DT9aDvINStdLgiudzgh28xUDZYM2TnnJz1rqqKuy08jWOIrQi4xm0nvq9fUKKKKZzhRRRQAUUUUAFVr7TbPVFhW8tYLtYZUnjWeMOEkQ5R1yOGUjII5BqzRQG6szk5fhL4Gn8R/8JBJ4M8PSa954uf7UbSoDdeaCCJPN2btwIHzZzxXWUUULRWWxKjGLbS1YUUUUFBRRRQAUUUUAFFFFABRRRQAUUUUAFFFFABWFrHgvS9e1Rb29gE+60lsLm2kVXgu7d8ExTIwIdQRkemWHRmB3aKOtwMHxB4K0vxHa3cE8AgF6IY7yS3RFkuoY3LCCRtpLRnLqV9HYAjJqh8L/APkWrz/sN6v/AOnK5rra5L4Yf8i3ef8AYb1f/wBOVzQI62iiigYUUUUAFcl8T/8AkW7P/sN6R/6crautrkvif/yLdn/2G9I/9OVtQB093dR2NtJPM22OMbmNUtF8QWuvJK1uJFMZAZZAAeeh4Jq7d2sd9bSQTLujkG1hVLRfD9roKSrbmRjIQWaQgnjoOAKA6HFeKvEEkOrKltr3iiyMlyIWt7fQTJEqgHd5bNaMX4UnIZu5HFaVn4mSx0+I/wBp61eO15HGZtX0aWHIchdh2W8YVeuHIwGIBODirmseGdQ1611OS6mgFy8EtvY2yMfJhDfxs2Ms7YGTjCjgA8szb7T/ABLrmm3kVyum6dMzW5t4453uY1KS73diY42PAGFHXb94ZyBaIHq/6/r+tCrL8RrRfEsFuIdY+yG1kZo/7DvNxcOgBA8ndjBbkccj2qO68Va2viV4o7L7NZRzxReXqE6J5yyZCtEsSSOxyrNhimADnuV6KDSbpNas72a4S48qzkt5H27WZ2dGyFHAHynv6detZF/4X1ddXOq2t7bXV9KDbn7RGI0toSxIaIBWJdQTkMTuLHlBhaHsl/W7Et5P+tl/XqW/BWvXXiCxS6utgaW2tpvLjXCqzxBmA74ye5NdJWB4V0e40dLlJra2s4R5cNtBbXDzhYkQKpLMinOO3P1Nb9N2bbRT30CiiikI5/x5p93q3hHU7Gz0LR/E0l1F5D6Tr1wYLK5jY4dJXEE3y7S3HlsD0OAcj5L8J/CzTNV8c69bW37PfwTuZ5HdYLZ9QbyVFqUiuGib+xSuBNLsbhTvRhghc19feKPD58UaLNph1PUNJjnKiWfS5hDO0YYF41kwWQOoKlkKuoYlGRgGHI698GLW6k0J/DPiHVvh+dGsZNNt18Ow2JQ2ztG3llLq2nUAGJSCoU9ck0R92XN/W2n4/r2V3LWFo7/hbr87bfK/l4N+1N4s8eWml+LhcXEnhrSo/CN3Zrpdp4W1bxBa3zTQ7p5jd2vlQW20p5UbTgsq+ZIyIrgHsrPxt4g8U/DPxjNrd7da9Fp+npPb2dj4Y17wJO8oJZVF7POzkMVAJhHyg/NkNg9Zr37Pd1rnhi48Mp8UPGWm+GZtNXSm0m0h0gx/Z/JELKJJLB5csASTvzljjaMAa9h8H9R+WHW/iT4s8UacHhc6fqMWmQxM0cqSrlrWyhkIzGFKl9rKzAg5rTS3I9v69f62sEpe7FK+l/8A23tZdP8ANs8Gtf2bviXazWk405HvBN/p1+fjT4mFze26mQxQMwtAqhTJywXkbtoQtkeneHbrxz4Y8T6romkeE9Gl1OLS9Nn8nUfHF9cQTIRNG8jzS6fJKZlaMJvbcZUVCxUqFr3OuTvPhno+ofEODxldPezapb2cdnBb/a3W0QI0rCQwqQskmZThpN23A2bSWLQtLLp/wP6/4cVlZvr0+9fpc8i+FafFDxL8J9W0pdM8JeHI7ibVUt9U/tK61ZhK1/OHRrX7PajbzIA4nzwrFOSo4LwzNrVnoPhu/ttf1m50LXL1vPjkjt7OymuTouoSXKW9vFAsnkrIkXzTTSl5I2PJXzJPplPhfoUng2XwteRT6jos1zLczW9xOyifzLhp3jk2bQ8RZypjYFXT5XDAkHmrj4A2Uf8AaqaP4q8QeHLa8hNrbWunCyaHTYXbfPFbLNbSBUlYAsG3bdoEflgYrOa5udJfErfnb89fS610emHl7OMVLp+qS09N/wAOzXeeE/8AkVdG/wCvKH/0WteOfGCa/uL74g63FrWr2Vz4K0OHUtIsdP1Ga2gefZPMzTxRsFuFkMSR7JQ6gI20Asxr3Kxs49Osbe0hz5UEaxJuOTtUADP4CuZ8SfCvw14t8SWOu6nZXEmpWaogaC/uLeOdEfzI0uIo5FjuERyWVZlcKWYgDcc9E5KVRzXcwpLkhFSV7Jad/K54/per6zN8dv7Sb/hI30mTWJ7KLV/7VlOkTBbQqNN+wb9scizrI32kxAExAecTJ5dS63qWua7J4p8W6hdax4d1zwrfabBZ6LaatJ9jXfb2k88UsSERXPmNcyQ73V8bAY9jc16l/wAKZ8JN4xfxO1hcyam0zXQik1K6azSdozG06Whk8hJihYGVYw53N83zHLI/gp4Pg1bRtRi024hm0mC3traKPUblbd0gB8jzoBJ5c7R5yjSq7KcEEEA1lDSKUt1b5d2u/wA909dbt6O2tu36/wCX3dNLJeceHNRvdL1rwj4vl1fWtQu/Emt6np+p2LXtxcWkdtHFeSRrDZgmON4vskUe6NA75bcWZq63xtrw8beBbHXtF1PxHodtb6la7raawuNJluf9KiXbLHcQpOE5zhdocZDb1JB6bQ/hX4a8OeK77xHp9lcQ6leNI7q1/cSW0byMGleK2aQwwvIw3O0aKXJJYkk5l8ffDfRfiXp1vY642qi1hlEyrpes3mmlmBBBdraWMuAQCAxIBAI5pO9lb+v6+Qdf618/Lt10R5f8U3vrrUPH3iFdb1fT7rwXZ29zpNnZ6jNb2rP5Zndp4UZUuFkOIisocKEOzaxYnS8W2ep/EXxhPour3WteErTTtMub61TRdZktXnk89o4bl5IGUsFRA3kuSmZv3iMVXHX3HwY8KXmqaRqVxa3897pkMNvHLLq9432lIWLQi6BlxdlGLMpuBIVZmYEEk0zXvgn4O8SLD9t024Vori5uN9nqN1au5uHElxHI0UimSGRgC0LkxttXK8DEuL0Sl/N+KaXzV7+q76p6atrt+G69Onzv5Px3RfEmseMvDk3xAvNb1K21vSL3Rbe2sbK/mgsjHPb2Mk6S2qv5UxlN3LhpEZlBTYVKgn6crkL74T+GNS8YWviaaxuBqluI9qRX9xHaSNHnynltVkEErpn5HkRmXC7SNq46+tpNN3Wi7fr897bIzSta/Zf1/wAHd9QoooqCgooooAKp6vb3l3pd3Bp92un30kTJDdPCJhC5GA+wkBsHnBOKuVk+LPD48V+GdU0Y6hfaUt/bvbG902QR3MIYEFo2KsFYA8HBxSls7DVrq54Lr3xK8UeCtB8Xz2/ifUPFGjaTrmj2cGvT2FvLcu8l3HFf2iR21uiTBFIUFIy4eR0yWTA9C8I/FQeNPitdaXp41a30mDRVuWt9W0O601jMZyu9ftMMbsNox8uV/Gnaf8Dbe38JQ+Gr3xTreraPbT2M9nbzQafbrZ/ZJkljSMW1rENhMaBgwPA+Xbya7T/hF7X/AITA+I/Mm+3GxGn+XuHleX5hkzjGd2T64x2qvtR6pN/+kWX/AJNrbpvdiesGlvp/6Un+X+VkbFcl8MP+RbvP+w3q/wD6crmutrkvhh/yLd5/2G9X/wDTlc0gOtooooAKKKKACuS+J/8AyLdn/wBhvSP/AE5W1dbXJfE//kW7P/sN6R/6cragDraKKKACis++1/T9Ntbu5urlYILR1jmkcEBGO0gdP9penrQviDTZNP8At0V7DcWm9Y/Ot3Ei7iwUDK57kD8ax9vS5uTnV7XtfW3f08x2e5oUVz8nxA8NxXBgfW7ESiTyiPOGA2M9emPfpnjrxWtd6paWMfmTzoi7N45ySoIBIA5I+YdPUVFPFUKybpVFJLezTt6jcWtGi1RWZceJtJs9UGnXGo21vesqssMsgVmDEgYz1JI6DmoNQ8aaBpTypd6zYwyxHa8RnUyKc9CoOf0qZYzDQTlOpFJO263XT1Dll2Nqis7T/EWlavM0VjqdneyqNxS3uEkYD1wD0rRrenUhVjz05JrutRbaMKK5b4nePrb4Y+BdY8TXdneahFp9u8wtrG0nuZJGAJAKwxuyrnq+3aoyTgA1ymufHSbTdW0hdP8AAviTxBomoG2gOqWS28D211My7YZLW6lhnyqOHkKofLAbcAUfbqvedl6Bayv/AF/X9dD1SivDfiZ+1joPw08QeK9In0PWL+58P6bDqE8n2drK3PmPIoBuroRWyp8gw/nHexZEV3UrT/gL+1Npfx+8Ra3pekaDNaRaWkckl6ut6Tfx/OiMFZbS7ldSSXAIUr+7OWVsoFH3tv6/qwSXLv8A1t/mvvPb6KKKBBRRRQAUUVzereOrLR/F2jeHpbLUpbvVGKx3Mdo32WPEcsgDTNhCxED/ACIWYfKSoVgaPIOlzpKK4KH4wWE3jWPQRo2sCxlu5NNi8QmOL+z3vURne2B8zzQwCON5iEe5SgfdhaPEnxgsPDfigaS+jaxfWkM1vb6jrNnHE1npsk7BYVm3SLISxZMmKNwgdWcopzSTva3X+v69V3QbO39f1v8Ac+x3tFcFoXxgsNe8WjRo9G1e2spp7i0sdeuI4RY39xAWE0MWJTKGUpLy8aKwicozDBO1408dWnge3sZbqx1K++2XUVqi2Fq0oQvIqb5H4SNRuzl2BOCFDNhSw62OjorgvGHxgsPB/iA6dJousalbWqQzarqljHD9k0mOVysbzmSVHYHaxIhWQoq7nCqVJ1viP8QtM+F/hO61/VI7m4gg+7bWSB55jgkhFJAOFDOckAKjEnANAdbHT0VwOtfGLT9G8Vf2R/Y+rXtnDc29lqGt2qQmy064nCGGKbdKJSzebFzHG6qJULlQcjvqOlw62CiiigAooooAKKK5K4+K3hS2t/Esz6zEY/DlwlpqZjjdzDO6oyQgKpMkjeYgCJuYswXG7ildDs3sdbRXEWnxo8H3k3h+BNVeO4125ms7GCeyuIpTPF/rIpUeMNA68DbKEOSAOSK2LPx3oeoeMtR8KW995uvafbR3d1aiJ8RxuflO/bsJP90HIBBIAIp/1+F/y19Bef8AW9vz09Tfrkvhh/yLd5/2G9X/APTlc11tcl8MP+RbvP8AsN6v/wCnK5oA62iiigAooooAK5L4n/8AIt2f/Yb0j/05W1dbXJfE/wD5Fuz/AOw3pH/pytqAOk1Lz/sM/wBm/wBft+X1qh4Z+2/Y3+2+Znf8nnZ3Y/Hmtiivnq2T+2zalmvt5r2cHHkT9x36td/8l2NlUtTcLb9TybUrW80XUL+9trX+zo47xty6Stt94wLsyZgN7EtwqrkbnHJIqrcaZqOq+F44ru2aSyW8geO7vltpJF3MokACZyTITncM4yDzmvVLXQNMsrhZ7fTrSCZd22SKBVYbvvYIHfv61IdIsTJPIbK3LzsrTN5S5kK/dLHHJGBjPSuP+w3JNTm+Vr4b+7t2st3Z2Vtk/Ip1eyPFfsMy+JvLW71T7SlwLoCJrtIlUNhQLf7KSP3fygb8AcbsV2viiz/t7SdX1E2drdRmRbe3N4v+qjQkNIBg5Jctx8uQByK67/hGtI+xrZ/2VY/ZFfzRb/Z08sP/AHtuMZ96nm0iwuLeG3lsreSCFg8UTxKVjYdCoxgEe1LCZLUoUalKrJSU9dNNXo++yur7vfR2sSqJyTR5RdS6xa6l/Z0bagLlJ5JYoV+wCIS4/cA5JxxnCsc4Vdv3eO0t9OvPEGtXd0+p3lh9jdYoEgjtyYyYkMilij55PIzjIHoK6FNF06PT3sUsLVLF87rZYVEZycnK4x1qe1tILGERW8MdvEDkJEgVfyFdmFyqdK6rVZSTs/iejStbS2nn1aXuqxEppu6RnaB4fbQI2jXUry9iOTsuhF94nJYsqKxYnqST1rXoor3aVKNGCpw2Xm3+Zm3d3POP2iLWfUfg74msba61u2uby1e1iGgWLXdzMzgqItqwylUcna0gClFJbemNw+VfF37NV34i8ReINU07wn4UvfDa3NzLeatrXw0uLjVtzx/ZyI1nvVuL4xhTO02xd7sHi89mKL940VpyrW63v+n+X9a3fM9F0X9f1+N9LfFfxQ+EJv7fUdWvtHv/ABfqutaHotrBqH9h3lqF2Su5t/s5sb8xRfuY3eC6hdAzgyFW2kbn7H/w71/4Y+PtZsde8H2vh3ULzTEkuJLG1hjgULJujj8yy0SztJHxKQ3+kyuCp2oAWx9cUVope85PXf8AG/8Anr3IauuVaLT71b/JWXQKKKKgYUUUUAFeZ/FDVvEFr4u8HDSfAeu+JrOwvjfXN9ptzp0cUatbXEGzFxdxOWBlRjhSNucEn5a9MooWjTH0a7niOn+D/EcWqjwrJ4cuRodt4juvEY8QtdW/2e4jlmluRbqgk85ZfNn2HMYTYhYOSQtZNj4C8R6ZY6l4WsvBlzY6R4p/s26kvE1G3mg0MRWttbzW0paQSysqWi7HjSQOz/MUAJr6EopxfKmu+/n6/cvu03dyTcpOTerv+Lv+bf8AVjw/w74L8T3esaB4fv8ARrzRdP8ACuq3+p2/iSO4tZIb5ZY7qKBYY97SLIEvNz+bEqhoiF3qQa2fH+m+J/DXw7t9JsrTxP8AFPUpb2GV7svpNvcRok8cp35a0ixhCq7FLZxn1r1eipeqtcL6ry28vL8etzw3xZofizXZvEunW3hC/jsfHVhbxy3s13Z50STyjDMt0gnJfamxl+z+cGbcpKDDHK+KHwf8deJtB8RP4Wl0PQ0e11O3t9D1TTpNQluJZ5ZC9zHcC9hSFp12YDo3lgkdGYH6Hopqy2Xf8f6/p2C/6fh/n/wNro8KvPCPjNdQ1jwzc6MdVtfEWo6fqlx4psTBbWNoYo7ZbiN7eS4acMTaExhFkX98gZxtZq91ooo316/otl8hf1/wfmFFFFABRRRQBleKl1lvDWpr4d+yDXWt3Fkb92SATEfKXKqxCg88KfpXy/4d8A+MfDdn48ivPCX2WzsfEmg6ssenXs+oyX8duto9y8bSW0TXDYjaQsoLtKHQKSAW+taKI3jLmXl+Duh30s/6ufJureA/EHifXdX8R2GkapCuoX+qa7o8dxaS28sckMGnC28xHUNEZZrNiEcKxVjkda7/AOC+k61P47PinV9HvNMudf0aS/uEurdo2gaS7LQ28meksduIUZeoKHivc6KUVyuLXRWXpy8v5W+4Uvei4vq7/O9/8/v1vZBXJfDD/kW7z/sN6v8A+nK5rra5L4Yf8i3ef9hvV/8A05XNMDraKKKACiiigArkvif/AMi3Z/8AYb0j/wBOVtXW1yXxP/5Fuz/7Dekf+nK2oA62iiigAooooAKKKKACiiigAooooA5/x54ktPCXhHU9UvPEGj+Fo4YsJq+vEfYraRjtRpQZYty7io2+YhOcAgmvnDT/ANpa5utb1Ozm/aK+BsFraeV5V02nHFxuUltudawNvA4J5PavpnxRqWqaVos0+jaOdd1PKxwWf2lLdCzMF3ySN92Nc7mKq77QdqO2FPln9neNPhn4i0zVU0TWfiC2oWl4+tLoE9nbIL6SS3Mb+Td3USiNIo2ijwzuqoAxJJYqPxXe3/Av/T72Xo5fBdb/ANfl/wAMUvi9+1JpfgG11mLRLS58Rz2fhqfWhqWl6bealYwzFA1nHM1rE6okqiSQs8kYCIDnDhh1Mnxus9U8J6zqehWNxbXOl2y3U7+N9P1Lwzp6x5+d2u7mzIAVQzfKrdBnAOa8m+M3g/XvH3g3XbJvhT47PirUtEaCS78NeKrbTNImvZbbBaWBdWi84K5EbNLExZYwPnULnodA8L6lc+H9X8O2Xw7+IGjrq8cFvc3njXxbFq1skXmqspjVtTu2VhG8jAKih9gViOK15brle/8AXy8un6hJpRi467/+2/8ABt8zg7X9um8kmtJZbv4MxxX032WOxPxPxNauhk8yWaUWBj8ohVKkdexcuAPZNC/aO8JLHeT+JfGngLTLWGCzke6svFNvPbwyzxs4gaRzGTlU8yOQonmI3CjYSfXa89m0fxTH8bn1SysLEeGZ9Htra71C6uT53mJNcv5cMKqdxw6bndkChhtEh3BYXRf1t/X9aCto5X26fNL9fuXTc5Hwn+1V4O8UeA9V1Oy8T6Lr/iCyF7J/Y/hp21O68qO5eKGT7LbGSYoV8pmYLtw+7IXpS0f9pDWZo7KDUPCk1nPqT+ZYXl1Jb26yWsljd3UMxtVuJbhATZvHiZYS2ScKytGvb+FPD/inw/8ADGXTLC206DX5NQvmT+1ZGe3iimvpnErLFkyYikDiIMm44QvHksvlMXw18TeF9FXSX8F6p4gk8Pu9xb6tpd7ZLLrlzJay2cL4uLlDHFDbysrxuVIZU8syKG3Zz+3bdrT11/zWt/1tph+Vxj7Tt+Nlb8b3+9+f0dod9JqWi6feShVluLeOVggwAWUE49uaw9e8ZXui+MvD2iroU01hqszQtq7XEaRRuIZ5QioCZHbEHOVVQHUhmIKjb0Czk0/QdNtZgBNBbRxOAcgMqgH9RXEfEmw8d33inwtceGdD8O6jpml3RvZ5tW12eymZ2gngKLHHZzAgLMG3FxkgrtH3q6J8vtGltdmFO/s7y3t+JXt/i9fzeLIo/wDhH7ceDJtUm0NNe/tL/SBeRb1bdbeVtEPmRPEJPNL7wP3YU7ho+KvixaaLrHhSw0u3i14a3cwiS4t7pRHbWsuRHcZAYOGfaFUY3DewPyGufsfhn4mt9eOlOmj/APCFwa3ceIoLoXUrX0k8ryTG3eAxbAgnmd/NEpJVVTyxksMbUP2e/EV9No+o2/j3UtDulvdOu77RtLt9PGmW/wBnjVDHaeZYvMsa7TsRpMDcxOCTWUNXHm2vH7tL3899uiXfmLqac/J2lb11t+Fvnv1R1Ph/4u6jq3iqxguvD0Fj4X1e9utO0jVv7RL3NzcW4kLeZbeUFjR1gnZGWVyVRSyoWwOk+IHjC+8G2Flc2ehS6wk13DbzSi5jhitUeVEMjkkuT852qiNlgASgO4cRoPwt8R/21puma1/Zo8J6BqF7qOlX2n30639w06TxpHLH5aiHyo7qVd6SuXKo2EORV/xp4D8QaP4Ct/D3gOyt9ZzeR3E0ni/xTftIipKkvE8kV3K+Sm3axAUHI9KTdkn/AF/wP623Hu9Pn/wO62On1jxle6V440LQhoUz2GpM6HV3uI1iVxDLJ5aRgl2YCH5twRQHXDMdwXF8afE7U7HUl03wbodj4u1CG3nvL5ZdWFpFBFE/ltGrrFKWnZ9yrGQq/u33SJgBqXiy1+JWpa94NvtP8NeFZItOf7Xfrc+JbmNlmeCWGSOLGnt5iKJAwdthbGCi9arax4K8b6fr0ms+G7PwqLm9S7sLu3nmntY0ge4MsF0CkUnmTKGcyRkIJGfPmJt5mXNdKPn99nb8bfLW/UFbW/l93X8L/Pp0E/4XtPqF1DqOjaBHqHguGayttQ1ia+aC5hkuo4XjMVt5TCVFW5gMjGVCu5tocqRXrdeIWfwX8Q+H2bwrpUmm3Hga+m065u9QvLuRNRt2tYoI2ijgWExyCQWkXztKhQySEK21Qfb62la/u7fj/wAN269+jIV9L72X9evfoFFFFQUFFFFAFPV9SXR9Lu75re4uxbxNL9ns4jLNJgZ2og5Zj0ArgY/jpp1vp+uvq2ga1oWr6Q9rHJoV4ttJeTm6fy7XyjDNJEwlkzGCZAAytu2gZrtPFmoanpPhnVLzRdKOuavBbu9pponSH7TKAdkfmOQqgnHJPFeJWvg/xPrvg/Ur+78K6zD42XVdM1q6m1iewiXUzbXCSG1thb3UyxRoiOsaSsBukDM7M0j0R1dntp+etvO1+/oPon/Xz7L+uh2kP7QWgtqfh/TbnTdWsNQ1bUJ9KltriOEtptzFsylwUlZRuMsQVozID5q84Oa6HSfiZpes/EfWvBdvb3h1HSbWO5uLpkUWx34/dq27cXAZCflA+Yck5A8U1H4K+KPFGoaxrkukHTLzWZ9U1SG1uriFn0648ixjsRIY3ZS++yWQ+WzKp43V2vwh8D+JtH8TW+v+IrBbW/1LR5JtRCzxyCC8mvHnNuCp+YRIyxhwMERjmlHWUU/n5Pkvb/wJNb9l11mWkW1309Oa1/ua/F9D2SuS+GH/ACLd5/2G9X/9OVzXW1yXww/5Fu8/7Der/wDpyuaYzraKKKACiiigArkvif8A8i3Z/wDYb0j/ANOVtXW1yXxP/wCRbs/+w3pH/pytqAOtooooAKKKKACiiigAooooAKKKKACiiigAooooAKKKKACiiigAooooAKKKKACiiigAooooAKKKKACiiigAooooAKKKKACiiigArkvhh/yLd5/2G9X/APTlc11tcl8MP+RbvP8AsN6v/wCnK5oA62iiigAooooAK5L4n/8AIt2f/Yb0j/05W1dbXJfE/wD5Fuz/AOw3pH/pytqAOmvLyDTrSa6uZVgt4ULySOcBVAySazvDXi3SPGFnJc6RereQxvschWUqevKsAR+VTeJNCh8TaDe6XcMyQ3UZjLp1X0I+hxXO/DP4aw/DixvIlvWv57p1Z5TH5YAUHaAuT6nnPevHqVceswhThTTw7i3KV/eUr6JK+1vL5q2vpU6eEeEnOc2qya5VbRrrd2/X7+kepeNdasdYnt00mC7hiYRMLcXchRiNwZnW3K42lflGSCetCeONVt9BS6udOinuPtMVqfshdBvZ1DAxziNlJDDGN3XJwBVLXPAd9q3iHVLxbOykimlUxvcNb7iBEi/x2spxkH+L8PWa18Czf8I1JYXdpGWW/WZLeN4/KZC0YY/Kka/d38bV6ngnmvJpTzGdSrBuSSUraW6q2vL2v09ND1OTAqnCTtf3b6/f1/rqWX+JliNVCefapZRt5E6PMv2lZD1YIGOUU8EjOckj5Vye1Vg6hlIZSMgjoa4dv7dTULZo7DWDaJJiSMy2w/dK25AD5/JB+UkjLKeeRz3Ne5galWpGTqt79YuP57r8tdzysZClHl9kl8nf7/MKKKK9I84KKKKAOM+Ml5faV8LvE+p6dqeoaReabYTX6XGliAznyUMnlr51vOg37dpPlOQGOBnFfEv/AAmHxa0y1tnvfE/xIGl6dcC8hITUY5V+9v8AOnn8IIkqfOxCzOsQwucBQV+8PHnhdfHHgfxB4ce4+yJq+n3Fgbjyll8sSxsm7Y3DY3ZweDjFfPVx/wAE/vBf2dvsur+RdKMxy/8ACIeGU2sOQd0OlxyDnukiMOzA80QS9onLbQKn8L3Pi1/JW/Um1b4j/Ejwv8aNe8O6TfweOFsdCtk0/TZtNFtPf3fzmQSXX2qO1SZFKTNiKPzEYpGi+UzDsvgH4o8TXt5fafqenaxJpUsa38Ooa7qWnXF2skhbzMLaXU4+zs6SGPkbDujC7EUjp/H/AMMb3xM2qTaPqGl6bc39tBbONS0yW6iHlzPL5mIbm3fzMsu1g4KlAee2f8I/hb4p+H+va5eav4g8OapZao7Ttb6T4euLCWOUtuwskl9P+63PO/l7eGmYhgPlohqtdHr+ben3imm5O22n5Jf5/p5+p0UUUDCiiigArifFl9r2nePPB32fVYYdBvrx7S409bMGWVhaXUu5pmY/LmOLCqqkFWyzBto7auF8dfDK98a6/o2qQeOfEXhtdKk86Gy0mLT2haXbIhkY3FpK5JSV0wGC4wQA3NNbofR+g/T73X7X4oava3+qx3ukPpq3Vlp9tZCL7OBIVO5yzNJIxzk5VcBAEBDM/nuq/EHxNrk2veKtN1bUPD2l+F7qwgl8M3dhbj7YssFtcTi5Lo0qSCO6CII5ECPGS3mA4rvn+GN8/wARH8Vf8J34kEbReR/YixaeLIRY+4G+yefjcd+fN3Z77flqk3wRsm1Wxum8SeIJLSOO1GoabNPBJBq8tsAIZ7pmiMhkG1CxjeMPsUOGAxUw+Fc26/zb176WVnfUJbya6/5Jfnf7+5y2h+OPEFjrfhvxNrHiZ5dC8Tarf6adFlt7eKz02GGK6mhmSUIJd+yzPmGSR1JkYqqAADpPFXjweKfBdh4j8AeMtIvdHTUbeO4vdL8rUFuVNxGjRRzBzGn3iGJVzgkDY2GGj4d+ENj4d8VSavHrOrXlklxcXdjod20DWWnTzlmmlgxEJcsXk4kkcKJXCBQcC98SfANx8RNHg06LxVrXhaKOZJpJNFjs2eYowZFb7TbzAAMob5Qp45JHFD2Vv69f6+/YN3+fn6dumhX8S3uvaf8AETwksOrQx6BfTy20umpZjzZHFtcSF3mZj8uUj2qioQQ2WcMAvLfGL4mazZeBtcXwvHdaNrlpBeXL3V5aoTbQWxYecEbKsJmULGSOVZnwdhFbWvfCXU9e1Lw5en4k+KrKXRVUqLaDStt1LsdHml32LfO6OykJsQdVVTzVXxt+zd8P/iRYajF4q8PWHiPULxZ401jVrK3ur+0jkd3EcE0kbFEjLnYvReOtPqu2v9f107Ara38vy/r599TD8S+K/FH9ueINfs/EE1hpPhnWbLSzoMdtbvb6hFKlq00kztGZVkH2pgnlyIoMalg+SK9rrzj/AIUVolvr9vd6dfX2jaEjWsk/hbTktotLupbZVW3kdPJMilFjhAWOREIgjDKwBB9Hp7Ky/ru/nvbZfgp6/Jf1/wAHqFFFFIYUUUUAMmmjt4ZJZXWKKNS7u5wFAGSSewrwnT/2gtb1zS/GNxaaVaWckGuabo+grepIpdLxLcx3FwmQTgTmXyxsO0BCQ2WHs/iTw7YeLtA1DRdUikm06/ha3uI45nhZo2GGAdGVlyO6kGvKbX9mix0n/hMJNN8Q6rHc61f2Gp2c2oXl1qBsprQQmLf587mYGSHLHKsUbywwCqQl8Xvbafmr/O23z8iltpv+Hl/wTCuv2g/Eeh+JtK0XUoNJnNjrdxpPiC7t7aaNWjC2hingQyt5QxfRM4cyYCPz3rufCvxL1XxF8ZPEnhw29mvh2wtA1pcIrefLMkgSclt23YHJQAKCDG2Sc4GR/wAM7rqC3s+ra4t1qeqR6n/alza2RgSaW7ihhDxIZGMQijt4woLOTjO7Nbvw1+EJ+H9zpt1JrDardQaSbG7ne2ETXdy9w1xNdHDEKXkdzs5xnrRG/NHm+fryfkpLt9rstIl8L5d76enN+dn+Hc9Grkvhh/yLd5/2G9X/APTlc11tcl8MP+RbvP8AsN6v/wCnK5pjOtooooAKKKKACuS+J/8AyLdn/wBhvSP/AE5W1dbXJfE//kW7P/sN6R/6cragDraKKKACiuS1r4veBfDeqT6bq/jXw7pWowECWzvdVghmjyAw3IzgjIIPI6EVp2vjbw7e+G38Q2+v6XPoCKzNqsV5G1qqqcMTKG2gAgg88EVHtIO9nsdssFioQjUlSkoytZ2dnfa2mt+htUVmv4k0iOaCF9VsllnuPskUbXCBpJtnmeUozy+z5to5289K0qs5ZQnC3MrXCiiiggKKKKACisnxR4s0PwRos2seI9Z0/QNJhKiW/wBUuo7aCMswVQ0jkKMkgDJ5JArzO2/a/wDgxceIb7ST8TfCcLWsENwLyTXrMW04kLjbHIJSC6mM7lOCAyHGGBoA9ioryrUv2ovhjpuo6lZDxZZanPYafBqcsWiN/aczW8uSrpBbeZMwC7JGYJtVJUYnac1Fpf7TfhDUdL1y7msfFGjz6Pb/AGm5sNY8M39lcOjStFAIhLEqyPO4xFGrF2LAbQwYBvTcOtv61PWqK8W/4a48BPJpCw2njC5GpBXTyfBuqlo0ZC0cjR/Z97I5BVWRWDMDzgEjstS+L+habGkn2XXLxBZR308dhot3c3NrHIyiJZrWOM3CO+WIQx7gI3LBQtL/AIb5iudvRXEfDX4waH8VIZ5NHsvEFoId2/8Atrw/facpw7J8jzxIjnKn5VYkfxAHiu3phe4UUVg6h460HTPFOneG7jU4V17UAWt9PXLyldsjb2Cg7FIhlwzYBKMASRil5D8zeorB0vx1oOteKNT8PWGpw3ur6Yive28ALi3LdEdwNokxgmPO4B0JADqS/wAReM9G8K3mjWuqXotbjWLwWFjH5buZpirMF+UHaMKfmbCg4GckAnbz2/L8w2un0/4f8tTborkdJ+K3hjXfF1z4asr6aXVIDKhZrG4S2leIgSxxXLRiGV4ycOkbsyEMGAKnGh4q8daD4JWw/trUorF7+4S1tISGeWeRmVQERQWYAsCxAwq5ZiFBIO3mGzafQ3qK5LxT8VPDvgzWrPS9WnvoZ7nZ++h0u6uLWDe+xDPcRxNFbhm4BldAav8AiDx1oPhXUdK0/VNThtdQ1SZYLK05eaZi6pkIoJ2BpIwXI2qXXJGRSve1uunz7Bte/TX5G9RXJax8VfDOg+LLTw3e308ep3Lxxgx2NxJbRSScRRzXCxmGF3PCJI6s5KhQcjPW01qrrYOtgooooAKKKKACimTTR28LyyusUUalndzhVAGSSewrD0n4g+Fte8OXPiDTPEukajoFsHM+qWl/FLaxBBly0qsVXaOTk8DrR3Dt5m/RWDZ+PfDOpR6NJaeItJuo9aLjTHhvonF9sBL+QQ37zaASducYNX4fEGl3GtXGjxalaSavbwrcTaek6m4jiYkK7R53BSQQCRg4NHWwdLl+uS+GH/It3n/Yb1f/ANOVzXW1yXww/wCRbvP+w3q//pyuaAOtooooAKKKKACuS+J//It2f/Yb0j/05W1dbXJfE/8A5Fuz/wCw3pH/AKcragCT4pa7rHhj4ceJdW8P2X9o61ZWE09pa7C++RVJA2jlvXaOTjHevFv2IfjD46+MHgzXbzxn/pqWl2kdlq32dIPtGVJkj2oqqdmE5A/5aYPSvpKisPZy9r7Tm0ta3Tfc+hw+Z4ajlVfL54WMqlSUWqr+KCW6Wmz9Vu7p6W+WfF2ueR8TPE8NpoXiXU/tU63hkt9S8UaWqARpDt8izsnjYFoWIlUkMO/FV7Oa08dfB2/bVNGltLW1nW80az1Ww1LWXe9uBOgaSW7sGNwMzDaEimKFNzMwYKPp7TdBsdIur65toStzeyebcTySNJJIecDcxJCrk7VHyqCQAKLHw/p2naXZ6dBaR/Y7Pb9nik/eeWV+6QWycjsetcscNU+01qmnp5q33W+/U+h/1lw0aUIU6U7w5LN1G9Iqz91pxV1orLZvzT+MPAPhfR7vxlaRav4bj0zTIb8WNxcN4YUMJZIwICkieHrbyWE0sJDPKhGM7SCCft+sKTwN4euNSXUZ9Gsrq+S7N9Fc3MKyyQzlEQyRlsmM7Y0Hy4+7W7XTQpulDlf9f0zyuIc6p5zUpVKUXHlVmm01fuvXq35KysFFFFdB8kFFFFAHMfEjxBa+GfB19f3nirS/BUCmONtc1cxiC3DOqn/WOibyCVQsSA5UlXA2N8+yeLtatbLSbPVPGXiLwX4V0W9uLm2+ImuWssP9qMVYJFfpcQpHDCGlkVmlWKOQrb/ZmVmAi+qaKVt/6/r9epV/6/r/AIPlrqfGHx78TNrGoeOdStvix4VFrDpWlwW9ja3502G5aT7TKtvJcpqluxnZCZIx58cZjlO+KT5JF5D4V/DvxHJ4a1+PTr/WdU19Le28vTNb0/W9P1y+dUt0kv0gvPEMEY8tNsP2iB48FWRG2BUk+/qKemtuv6f1933ilJys/wCtrfp9/lofl3Zw6/J4i0/S4LXxPaa3r00XkeGdZvL3TdQfy5ppBOtnL4yW4b94JHDOoTKl1Zckt9MeL/h94q13XNVa41e7i1uPRdL1HydNtLm2ezZ3khutqWOpQzyMwiRnzeTFhCiqJSqA/VlFHr3/AE/r8g2btt/wbv71p+J8ufsl+E7i08ZeLdT034j2HjjwtZsthCNLvtVurQTukc0mw3Oq3cSsGY7gVL5c/OoJU/UdFFO7sk2TZdAry34seOLLw94y8DW0+m+IrxrfUWvZpdJ8OahqEMUTWl1CC0tvA6Kd7oNpbcAwYgLzXqVFC3RXRnlc3jqxPxsm0z+zfEvmHS/sX2yPw3qH2Pzd5kwLvyPI+7/Fv25+XO7ivOtY0L4lzal4V1Wy8L2esaWl1pMdjc65r91Hq1vaoqNIbu3WxdUlaTcZXEhHyRgj5c19M0VNP3OXyaf/AJM5fq16Ez99SX8yt+CX6J+p4B4Xs9V1HVvC3heDTNT0rVvCmt6lqN7f32lzrYSxSR3kcLxz4WO4Mpu4pCkchYbXD7GFdF8Stc1fwn8NYLfxVJceJtZuL+3Il8IeFNQkj2JcRyHMETXTx4RT8zPhiMDnivXaKHe1v6/r+vIrtfZbf113PEfHnxQtfE/iLSvCkuieKbfwzqFvb3l9qB8H6pOt2kjfJZjbbFYDwDM0+0ohCBdzs8MnxA8XWvhvw9ZQzaf401CSTxOtztXQb7U5Ejh1BHkYfZoZNkIUExBsFkA25wa9qoqr2aa6O/4pr8v+GE7STT/rRr9TwDWpLq61rxT4ch0TWXvPFetabrOnX40i5FqLZYrMSPPOYwlvJH9kk/dSsrnEYUEsBXv9FFLT9PktF+H3/gjVu/8AXn/XQKKKKACiiigDN8STadbeH9Rl1eAXOlpA7XULWzXAeLB3AxqrFxjPygHPpXzFqniC28RT+PNat9X0rxZ4aXXPDuoXmvaEoNhHbQ3amS3cLJIGkgijSaWXfgo4ykaqAfq+ihaNS7W/Bp/oPpb+vkfGmrwy654o1DxLoUovNPj1fWPEXh6e0xJHdLbQ6a8hhI4ZZZobldwOG8xiDzXpPwRvl8TfFO68YeUyHxRobapCXBDG1N2Y7QkEAjNvHE2OxY19BUUorlcWvsq3/kvL/k/l56KXvRafV3/8m5v8/vv0CuS+GH/It3n/AGG9X/8ATlc11tcl8MP+RbvP+w3q/wD6crmmB1tFFFABRRRQAVyXxP8A+Rbs/wDsN6R/6crautrkvif/AMi3Z/8AYb0j/wBOVtQB1tFFFABRRRQAUUUUAFFFFABRRRQBT1e6uLHS7q5tLNtQuYY2eO1RwjTEDOwE8AnoM8Z6kda8h8T/AB81nTTrOsaP4c0e+8D6HLBDquuanrstjLA5ZRcBIvsjxt9nDfvC0yBWV0YqUbHcfGLwXbfEL4X+JtAuNHs9da7sJlt7G+ijkje4CEwnEnyhhIFIY/dIByMV85eIPD/jHxNr1zqp0H4iW+nTXEP9qato/iXUrSPTPL4nGn6c13E93EBHt3NbIWYmSKK5WRY1SXM7Xt/W/p326a62Ka926V3r+mnq+nz0PSfiN+1hpvgbU9OfT/COueKfCssay3ni6ya3tNHt1kjLwMl7dyw28qvgDesoQF0XcXZUPSeDf2gNP8WeB7/xXN4T8WaNpVvcLBD5mmDUZL5WCkTWy6e9yZoTuGJUyh5IJAJr5z/aV+BeqeO/idB45+G/gK+XxDcaBHPBr+n2Uml3sdzJ5y5klbVNOkSXy9isJEnZVwGRB8r2/hb8IfEnw38P/EPxBbeCdZ0fx/qF7pyR6pZWNrNrVxDLPGt0Yp73UNSjYlQS3m3AQbQzImNxLPld9H+t7eWn5dmKSXPGMXvb01Vz1mz/AGxPCU1n4euLnSvElsuoabJql8o8NarI+nwokZ8wotpueItJtE20RnY+GyMVV8aftcWngDUtWvNX0O2i8I2cCyQ3k2rpY6nPIYLaYRmzvUt0jYrcNhGn8w+TIBHkEDgV8F+Pm8O2Wi2XhbxTJJprG2v7jXxpUd/c+HTHGrWCTWbCCW5dom8vDYRAfMdGdN174n+AvGXxGufGOp6F4dv4dJ1C5sZ7OezD22rXBVNMuE8y2uJrDyo42tpF3LdLMryOFVCrZuS1utvyva359X0dr6F0uWUvf2/4KX/B9GvU9D+BX7Wnhj47eIr3QdPtF03VbWA3LRtruk3yyJkY2C0vJXb5WUsdgVSSpbOM+418wfsp+G/Hmj+KtX1Dxj4f8T2S3dq1rFcavcvNDEIp3wM3OuahNucEEbI0Tg/M42sfp+h2sv66v9DCN7u/9aL9Qrm9W8dWWj+LtG8PS2WpS3eqMVjuY7RvsseI5ZAGmbCFiIH+RCzD5SVCsDXSV5n8UNW8QWvi7wcNJ8B674ms7C+N9c32m3OnRxRq1tcQbMXF3E5YGVGOFI25wSflpLdI06N+Rq6L8TJ9e8dat4ftPCGumx0y5NnceInkshYiYQpLtC/aftB4kQZ8nGT1xzV/xd8QtN8G6v4d0y7hurm71y8FnAlqit5OR/rZcsNsYYouRk7pFGOpHn2qeA4tV+NVnrelfDRvD2oWk8k2p+NM2MH9s25tWiFrmCZriYFmiO24jVF8jcDuVM87efB/4jLP4ev9Gv8Aw5pNklzpJGhXmjS3dzpNrboB9n+2C/RZljYytkRhmLnkgCiNnyX/ALt/m7P0+7Rb20coleKm1q7O342Xn+r26penaF8YLDXvFo0aPRtXtrKae4tLHXriOEWN/cQFhNDFiUyhlKS8vGisInKMwwTteNPHVp4Ht7GW6sdSvvtl1FaothatKELyKm+R+EjUbs5dgTghQzYU+ZeHfBfie71jQPD9/o15oun+FdVv9Tt/EkdxayQ3yyx3UUCwx72kWQJebn82JVDRELvUg1s+P9N8T+Gvh3b6TZWnif4p6lLewyvdl9Jt7iNEnjlO/LWkWMIVXYpbOM+tS3ZJ/wBf19xfXT/hv8+mq6s1fiD8Wrz4e3yLL4C8SaxpTS28H9sadNpotxJNKsSJsmvI5id7qvEZzuGM1p/Eb4hS/DvT11BvC+t6/psUck99d6R9lK2EKAM0kizTxu427jthWRjtPy5KgwX1rqvi/XPB8tzpF1pOk26SareQ3U8JljulVUgtpFjd1bBlkkLIxUNAmCc1wnxE8N6jqXh2fQrD4f8AiQy3l9fzw3eja9bJaQzSSOFuLyOa5QTRPv8ANMDQ3CAZBiYgKR3itdd/6/O219Ndbqo2bu9tP19X27+mln2GqfGfTNN8Sppkek6tf2Edxb2l9rlqkJstPnuAhgim3SrLlhLCcxxuqiVC5UEkeg14ZfeEvGC6nrPhqXQ5NRsvEWo6fqk/ia3mt47Sz8qO2W4jkiaUTFybQlPLiZT5yBiu1jXudU1bb+u6+T2fVfe8/Xsv6/4HQKKKKQwrnJPiJ4cj1rXtJ/taF9S0G0jvtTt4wztaQuHZC+0HBKxs2372MHGGXPR14xrXg1tO8b/Eh9J0JrWyv/B8SRtZ2eyO4u2m1B5ANow8pMis3ViXBPWs6knGEpLom/mldGtOKlv5fjJJ/gz0pfG+iyQeHJlvcx+ImVdMbyn/ANIJgecfw/L+7jdvmx0x1IFYuk/GbwprNnq19Dd31vpmlwyXFzqd/pN5aWQjjYq7JcTRLFIAQfuM3AyOK8q8O/DbxRosfwSu7vxD4o12KzkU3WlXtlZJFp2dJuUyTFaxyIVdljHmuRlgDliDXM2/gTUI/C+raF4GtPHEuh2vh8pqGm+LDc7ri+iuIniht/tOI9zItyrm2/cHdHgn5TXTUio1HFPRX/C+/wB33tLqYQblThJ7tJ/e7O3/AAfNnurfHTwVHokOqz6rPZ2smox6SUvNOuoJ4rqQbkjlgeMSRZUhtzqq7SGztINb15470Ox8Z6f4TnvtniC/tpLy3sxE7bokOGYuF2rznAYgnBxnBrwLxF4Mu/it4g1bUhpGsWvh3xBrllbL9r0+e0uBDHptzDLctFIqyRLvlCBnVclARwVJv/C3TfFviDxv4V8XeJ9CvdO1OV7yynWe3ZWgit7aOFS56BZJxcyITjcsqkVjF3Um1az+9Wj+rv6adGxy0tbqvxu/0Xye+6R9G1yXww/5Fu8/7Der/wDpyua62uS+GH/It3n/AGG9X/8ATlc0xnW0UUUAFFFFABXJfE//AJFuz/7Dekf+nK2rra5L4n/8i3Z/9hvSP/TlbUAdbRRRQAUUUUAFFFFABRRRQAUUUUAFFFFABRRRQAUUUUAFFFFABRRRQAUUUUAFFFFABRRRQAUUUUAFFFFABRRRQAUUUUAFFFFABXJfDD/kW7z/ALDer/8Apyua62uS+GH/ACLd5/2G9X/9OVzQB1tFFFABRRRQAVyXxP8A+Rbs/wDsN6R/6crautrkvif/AMi3Z/8AYb0j/wBOVtQBv65rVp4d0e81O/l8mztY2llfGcKB6dzXNfDX4r6J8U7O7n0gXML2rhJYLyNUcZHyt8rMCDg9+1dLrmi2niLR7zTL+LzrO6jaKVM4ypHr2Nc18NfhRonwss7uDSDczPdOHlnvHV3OB8q/KqgAZPbvXmS+u/Xo8vL7Dld/5ua+nyt+vkYz9pzR5Ntb/oZPiD4iawsl8+l6LeXOlQ3ltaw6hAIAJn89VnUCWRSRz5YYKRu3HcAMjW8Q+LNUtfD8t7HZyeHLhJVijTVrP7d9oZuFVUtJmYZYgZ5/3TWN4x8CX3im4mlfwb4TluWuIpPt9zds08iRup2t/ohPzKu0jcQAccitTS/Cd5H9jthoGg+HNPhvEvJU0icuZSgJX5fIjAO7ZzzwDXm0/rNWc6cpSs9nZq2q1+CNra2XP5a7mV5qcvTT118vTr8zl7Hx14ua5tlluXCXCGWZpvBeo7bVsKBEu2TL85OT789Fr12Hd5SbyGfaNzKpUE9+CTj6Zp9FexhcPPDpqcua/wDi/wDbpS/rc2hBx3d/69QooortNQooooA5b4natrmi+A9Yu/DdmLzWkgIt90byLCTwZjGgLyiMZfy41Z327VGWFfJPg34keNPD/wASdTto/F11ez2/hrSLNr+/+DXie4uJ1jmvQrSR/afMDkliZmO2QsQoBjfP2T4o0a88QaLNZWOvah4auZCpXUtLjt3njwwJCi4ilj5AwcoeCcYODXmsPwB1q38Q3muR/GXx2uqXdrDZz3H2XQjvhieV412/2ZtGGnlOQMndyTgYcHyt36/1/X/DW05vcce/+af6eflbVnB/Ff4ZeIviT8Rbm00zTLjVrGGxt5NYivPiRrehWV/58cieUljbxzLGF8pWyCud5DKxy1U9L8D+PfhP4X8R63rk19pcwTbDqelePNZ8TzWySXMSiOHTr61aJmWIthyJXLjhSH2r9E+EvCCeFUvZH1O/1rUL545brUNSaPzZWSJIh8sSJGgxHu2oiruZzgbjW/Sasmo9f1+7b5GS1s5dP68z4xm8aTWHijxfd2/xQ+NCzx6TavHK/wAORvdlN0QsqnQsIgPRsLnc/wAx2/L9feHbqW+8P6ZcztvmmtYpHbAGWKAk4HuaZa6Db2niDUNYR5Dc30EFvIrEbAsRkKkDGcnzWzknoOnfTp9/O34X/O/4Bbb5/jb8rfiFFFFIYVwfjS1vbf4g+Br6LWtSjtJ9Qe0k0qORUtX/ANCu5C7BVDuxKpw7FR5akKGyT3lcX40+Efh/x9rWnarq0uureafg239m+I9R0+JGG4bvKt540LYd1LFSSrFSccU1uh9GvIrafZ3um/FvV3fWNS1OG70pJ4rC6mUW9ttlKhIkRVUZO4l23Od2C5VUVfJPH/7QmiSeOPCuk6l420bwZqek6pp41XQD4hgS5e6mTMlvKoZTJDEkgycbHd1PBjr2N/g/4dk8cP4taXXjrLDYw/4SPUfshXbt2fZPP8jb32+Xjd82M81sw+C9Gg0XRtISz26fo5gaxh81/wByYQBFzuy2AB94nPfNTT93k5ujT/8AJm/y013fVdVO8ufl6qy/8BS/M8b8Oaje6XrXhHxfLq+tahd+JNb1PT9TsWvbi4tI7aOK8kjWGzBMcbxfZIo90aB3y24szV1vjbXh428C2OvaLqfiPQ7a31K13W01hcaTLc/6VEu2WO4hScJznC7Q4yG3qSD02h/Cvw14c8V33iPT7K4h1K8aR3Vr+4kto3kYNK8Vs0hhheRhudo0UuSSxJJzL4++G+i/EvTrex1xtVFrDKJlXS9ZvNNLMCCC7W0sZcAgEBiQCARzQ72Vv6/r5D6/1r5+XbrojL8WWt5b/ErwVeprWpLaXFzNavpSyqlocWly5dlVQzsSE++zKPLUqqksW8r/AGk/jpZeG/DOseG9R8U6b8PdfNnd3yedrsNveS28bOtqbc7lbfO6AkLkqiyKSGKmvUdY+B/hnXrzRLq8uPEzT6NEkVm8PizVYdu0MAzhLkea5DMGkk3OwJDEjiuhl8D6JN4e1XQ3st2l6q1w95b+a/70zszSndu3DcWboRjPGKel18/+B/Xy9Bdb+X5a/wBaPrps/GNU1xvE9z4g8c6b4nvrgaHrWmWmkR6Xqso06e0mispHEkKP5Nx5wupMSOrEBoyhBUE/QtcjqHwq8Nar4ytvFFzZ3LatB5ZAj1C5jtZWjz5UktssghlkTd8ryIzLhcEbVx11PpZf15/PdrZMnr8l/Xy7hRRRSGFFFFAFXVNTtdF0261C+nS2s7WJppppDhURRkk/QCvn2x+LfjfUrHxyl240S/fxJpGk6ZC1tG8mlW97HakluCGmVZnb59yiQ4wyjB+gNW0ew8QaZc6bqllb6lp10hintLuJZYpUPVXRgQwPoRXm1j+zP4D0WHxRHoukxeHzr1xa3TPpFvBbGyltvLMDW+yMBQskSy7WDKXLEghiKS+K8ttPzTf3rS5S28/6s/l26nmuo/GLxh4b8XWmky61NqNl4c127s9XuJbW3Euo2Sx2Mgkk2oqo0Ud8zExBAfJ6YOK9D8C+PNa8T/GzxNZtqKzeFYrNl0+zSKPCywXBgnkLhdxJlWVcE4AjGBkmtOH4C+H/ALK0d7ealqlxcRahHfXd08QlvmvERJnl2RqobZGiqEVVUKBtrU8C/CbR/h+dLOnXF9O+n6Uukq95KsjTIJDI0shCgtK7lmZuASx4ojdSjfpv5vktf/wJJr1uRLWLtvf8Oa9vubv6W1TO1rkvhh/yLd5/2G9X/wDTlc11tcl8MP8AkW7z/sN6v/6crmmM62iiigAooooAK5L4n/8AIt2f/Yb0j/05W1dbXJfE/wD5Fuz/AOw3pH/pytqAOtooooAKKp6brFnq32oWk4la1na2nTBVo5F6qwIyOCCPVWVhkEE5Fj8RPD+paNLqsF+TZReVuaSCRH/ebfKIRlDEPuAUgYJ4HQ1uqFWV7Qeluj67ff0HZnR0Vj6f4u0nVPJ+y3fm+deXFgn7txmeBpEmXkcbWikGTwccE5Gdis50503yzVn5g007MKKKKgQUUUUAFFU9Ylv4dLu5NLtra81JYmNtb3lw1vDJJj5VeRUkKKT1YIxHoeleVaf4++L+oa3qemJ8PfBSS6f5XmyN42u9jeYpYbf+JTk4A5yB170buwHsNFIudoyMHviloAKKKKACiiigAooooAKKKKACiiigAooooAKKKKACiiigAooooAKKKKACiiigArkvhh/yLd5/2G9X/wDTlc11tcl8MP8AkW7z/sN6v/6crmgDraKKKACiiigArkvif/yLdn/2G9I/9OVtXW1yXxP/AORbs/8AsN6R/wCnK2oA1vF39p/8Ivqf9jf8hTyG+z9M78cYzxn0z3xXBfAX/hLf7P1X/hJv7Q8nzE+zf2nv87ODvxv+bb9z2znHevVKK76eL9nhp4bkT5mnfqrdv67myqWpOnbd79T5w8fNpl5rWqx67N4T1KLR9Zjt7vVfG3h2C6S2huIonjRZ1eBEK/MMEM20xFjypaGPwz4TtPBOk2fh6303TLqz1fT/AO2LbTdOjjXUVW/a3QTuE+dNwkYLnPCnofm+gZvCui3GrWuqS6RYS6naPJJb3r2yGaFnUK7I+NyllAUkHkAA0v8AwjOj/aLyf+ybHz7yWKe5l+zJunkjx5bucZZk2rtJ5GBjpX0Ec8jGnTpxUko2dtLXW6tbZ6tPo7JLS73eI0STdu3T+u3bptr8b+EfCHhfVLGwUjwb4isr+/WNrfRdHjWG1N2wuLh5sSyj/RgVhRiF8pXC5HmV9soixoqIoVVGAqjAA9KpHQdMMLRHTrQxNbfYzH5C7TBjHlYx9zk/L056VdRFjRURQqqMBVGAB6Vw5xmzzSUZO6tfdp727JL8DKvWlXlzS/r9P6uOooor545wooooA5X4nW+i3ngu+t/EHhc+NNNmMcZ0Iact99rkLr5amNxsA37TvkKomNzMqqWHzj/wpD4e/DfxFpl54x+D3h68stZtLy6urXw94B/tqGxuvMtxBbqbazd1VId43FUWR/MfAJwPriihe6+Zb/8AAt/wfkvO7l70eR7b+en6dGuqv5WxfBcizeD9DkTSB4fR7GFl0lU2CyBQYh27V27B8uNoxjGBW1RRVSd22SlZWCiiipGFFFFABRRRQAUUUUAFFFFABRRRQAUUUUAFFFFABRRRQAUUUUAFFFFABXJfDD/kW7z/ALDer/8Apyua62uS+GH/ACLd5/2G9X/9OVzQB1tFFFABRRRQAVyXxP8A+Rbs/wDsN6R/6crautrkvif/AMi3Z/8AYb0j/wBOVtQB1tFUda1m08O6ReanfyiCytImmmkIztVRkmuR+FXxm8P/ABgtb+XRVu4JbF1Wa3vo1SQBgdrDazAg4Ydc/KcgcZ6Y4atUpSrxi3CNrvor7HHUxmHo14YapNKc78q6u29jvKK8Y8ZfFTxLpclwNL0i/kSXVVtI5LixnjWBI2HmKqrbySSeYqkh1RxiVdoOyQrR0j4weLtT+HN/q/8AZlhaSWM6B73Uri6tF8nz2VmYy2CRkgKAxTgZZiEICnWODrSgqiWl7b9zKWYUIVPZN62vs/P/ACPdaK8ok+IHjCeOXxJZabodx4Zs45EuIk1l3afaVPmwkWmD/FjL4ZSDhTWb4t8da9qWr6lPoV3rTaHpt+9jdDQLezeZPJtjLK5e6UoBvdV65/d4XknMrCzbs2l89vX70U8ZTs3FN622eu+17X2Z7TRXiUfj7xBoPgfXdR1HVLvTHN1CumT+LIdOWWWN4UYhPKnt4GOSxGZMjBBBIxXFeE/2gNe1DV9Oj1DxhocVlbzfZJpJ4dLT7SuVVppcaruVgQ5HlKVIOQrZCjohl9SpzWktPXtft8vU5Kma0aXJzRfvene2uvz9D6iopOvIpa8s9oKK5/x5p93q3hHU7Gz0LR/E0l1F5D6Tr1wYLK5jY4dJXEE3y7S3HlsD0OAcj5L8J/CzTNV8c69bW37PfwTuZ5HdYLZ9QbyVFqUiuGib+xSuBNLsbhTvRhghc0R96XL/AF5hL3Y8z22/y+8+1KKr6c1y2n2xvIIba7MSmaG3lMscb4G5VcqpZQcgEquR2HSrFN6aCWquFFFFIYUUUUAFFFFABRRRQAUUUUAFFFFABRRRQAUUUUAFFFFABRRRQAUUUUAFcl8MP+RbvP8AsN6v/wCnK5rra5L4Yf8AIt3n/Yb1f/05XNAHW0UUUAFFFFABXJfE/wD5Fuz/AOw3pH/pytq62uS+J/8AyLdn/wBhvSP/AE5W1AG/rWjWniLSLzTL+ET2V3E0M0ZONysMEVyPwq+DPh/4P2t/ForXdxLfOrTXF9IryEKDtUbVUADLHpn5jknjHeUV0xxNanSlQjJqErXXR22OOpg8PWrwxNSCc4X5X1V97Hkes/AkXkl7cW82jS3F/f8A2q6t9Q0eOa0lXe7AyqT50zjfjDThB1VEAC1T0r4DyeH9Ei0+LTvB+oP9vguRdw6MdPmt9spdpA26bzHUEqg+TAJG6vaKK0WMrqPJzaf5Gcsvw8p+0cddfxvfy6s8+0v4LeGZ7F5vEHh7RtU126mlurrUPsaGXzHkZ8JKR5gCZCqcg4UdOlYnij4Ix+LLzXY7zTNBmsr64kuYLie3El1ETbwxrGhKfugXjLMyknAAAy25fXKKzWIqxlzKX/A9PuNZYWjJWcVq7vz9e+7PJdP+CcWgeG5dK0rTdItZGEIS8s5JrB2GCrrcfZwpulTLFVcgSZ2vggyNsN8JbWS+8NQyTTNpWi6M+mxPBdy2t0JN0G11eEqVysThsMPvYwQTXoVFU8VVlLmctf8AgW/UhYKgo8ijpovxT/FpCKNqgDt6nNLRRXIdxk+KPD58UaLNph1PUNJjnKiWfS5hDO0YYF41kwWQOoKlkKuoYlGRgGHI698GLW6k0J/DPiHVvh+dGsZNNt18Ow2JQ2ztG3llLq2nUAGJSCoU9ck16JRR/X6flf733Y91Z7f1/XyXYzfDWg2/hXw7pejWjySWun2sdpE8xBdlRQoLEAAkgc4A57VpUUU23J3ZOwUUUUhhRRRQAUUUUAFFFFABRRRQAUUUUAFFFFABRRRQAUUUUAFFFFABRRRQAVyXww/5Fu8/7Der/wDpyua62uS+GH/It3n/AGG9X/8ATlc0AdbRRRQAUUUUAFcZ8WmnTwhC1rHHNdDV9JMUc0hjRn/tG32hmCsVBOMkKceh6V2dcl8T/wDkW7P/ALDekf8ApytqAD+0vHX/AELnh3/wfz//ACFR/aXjr/oXPDv/AIP5/wD5Crra5PQ/il4b8ReJJNBs7u6XU1jeWJLvT7m2juo0YK8lvLLGqXCAsuWiZxhlOcEEnWwdLif2l46/6Fzw7/4P5/8A5Co/tLx1/wBC54d/8H8//wAhVH4V+LPh7xpqslhpA1idkaVPtU2g38FmzRuUcLcyQrC2GBHDnODjNQab8afCGsaxNpllqNzcXSJO8TJpt15N35P+uFrL5fl3LJzlYWduDxwaV1+oFv8AtLx1/wBC54d/8H8//wAhUf2l46/6Fzw7/wCD+f8A+QqyND+PXhLxFrkmkWUfiM38TpHPHceFNVgW3LLuXzXktlWIFecuQMc0eG/j/wCCfFUumLZ3+oW0OqFUsLzVNFvtPtbx2GUSGe4hSOR2GSqqxZgCQDg1S12A1/7S8df9C54d/wDB/P8A/IVH9peOv+hc8O/+D+f/AOQq62ikByX9peOv+hc8O/8Ag/n/APkKj+0vHX/QueHf/B/P/wDIVdbRQByX9peOv+hc8O/+D+f/AOQqP7S8df8AQueHf/B/P/8AIVdbRQByX9peOv8AoXPDv/g/n/8AkKj+0vHX/QueHf8Awfz/APyFXW0UAcl/aXjr/oXPDv8A4P5//kKj+0vHX/QueHf/AAfz/wDyFXW0UAcl/aXjr/oXPDv/AIP5/wD5Co/tLx1/0Lnh3/wfz/8AyFXW0UAcl/aXjr/oXPDv/g/n/wDkKj+0vHX/AELnh3/wfz//ACFXW0UAcl/aXjr/AKFzw7/4P5//AJCo/tLx1/0Lnh3/AMH8/wD8hV1tFAHJf2l46/6Fzw7/AOD+f/5Co/tLx1/0Lnh3/wAH8/8A8hV1tFAHJf2l46/6Fzw7/wCD+f8A+QqP7S8df9C54d/8H8//AMhV1tFAHJf2l46/6Fzw7/4P5/8A5Co/tLx1/wBC54d/8H8//wAhV1tFAHJf2l46/wChc8O/+D+f/wCQqP7S8df9C54d/wDB/P8A/IVdbRQByX9peOv+hc8O/wDg/n/+QqP7S8df9C54d/8AB/P/APIVdbRQByX9peOv+hc8O/8Ag/n/APkKj+0vHX/QueHf/B/P/wDIVdbRQByX9peOv+hc8O/+D+f/AOQqP7S8df8AQueHf/B/P/8AIVdbRQByX9peOv8AoXPDv/g/n/8AkKofhK07+EJmuo44bo6vqxljhkMiK/8AaNxuCsVUsAc4JUZ9B0rs65L4Yf8AIt3n/Yb1f/05XNAHW0UUUAFFFFABXJfE/wD5Fuz/AOw3pH/pytq62uS+J/8AyLdn/wBhvSP/AE5W1AHWMwVSzEBQMknoK8bvrjUIfjV4GvdW1HTfENpqSajFoo0iM2ps4WiWUzyq0kv2ldkaR+ajRKplX923mAp7LXP+Hvh54V8I6lf6joXhnR9F1C/Ja7u9PsIoJbglixMjooL8knknk5oW92D2t/X9fmeS6Uviz4R3Xh7wNLqmkeJdO19NSjspLGwltL60kEclz50m64mWaMs2xmAj2tJF13YGV4bFtd+Bf2abPTSDdW91A5jUN5kccOl3Mdzu7rtdgjZx8zBTycV7b4b+HPhPwbqF7f6B4Y0bQ769/wCPq503T4reWfkt+8ZFBbkk855NT6T4I8O6DrWo6xpmgaXp2r6kc3uoWlnHFcXRznMsiqGfnn5iacHypfJ/+Atteu+oPrbs1/4ErN/Lojh/Bv8AyVD4vf8AXTT/AP0iWvP4b6zh/YZ0OwnZGv8AVvC0Gm6Va7gJbm/lt8W8cQJGZN+GGOm0twFJH0RDpNlbXV5cw2dvFc3hU3MyRKHn2rtXeQMtheBnoOK53wz8I/AvgrVDqfh7wX4e0HUmRozeaZpUFtMVJBK70QHBwMjPapS92UXs7fhf/P5FqXLZrdHR6XFcQaXZx3b+ZdJCiyvnO5woDHP1zVqiiqk+ZtmUVypLsFFFFIoKKKKACiiigAooooAKKKKACiiigAooooAKKKKACiiigAooooAKKKKACiiigAooooAKKKKACuS+GH/It3n/AGG9X/8ATlc11tcl8MP+RbvP+w3q/wD6crmgDraKKKACiiigArkvif8A8i3Z/wDYb0j/ANOVtXW1yXxP/wCRbs/+w3pH/pytqAPn/wD4KG6PYeIPBfwxsNUsbbUrGbxmPMtbuFZYnxpGpsMqwIOCAee4FfJv/CnfAX/QkeHP/BTb/wDxFfWX/BQ3WLDw/wCC/hjf6pfW2m2MPjMeZdXcyxRJnSNTUZZiAMkgc9yK+Tf+FxeAv+h38Of+Da3/APi6/DeOfrv9pU/q3Ny8i+G9r80ux4WP5/arlvt/mH/CnfAX/QkeHP8AwU2//wARR/wp3wF/0JHhz/wU2/8A8RR/wuLwF/0O/hz/AMG1v/8AF0f8Li8Bf9Dv4c/8G1v/APF1+d/8Kn/Tz/yY83975/iH/CnfAX/QkeHP/BTb/wDxFH/CnfAX/QkeHP8AwU2//wARR/wuLwF/0O/hz/wbW/8A8XR/wuLwF/0O/hz/AMG1v/8AF0f8Kn/Tz/yYP3vn+If8Kd8Bf9CR4c/8FNv/APEUf8Kd8Bf9CR4c/wDBTb//ABFH/C4vAX/Q7+HP/Btb/wDxdH/C4vAX/Q7+HP8AwbW//wAXR/wqf9PP/Jg/e+f4h/wp3wF/0JHhz/wU2/8A8RXqH7KvwF+GfiKx+Irar8OvCepta+Jxb25vNDtZTDF/ZenvsTch2rvd2wOMux6k15f/AMLi8Bf9Dv4c/wDBtb//ABdeofsq/Hr4Z+HbH4irqvxF8J6Y114nFxbi81y1iM0X9l6em9Nzjcu9HXI4yjDqDXj5x/a/9nVvZ+0vZbc1/iifQ5HzfWn7Taz3+R7j/wAMx/B3/ok/gf8A8Jyz/wDjdfPvj74F/Daz/aA1/Trf4e+FYNPj8MaPcJaR6LbLEsr3eqK7hAmAzCOME4yQig9BX0F/w058Hf8AorHgf/wo7P8A+OV8++Pvjp8Nrz9oDX9Rt/iF4Vn0+Twxo9ul3HrVs0TSpd6ozoHD4LKJIyRnIDqT1FfL8L/259bqe29rbke/P/NHufqGXew+uU+e1te38rD/AIUX8Nv+ie+Ff/BLbf8AxFfD+teDdAi8U+KIk0PTUih13U4Y41tIwqIl7MqIoxwoUAADgAAV9wf8L0+G3/RQvCv/AIOrb/4uvh/WvGWgS+KfFEqa5prxTa7qc0ci3cZV0e9mZHU55UqQQRwQQa/f+F/rvPV9tz7Le/n3P2Phv+zf7S/e8nLyS35bX5od/mdF8HfAfhnVPihFaXnh3Sbu1OjXcpgnsYnTes9qFbaVxkBmAP8AtH1r3/8A4U74C/6Ejw5/4Kbf/wCIrwD4O+PPDOl/FCK7vPEWk2lqNGu4jPPfRIm9p7Uqu4tjJCsQP9k+le//APC4vAX/AEO/hz/wbW//AMXXl8Tf2h9e/c89uVbc3n2P548SOT/WjFfVLcnuW5dv4cb2tpuH/CnfAX/QkeHP/BTb/wDxFH/CnfAX/QkeHP8AwU2//wARR/wuLwF/0O/hz/wbW/8A8XR/wuLwF/0O/hz/AMG1v/8AF18p/wAKn/Tz/wAmPzL975/iH/CnfAX/AEJHhz/wU2//AMRR/wAKd8Bf9CR4c/8ABTb/APxFH/C4vAX/AEO/hz/wbW//AMXR/wALi8Bf9Dv4c/8ABtb/APxdH/Cp/wBPP/Jg/e+f4h/wp3wF/wBCR4c/8FNv/wDEUf8ACnfAX/QkeHP/AAU2/wD8RR/wuLwF/wBDv4c/8G1v/wDF0f8AC4vAX/Q7+HP/AAbW/wD8XR/wqf8ATz/yYP3vn+If8Kd8Bf8AQkeHP/BTb/8AxFH/AAp3wF/0JHhz/wAFNv8A/EUf8Li8Bf8AQ7+HP/Btb/8AxdH/AAuLwF/0O/hz/wAG1v8A/F0f8Kn/AE8/8mD975/iH/CnfAX/AEJHhz/wU2//AMRR/wAKd8Bf9CR4c/8ABTb/APxFH/C4vAX/AEO/hz/wbW//AMXR/wALi8Bf9Dv4c/8ABtb/APxdH/Cp/wBPP/Jg/e+f4ndfs0/Az4b69+0lp+man8PvCuo6a3hLVrlrO70W2lhMqXmlqkhRkI3KskgDYyA7AdTX2h/wyd8EP+iN/D//AMJex/8AjVfF/wCzT8dPhvoP7SWn6nqfxB8K6dpq+EtWtmvLvWraKESveaWyRl2cDcyxyELnJCMR0NfaH/DWPwQ/6LJ8P/8AwqLH/wCO1/RPCftf7Goe3vze9e97/HLufR4S/sY82+v5h/wyd8EP+iN/D/8A8Jex/wDjVH/DJ3wQ/wCiN/D/AP8ACXsf/jVH/DWPwQ/6LJ8P/wDwqLH/AOO0f8NY/BD/AKLJ8P8A/wAKix/+O19adgf8MnfBD/ojfw//APCXsf8A41R/wyd8EP8Aojfw/wD/AAl7H/41R/w1j8EP+iyfD/8A8Kix/wDjtH/DWPwQ/wCiyfD/AP8ACosf/jtAB/wyd8EP+iN/D/8A8Jex/wDjVH/DJ3wQ/wCiN/D/AP8ACXsf/jVH/DWPwQ/6LJ8P/wDwqLH/AOO0f8NY/BD/AKLJ8P8A/wAKix/+O0AH/DJ3wQ/6I38P/wDwl7H/AONUf8MnfBD/AKI38P8A/wAJex/+NUf8NY/BD/osnw//APCosf8A47R/w1j8EP8Aosnw/wD/AAqLH/47QBymk/CfwR8L/wBqbwV/whvg3w/4S+3eDPEX2v8AsLS4LL7RsvtD2eZ5SLu273xnONzY6mvU/hh/yLd5/wBhvV//AE5XNeWaT8WPBHxQ/am8Ff8ACG+MvD/i37D4M8Rfa/7C1SC9+z777Q9nmeU7bd2x8Zxna2Ohr1P4Yf8AIt3n/Yb1f/05XNAHW0UUUAFFFFABXJfE/wD5Fuz/AOw3pH/pytq62uS+J/8AyLdn/wBhvSP/AE5W1AHW0UUUAFFFFABRXlPxA1fUl8Taqyi9/szRtPhunaz1NrNk3u5ZwgVhMwCcJJ8mAe7V6lBKs8MciHcjqGU46gjNctHEKtKaStyu34tdu6drX9b3SzU05OPYkooorqNAoorlfiNJf2/h/wC0WV+1kkU0RlES/vJAZUUKHz8o5OcDJ6ZAznmxNb6vRlW5b8qvZf8AB/rtcqK5nY6qisPxla6jfaDJb6UHN3JLENyXBgITzFLneOV+UEcZPPApvg+6E1hcwGCa3ntLh4Jo5ruS6+YYOVkc7mUggjOMZ6Cs1iH9ZeHcdLXvrrrstLaet/LqHL7tzeorlvCL36674kt7+/a+eKeHaduxEDRK21Eydo59ST1JJrzM6pqkfjG18Q/2tqYuZ/GUmgNpsl25tPsQidQgt8+WGygm8zb5nJBbZ8tOniVUUbqzba/8mUOl+rXyuenTwDqSnHnWiT9brmS+7qe60V4P+0Bqusf2xd2+jahqQm03QJtQWPSb2W3OmXBdvIvrpEI+0248qQGECVjsIWGTcdvt2l3S3um2lwsyXCzQpIJo/uuCoO4ex610Qlz38v8ANr80/wDh7pZ4jBvD0KVZu/PfTta35p+X3WbtUUUVoecFFFJQAtFfOnwc8QavcePdIur7WtQntdcTU2W7vbyWSy1vbOHt2sYGJFsIodwYFId+cr5yjzB9F0LZMyp1PaJu39f18uza1Ciiig1CiiigAooooAKKKKACiiigAooooAKKK8S+OHiTVV074krYaheaaPDvg+S9t2s53hZrmdbkCQsuOY1txtweDIxxkKQFwjzyUfT8XY9trkvhh/yLd5/2G9X/APTlc1wc3irxfc6b480nV7uxh1bQNOtdc0+90hJrdcMssiwTK0j+ZhrZlZgQsiv9xa7L4O3w1LwQbwLsFxquqShT23ahcHH60dWuqt+N/wDJ/cYxlzJPv+lv80dvRRRQWFFFFABXJfE//kW7P/sN6R/6crautrivjBbreeC0gdpESXVtKRmhkaNwDqFuMq6kMp9CCCOoNAHa0V59/wAK903/AJ//ABF/4Umo/wDx+j/hXum/8/8A4i/8KTUf/j9VysD0GivPv+Fe6b/z/wDiL/wpNR/+P0f8K903/n/8Rf8AhSaj/wDH6OVgdNrngvR/El1FcajaGeSMBDtmdFkUMGCSKrASKGGQrgjOeOTW104Fef8A/CvdN/5//EX/AIUmo/8Ax+j/AIV7pv8Az/8AiL/wpNR/+P1nGjGDbikr7+YrK9+p6DRXn3/CvdN/5/8AxF/4Umo//H6P+Fe6b/z/APiL/wAKTUf/AI/WnKxnoNVdS0221aze1u4/NgcqzJuK5KsGHIOeoFcR/wAK903/AJ//ABF/4Umo/wDx+j/hXum/8/8A4i/8KTUf/j9TKmpxcZK6YHZahodpqkcqXKyuJGR+J5FKMv3WQhhsPuuCe9SaXpVro9r9ntI/Lj3M53MzszE5LMzEliT3JJrif+Fe6b/z/wDiL/wpNR/+P0f8K903/n/8Rf8AhSaj/wDH6zWHpxn7VRXNte2tvUd3ax3Fvptva3d3cxR7Z7plaZtxO4qoUcZ44A6VgL8M/Da+Lj4mGnEauXM277RL5ImMflGcQbvKE3ljZ5oXft+Xdjisb/hXum/8/wD4i/8ACk1H/wCP0f8ACvdN/wCf/wARf+FJqP8A8frRU0tl/TNo16tO/JNq6s9Xquz8vIv+IPhH4Y8U2lnb6pa3t1HbWv2It/al2klxbnGYbh1lDXKHusxcHLZByc9fDClvCkUSLHEihVRBhVA4AA7CuB/4V7pv/P8A+Iv/AApNR/8Aj9H/AAr3Tf8An/8AEX/hSaj/APH6agle3UKlerVioVJtpbJtu197ep6DRXn3/CvdN/5//EX/AIUmo/8Ax+j/AIV7pv8Az/8AiL/wpNR/+P0+VmB6DRXn3/CvdN/5/wDxF/4Umo//AB+j/hXum/8AP/4i/wDCk1H/AOP0crA0PD/wj8K+F/EH9tabp0sN6omEKyXs8tva+aweX7PA7mKDewyfKVc/jXY159/wr3Tf+f8A8Rf+FJqP/wAfo/4V7pv/AD/+Iv8AwpNR/wDj9HLZJdiYxjG/KrXPQaK8+/4V7pv/AD/+Iv8AwpNR/wDj9H/CvdN/5/8AxF/4Umo//H6OVlHoNFeff8K903/n/wDEX/hSaj/8fo/4V7pv/P8A+Iv/AApNR/8Aj9HKwPQaK8+/4V7pv/P/AOIv/Ck1H/4/R/wr3Tf+f/xF/wCFJqP/AMfo5WB6DRXn3/CvdN/5/wDxF/4Umo//AB+j/hXum/8AP/4i/wDCk1H/AOP0crA9Borz7/hXum/8/wD4i/8ACk1H/wCP0f8ACvdN/wCf/wARf+FJqP8A8fo5WB6DRXn3/CvdN/5//EX/AIUmo/8Ax+j/AIV7pv8Az/8AiL/wpNR/+P0crA9BrkvE3w507xVql5PefPZanpkmj6rZ4YC8tiWKDerKyMhklwQekr98EZf/AAr3Tf8An/8AEX/hSaj/APH6P+Fe6b/z/wDiL/wpNR/+P0crvcabW39dTV8TfDux16DWBA5sLnWYLex1G5Xc7TWkbPmJRuAQlZZV3gZG/POBhnwtjWLwvdIihUXWtXCqBgADUbnis3/hXum/8/8A4i/8KTUf/j9XPg/brZ+C3gRpHSLVtVRWmkaRyBqFwMs7Esx9SSSepNJpomyWx2tFFFIYUUUUAFcf8Vv+RUt/+wzpP/pxtq7CuP8Ait/yKlv/ANhnSf8A0421AGrRRRWoBRRRQAUUUUAFFFFABRRRQAUUUUAFFFFABRRRQAUUUUAFFFFABRRRQAUUUUAFFFFABRRRQAUUUUAFFFFABRRRQAUUUUAFZXwp/wCRUuP+wzq3/pxua1ayvhT/AMipcf8AYZ1b/wBONzUyA7CiiioAKKKKACuP+Kg3eFrYeus6SP8Ayo21dhXJfE//AJFuz/7Dekf+nK2oA2Psrev/AI63+FH2VvX/AMdb/CtWiq5mBlfZW9f/AB1v8KPsrev/AI63+FatFHMwMr7K3r/463+FH2VvX/x1v8K1a5Txx8U/Cvw3+zDxFq8enPcZMUflvK7AdTtRWOPcjFa0qdWvNU6UXKT6JXf3Iwr4ijhabq15qMVu20l97Nb7K3r/AOOt/hR9lb1/8db/AArz7/hqb4Yf9DP/AOSF1/8AGq7bwZ4+8P8AxC02S+8PanHqVtG/luVVkZG64ZWAYfiOa6a2BxmHjz1qMoru4tL8UcWHzXL8XP2WGxEJy7RlFv7ky39lb1/8db/Cj7K3r/463+FatFcPMz1DK+yt6/8Ajrf4UfZW9f8Ax1v8K1aKOZgZX2VvX/x1v8KPsrev/jrf4Vq0UczAyvsrev8A463+FH2VvX/x1v8ACtWijmYGV9lb1/8AHW/wo+yt6/8Ajrf4Vq0UczAyvsrev/jrf4UfZW9f/HW/wql4s+IXh7wP5A1vUo7Jp8mNNjyMwHU7UBOPevkL48fE7xn8YNe8ZWfw78Z3ug6d4Vt7NrSz01JYJ9ammilmkAlUq6sqQuFTGHZcDlhnhxmMWEp+0ab8l6N/kn+S1PpMgySefYp4dVY04xV5SleyXNGK2TfxSiuyvdtJNn2V9lb1/wDHW/wo+yt6/wDjrf4V+X16vx2e6kGi+PvFer20dpZXAlfxDJbPPLcWMV4beCJ591xIiyY2RBmOFO0bwK+zf2L/ABl8QvE3g3W7Dx+rXc+lXEEdpqjzxTPcxywJOFLxsQ+EkiYP3EoGSVOOTDZlKvXdCdKUWvmr+q/DufY8QcBTyPL3mEMbSqpct4p2naVrPlevVXWjV7nun2VvX/x1v8KPsrev/jrf4Vq0V7PMz8qMr7K3r/463+FH2VvX/wAdb/CtWijmYGV9lb1/8db/AAo+yt6/+Ot/hWrRRzMDK+yt6/8Ajrf4UfZW9f8Ax1v8K1aKOZgZX2VvX/x1v8KPsrev/jrf4Vq1i+KPGOjeC7FLvWr+OxgdtiFlZmY+gVQSfwFHMwJfsrev/jrf4UfZW9f/AB1v8K5D/hoLwB/0H/8AyTuP/jddF4T+IXh7xx540TUo71oMGRNjxsoPQ7XAOPejmYF37K3r/wCOt/hR9lb1/wDHW/wrVoo5mBlfZW9f/HW/wrF+FqmPwvdIeo1nVunvqFwa6+uS+GH/ACLd5/2G9X/9OVzSuB1tFFFIAooooAK5L4n/APIt2f8A2G9I/wDTlbV1tcl8T/8AkW7P/sN6R/6cragDraKKKACiiigAr4o/bYJ/4WppQ7f2LF/6Pnr7Xr4z/ba0m8Xx9o2pm2k/s+TTEt1uNp2eYssrFc+uHU/jX2nCMks0jd9GfnHiBGUsjnZbSj+Z8519WfsKk48bDt/oP/txXynX1v8AsO6TeWum+LNQmtpI7O6e1jgmZSFkZBMX2nvjev51+l8VSSyism9+X/0pH4xwLGUuIMO0tue//gEj6hooor8AP6uCiiigAooooAKKKKACiiigD5V/arJ/4WFpw7f2XH/6OmrxC/sUvNLvLSKSSwmuri0ujf2bmO5jktmdoSjdAQZGOcZ6Yxivcf2rInXx9pshUiNtMRQ2OCRLLkfqPzrxes6lOFVcs1dHZhMZiMDVVfDTcZLqvv8Anqj3z4F6aPihe+NJ9YvdSto5p7K5W30XUrjTY4pBbfZyVNu6MQyW8WVZmUFcqFya938EeDdO+H/hbTdA0sSGysLeO2jedg0rqiBFLtgZO1VH0AFeLfsjxOsXimQqRGxtVDY4JHm5H6j86+hqUaUIy5oxszStmGLxFP2NWo3HTTp7qstNtv8AghRRRWp54UUUUAFFFFABRRRQAV87/tcE/wDFKDt/pf8A7Rr6IrwD9rPTbq4sfDl7HA8lrbvcJLKq5CF/L259M7W/KgD5ur2b9lQn/hYWojt/Zcn/AKOhrxmvb/2U9Num8Y6pfiB/saWDQGbb8u9pIyFz64Vj+FAH1DRRRQAVyXww/wCRbvP+w3q//pyua62uS+GH/It3n/Yb1f8A9OVzQB1tFFFABRRRQAVyXxP/AORbs/8AsN6R/wCnK2rra5j4jWF7qHhlF0+yk1G6g1HT7v7LC8aPIkN5DK4UuyrnYjYywoA6eiuS/wCE11j/AKEHxF/3/wBN/wDkuj/hNdY/6EHxF/3/ANN/+S6AOtpGYIpZiFUDJJ4Ark/+E11j/oQfEX/f/Tf/AJLo/wCE11j/AKEHxF/3/wBN/wDkugCqPHmraxCjeGtEtdbXypJmujqXl2bgOVRYZ1jdZHYq3y8bNvzEZXNPxF8YB4ZuLVb3wzq0EDR5uri4e3t4bZyMrH50sqwuTz9yQgcDknA818S+DfFPiS/kkuvAkt5DFNNJG15b6ZLJNFLK0jW4LXR+z4JOJQZGy5IVcbTmePfAnjDxJ4isde0b4e6x4c1RbOO3mfSPEFjZMGDEMDIu5pQYwignZjbyCMCvqKNHLpTipyVte/yu+ZdOy02d3o/kMVXzOFOcqUW2rW28uZpcsno+jk7q9rbr0/xr8a5fC/hHTNcg0BfMvGk/4l2tarb6bcJGmfnAZmD5wMBSThlPeuf0f4/X17p+s6hcw6WrW1hJdRaXZX9jcujKRy0y3uXUDLEeTHxwCSBu5dfh14ht/hPJ4dtvAGrjUpJ3mmhuNVsjb3hM28faZop4pZSEyvQDnpwpFP4c/DnxV4bsfE9vqPwwWxTUrNYYY9H1CKRDKpZleTz71iMMVPy+nSuuEcphQns5KVl5xuv72mnZX03V2efKWdVcZQ1apyjd7e7Kz39xN+jaWvwuyv6Vo/xzudc1hLW20OFLczwQmaWe5kIEu0IxaC1lgAYthf32Djkjt63Xgug6b4u0i+F4nw+vLXy7o3Bsbe6sfJusszAuftI2FC7FcK2Wyx+8Anpv/Ca6x/0IPiL/AL/6b/8AJdeBj/q3NH6srLrrf+v66pn0+XLFqMvrU+Z9NErb9t/X57WOtorkv+E11j/oQfEX/f8A03/5Lo/4TXWP+hB8Rf8Af/Tf/kuvLPYOtorkv+E11j/oQfEX/f8A03/5Lo/4TXWP+hB8Rf8Af/Tf/kugDraK5L/hNdY/6EHxF/3/ANN/+S6P+E11j/oQfEX/AH/03/5LoA62iuS/4TXWP+hB8Rf9/wDTf/kuj/hNdY/6EHxF/wB/9N/+S6ANjxFpujX1g8ut2VneWlsrSk3sCyrGAOSAwPYdq4ubw5odjZ22qXngrRotKkkfzk/suPz7WI48uRxg8cEuMZUOM/cYnYufG2urbymD4e69LMFOxJLrTkVmxwCwujgZ74P0Nee2Oi6vYanp00XwplhZLwX1xfW76bHMhGSIYkE/CDCDcXGfmJHOKFv/AF/X9eYPY9m0nTdP0uxSHTLW2tLNvnWO0jVIznuAoxz61drkv+E11j/oQfEX/f8A03/5Lo/4TXWP+hB8Rf8Af/Tf/kugDraK5L/hNdY/6EHxF/3/ANN/+S6P+E11j/oQfEX/AH/03/5LoA62iuS/4TXWP+hB8Rf9/wDTf/kuj/hNdY/6EHxF/wB/9N/+S6AOtorkv+E11j/oQfEX/f8A03/5Lo/4TXWP+hB8Rf8Af/Tf/kugDraK5L/hNdY/6EHxF/3/ANN/+S6P+E11j/oQfEX/AH/03/5LoA6i6uobG2luLmaO3t4lLySysFVFHUkngCud0Tx5bavqT2zwtZxyPss5ZmwbjC7iCuMxuQQ6o3zMhDAdQKlz4q1G8jVLj4d69OiusgWSXTWAZSCrYN31BAIPYisez1LV1uvEDXvw71m8ttQu0uI4ZJtNdcLDEg3A3WM7oye/Y9aXXX+v6/ryPQ7e416K38R2WkEZmubaa5DbugRoxjHfO/8A8drL8R+P7Dw9I8Jgvbq4jnhhkWCynkRPMZB99I2XcFcHbnJ4HUiuN87xJdrLqVz4M1yPxEzpJDcRyac8VsFBCwqDeAsmHcMTgtvJ+X5QtfW7XV/EEJup/Aviq21K4uLaeeO31q1S3Xy2j3BQl4oJ2ocMVznHIwMGun9f15gepaPrlrrsEstp5wEUnlOtxbyQOrYDYKSKrDhgener9cBoerX/AIfjuY7bwL4qkW4m85jdX9hO+7Yq43veFiMKOpP5YA0v+E11j/oQfEX/AH/03/5LpgdbXJfDD/kW7z/sN6v/AOnK5o/4TXWP+hB8Rf8Af/Tf/kupvhzYXun+GXXULKTTrqfUdQu/sszxu8aTXk0qBijMudjrnDGgDp6KKKACiiigAooooAKKKKACiiigAooooAKKKKACiiigAooooAKKKKACiiigAooooAoa7ePp+i3t1G6xyQwtIrNEZQCBn7gZS30BGfWvI/DXjDxBdafp/wBsuNeci3tY9unQWS7pJCwXeblmZiwC/OrY9QpyB7VXO6b4E0/TLGG2jluXEc0E4kkcFyYlVUU8Y24UcADqT3oXxfd+ev4B0+86GNi8asUaMkAlWxkexwcflTqKKACiiigAooooAKKKKACiiigApKWmuqyKysoZWGCrDII9KAOQ8PeIL/xQLzUoI1h+yuUhtPMJS4jeBJE3N0DEsp3AcAkYPWul0jU4ta0u1voAwiuIxIFcYZcjoR2I6EeorE1DwLDfNdpFqd9p9jeKq3FjarAIZFCBMfNEWAKKF+VhwOMV01AC0UUUAFFFFABRRRQAUUUUAFFFFABRRRQAUUUUAFFFFABRRRQAUUUUAFFFFABRRRQAUUUUAFFFFABRRRQAUUUUAFFFFABRRRQAUUUUAFFFFABRRRQAUUUUAFFFFABRRRQAUUUUAFFFFAH/2Q==;" parent="1" vertex="1">
          <mxGeometry x="1440" y="460" width="314" height="520" as="geometry"/>
        </mxCell>
        <mxCell id="XqAwryNyBwVGznu84Bff-30" value="" style="endArrow=classic;html=1;fontSize=14;entryX=0.287;entryY=0.385;entryDx=0;entryDy=0;entryPerimeter=0;exitX=1;exitY=0.5;exitDx=0;exitDy=0;dashed=1;" parent="1" source="XqAwryNyBwVGznu84Bff-27" target="XqAwryNyBwVGznu84Bff-29" edge="1">
          <mxGeometry width="50" height="50" relative="1" as="geometry">
            <mxPoint x="1370" y="680" as="sourcePoint"/>
            <mxPoint x="1470" y="630" as="targetPoint"/>
          </mxGeometry>
        </mxCell>
        <mxCell id="XqAwryNyBwVGznu84Bff-32" value="" style="endArrow=classic;html=1;fontSize=14;entryX=0;entryY=0.444;entryDx=0;entryDy=0;entryPerimeter=0;dashed=1;" parent="1" source="XqAwryNyBwVGznu84Bff-16" target="XqAwryNyBwVGznu84Bff-29" edge="1">
          <mxGeometry width="50" height="50" relative="1" as="geometry">
            <mxPoint x="1325" y="681" as="sourcePoint"/>
            <mxPoint x="1480" y="710" as="targetPoint"/>
          </mxGeometry>
        </mxCell>
        <mxCell id="XqAwryNyBwVGznu84Bff-34" value="" style="endArrow=classic;html=1;fontSize=14;exitX=0.96;exitY=-0.115;exitDx=0;exitDy=0;exitPerimeter=0;dashed=1;" parent="1" source="XqAwryNyBwVGznu84Bff-17" edge="1">
          <mxGeometry width="50" height="50" relative="1" as="geometry">
            <mxPoint x="1370" y="755" as="sourcePoint"/>
            <mxPoint x="1600" y="720" as="targetPoint"/>
          </mxGeometry>
        </mxCell>
        <mxCell id="XqAwryNyBwVGznu84Bff-35" value="生产任务：&lt;br&gt;切单、挂起、结束&lt;br&gt;&lt;br&gt;操作工执行任务&lt;br&gt;停机&lt;br&gt;试做&lt;br&gt;&lt;br&gt;子任务：&lt;br&gt;换模、&lt;br&gt;换模后的调试、&lt;br&gt;换产后的调试、&lt;br&gt;过程调试&lt;br&gt;非换产首检、&lt;br&gt;换产后的首检、&lt;br&gt;的开始、结束&lt;br&gt;&lt;br&gt;异常任务：&lt;br&gt;模具故障、设备故障、欠料、欠员异常的&lt;br&gt;汇报、开始处理、处理完成&lt;br&gt;&lt;br&gt;保养：&lt;br&gt;机器保养的开始、结束" style="rounded=0;whiteSpace=wrap;html=1;fontSize=14;align=left;verticalAlign=top;" parent="1" vertex="1">
          <mxGeometry x="310" y="890" width="230" height="390" as="geometry"/>
        </mxCell>
        <mxCell id="XqAwryNyBwVGznu84Bff-37" value="业务代码" style="text;strokeColor=none;fillColor=none;html=1;fontSize=24;fontStyle=1;verticalAlign=middle;align=center;" parent="1" vertex="1">
          <mxGeometry x="390" y="470" width="100" height="40" as="geometry"/>
        </mxCell>
        <mxCell id="XqAwryNyBwVGznu84Bff-38" value="" style="shape=flexArrow;endArrow=classic;html=1;fontSize=14;" parent="1" edge="1">
          <mxGeometry width="50" height="50" relative="1" as="geometry">
            <mxPoint x="560" y="681" as="sourcePoint"/>
            <mxPoint x="700" y="681" as="targetPoint"/>
          </mxGeometry>
        </mxCell>
        <mxCell id="XqAwryNyBwVGznu84Bff-44" value="计算展示数据，写入数据库" style="text;strokeColor=none;fillColor=none;html=1;fontSize=24;fontStyle=1;verticalAlign=middle;align=center;" parent="1" vertex="1">
          <mxGeometry x="1130" y="470" width="100" height="40" as="geometry"/>
        </mxCell>
        <mxCell id="XqAwryNyBwVGznu84Bff-47" value="" style="shape=flexArrow;endArrow=classic;html=1;fontSize=14;" parent="1" edge="1">
          <mxGeometry width="50" height="50" relative="1" as="geometry">
            <mxPoint x="550" y="914.5" as="sourcePoint"/>
            <mxPoint x="700" y="914.5" as="targetPoint"/>
          </mxGeometry>
        </mxCell>
        <mxCell id="XqAwryNyBwVGznu84Bff-49" value="统一添加调用，记录操作" style="text;html=1;resizable=0;points=[];autosize=1;align=left;verticalAlign=top;spacingTop=-4;fontSize=14;" parent="1" vertex="1">
          <mxGeometry x="560" y="880" width="170" height="20" as="geometry"/>
        </mxCell>
        <mxCell id="XqAwryNyBwVGznu84Bff-50" value="机器状态变化修改操作记录表" style="swimlane;fontStyle=0;childLayout=stackLayout;horizontal=1;startSize=26;fillColor=#e0e0e0;horizontalStack=0;resizeParent=1;resizeParentMax=0;resizeLast=0;collapsible=1;marginBottom=0;swimlaneFillColor=#ffffff;align=center;fontSize=14;" parent="1" vertex="1">
          <mxGeometry x="700" y="603" width="212" height="156" as="geometry">
            <mxRectangle x="718" y="600" width="210" height="26" as="alternateBounds"/>
          </mxGeometry>
        </mxCell>
        <mxCell id="XqAwryNyBwVGznu84Bff-51" value="机器id" style="text;strokeColor=none;fillColor=none;spacingLeft=4;spacingRight=4;overflow=hidden;rotatable=0;points=[[0,0.5],[1,0.5]];portConstraint=eastwest;fontSize=12;" parent="XqAwryNyBwVGznu84Bff-50" vertex="1">
          <mxGeometry y="26" width="212" height="26" as="geometry"/>
        </mxCell>
        <mxCell id="XqAwryNyBwVGznu84Bff-52" value="生产任务id" style="text;strokeColor=none;fillColor=none;spacingLeft=4;spacingRight=4;overflow=hidden;rotatable=0;points=[[0,0.5],[1,0.5]];portConstraint=eastwest;fontSize=12;" parent="XqAwryNyBwVGznu84Bff-50" vertex="1">
          <mxGeometry y="52" width="212" height="26" as="geometry"/>
        </mxCell>
        <mxCell id="XqAwryNyBwVGznu84Bff-53" value="操作目标类型" style="text;strokeColor=none;fillColor=none;spacingLeft=4;spacingRight=4;overflow=hidden;rotatable=0;points=[[0,0.5],[1,0.5]];portConstraint=eastwest;fontSize=12;" parent="XqAwryNyBwVGznu84Bff-50" vertex="1">
          <mxGeometry y="78" width="212" height="26" as="geometry"/>
        </mxCell>
        <mxCell id="XqAwryNyBwVGznu84Bff-54" value="操作类型" style="text;strokeColor=none;fillColor=none;spacingLeft=4;spacingRight=4;overflow=hidden;rotatable=0;points=[[0,0.5],[1,0.5]];portConstraint=eastwest;fontSize=12;" parent="XqAwryNyBwVGznu84Bff-50" vertex="1">
          <mxGeometry y="104" width="212" height="26" as="geometry"/>
        </mxCell>
        <mxCell id="XqAwryNyBwVGznu84Bff-55" value="时间戳" style="text;strokeColor=none;fillColor=none;spacingLeft=4;spacingRight=4;overflow=hidden;rotatable=0;points=[[0,0.5],[1,0.5]];portConstraint=eastwest;fontSize=12;" parent="XqAwryNyBwVGznu84Bff-50" vertex="1">
          <mxGeometry y="130" width="212" height="26" as="geometry"/>
        </mxCell>
        <mxCell id="XqAwryNyBwVGznu84Bff-60" style="edgeStyle=orthogonalEdgeStyle;rounded=0;orthogonalLoop=1;jettySize=auto;html=1;entryX=0;entryY=0.5;entryDx=0;entryDy=0;fontSize=14;" parent="1" source="XqAwryNyBwVGznu84Bff-57" target="XqAwryNyBwVGznu84Bff-27" edge="1">
          <mxGeometry relative="1" as="geometry"/>
        </mxCell>
        <mxCell id="XqAwryNyBwVGznu84Bff-57" value="根据操作记录计算展示用的数据&lt;br&gt;（当前状态+操作记录 =&amp;gt; 展示用数据）" style="rounded=0;whiteSpace=wrap;html=1;fontSize=14;align=left;" parent="1" vertex="1">
          <mxGeometry x="960" y="636" width="250" height="64" as="geometry"/>
        </mxCell>
        <mxCell id="XqAwryNyBwVGznu84Bff-58" style="edgeStyle=orthogonalEdgeStyle;rounded=0;orthogonalLoop=1;jettySize=auto;html=1;exitX=1;exitY=0.5;exitDx=0;exitDy=0;entryX=0;entryY=0.5;entryDx=0;entryDy=0;fontSize=14;" parent="1" source="XqAwryNyBwVGznu84Bff-52" target="XqAwryNyBwVGznu84Bff-57" edge="1">
          <mxGeometry relative="1" as="geometry"/>
        </mxCell>
        <mxCell id="XqAwryNyBwVGznu84Bff-61" value="直接查询已计算好的数据" style="text;strokeColor=none;fillColor=none;html=1;fontSize=24;fontStyle=1;verticalAlign=middle;align=center;" parent="1" vertex="1">
          <mxGeometry x="1540" y="380" width="100" height="40" as="geometry"/>
        </mxCell>
        <mxCell id="XqAwryNyBwVGznu84Bff-62" value="记录所有要展示的&lt;br&gt;状态相关的操作" style="text;strokeColor=none;fillColor=none;html=1;fontSize=24;fontStyle=1;verticalAlign=middle;align=center;" parent="1" vertex="1">
          <mxGeometry x="740" y="490" width="100" height="40" as="geometry"/>
        </mxCell>
        <mxCell id="XqAwryNyBwVGznu84Bff-63" value="" style="endArrow=none;dashed=1;html=1;fontSize=14;" parent="1" edge="1">
          <mxGeometry width="50" height="50" relative="1" as="geometry">
            <mxPoint x="1010" y="1230" as="sourcePoint"/>
            <mxPoint x="950" y="370" as="targetPoint"/>
            <Array as="points">
              <mxPoint x="1010" y="830"/>
              <mxPoint x="950" y="830"/>
            </Array>
          </mxGeometry>
        </mxCell>
        <mxCell id="XqAwryNyBwVGznu84Bff-67" value="&lt;span style=&quot;white-space: normal&quot;&gt;void logMachineOperation(machineId, manufactureTaskId， targetType, operationType);&lt;/span&gt;" style="rounded=1;whiteSpace=wrap;html=1;fontSize=14;align=left;" parent="1" vertex="1">
          <mxGeometry x="616" y="930" width="380" height="60" as="geometry"/>
        </mxCell>
        <mxCell id="5XcQIUwKAKq9O7EYFoiP-1" value="" style="shape=image;imageAspect=0;aspect=fixed;verticalLabelPosition=bottom;verticalAlign=top;fontSize=14;align=left;image=data:image/jpeg,/9j/4AAQSkZJRgABAQEAeAB4AAD/2wBDAAMCAgMCAgMDAwMEAwMEBQgFBQQEBQoHBwYIDAoMDAsKCwsNDhIQDQ4RDgsLEBYQERMUFRUVDA8XGBYUGBIUFRT/2wBDAQMEBAUEBQkFBQkUDQsNFBQUFBQUFBQUFBQUFBQUFBQUFBQUFBQUFBQUFBQUFBQUFBQUFBQUFBQUFBQUFBQUFBT/wAARCAGZAv0DASIAAhEBAxEB/8QAHwAAAQUBAQEBAQEAAAAAAAAAAAECAwQFBgcICQoL/8QAtRAAAgEDAwIEAwUFBAQAAAF9AQIDAAQRBRIhMUEGE1FhByJxFDKBkaEII0KxwRVS0fAkM2JyggkKFhcYGRolJicoKSo0NTY3ODk6Q0RFRkdISUpTVFVWV1hZWmNkZWZnaGlqc3R1dnd4eXqDhIWGh4iJipKTlJWWl5iZmqKjpKWmp6ipqrKztLW2t7i5usLDxMXGx8jJytLT1NXW19jZ2uHi4+Tl5ufo6erx8vP09fb3+Pn6/8QAHwEAAwEBAQEBAQEBAQAAAAAAAAECAwQFBgcICQoL/8QAtREAAgECBAQDBAcFBAQAAQJ3AAECAxEEBSExBhJBUQdhcRMiMoEIFEKRobHBCSMzUvAVYnLRChYkNOEl8RcYGRomJygpKjU2Nzg5OkNERUZHSElKU1RVVldYWVpjZGVmZ2hpanN0dXZ3eHl6goOEhYaHiImKkpOUlZaXmJmaoqOkpaanqKmqsrO0tba3uLm6wsPExcbHyMnK0tPU1dbX2Nna4uPk5ebn6Onq8vP09fb3+Pn6/9oADAMBAAIRAxEAPwD9U6KKKACiiigAooooAKKKKACiiigAooooAKKKKACiiigAooooAKKKKACiiigAooooAKKKKACiiigAooooAKKKKACiiigAooooAKKKKACiiigAooooAKKKKACiiigAooooAKKKKACiiigAooooAKKKKACiiigAooooAKKKKACiiigAooooAKKKKACiiigAooooAKKKKACiiigAooooAKKKKACiiigAooooAKKKKACiiigAooooAKKKKACiiigAooooAKKKKACvOvAPgyz1jwL4cv7y/wBemu7rTbaeaQ6/fDe7RKzHAmwMknpXotfNWmfGjWfAdrpuk6hFYw6ZJ4V0htK+xG41C+82U+SZ2sobbeyB2RWCyMBiIA7psKr9OpSV032/zse3f8K70r/n713/AMKC/wD/AI/R/wAK70r/AJ+9d/8ACgv/AP4/Xhul/tAeJbf4X+PbyXUbTXtb0KxeewmvPDuoeHDcxxjy5JiLhJkeXzgyrGgALAKwTd8vnPiv9qb4t+cx0DRtS1K3Wytmlk8PeCbjV7e2mOx5Y5LlrmA+aEJ3q0EZQts2gjzKTkk327+t/wDJr103JV7X/rS3+afpqfXH/Cu9K/5+9d/8KC//APj9H/Cu9K/5+9d/8KC//wDj9aHhG+utU8LaRe3s8NzdXNrHPJNBbG3RiyhsiMySFOv3d7Y9TWvWkouLcX0JjJSSa6nMf8K70r/n713/AMKC/wD/AI/R/wAK70r/AJ+9d/8ACgv/AP4/XT0VJRzH/Cu9K/5+9d/8KC//APj9H/Cu9K/5+9d/8KC//wDj9dPRQBzH/Cu9K/5+9d/8KC//APj9H/Cu9K/5+9d/8KC//wDj9dPRQBzH/Cu9K/5+9d/8KC//APj9H/Cu9K/5+9d/8KC//wDj9dPRQBzH/Cu9K/5+9d/8KC//APj9H/Cu9K/5+9d/8KC//wDj9dPRQBzH/Cu9K/5+9d/8KC//APj9H/Cu9K/5+9d/8KC//wDj9dPRQBzH/Cu9K/5+9d/8KC//APj9H/Cu9K/5+9d/8KC//wDj9dPRQBzH/Cu9K/5+9d/8KC//APj9H/Cu9K/5+9d/8KC//wDj9dPRQBzH/Cu9K/5+9d/8KC//APj9H/Cu9K/5+9d/8KC//wDj9dPRQBzH/Cu9K/5+9d/8KC//APj9H/Cu9K/5+9d/8KC//wDj9dPRQB514b8GWd9rHiqGe/16SKz1JIIF/t++GxDZ20hHE3PzSOefWt7/AIV3pX/P3rv/AIUF/wD/AB+k8I/8jB43/wCwxH/6QWddRQBzH/Cu9K/5+9d/8KC//wDj9H/Cu9K/5+9d/wDCgv8A/wCP109FAHMf8K70r/n713/woL//AOP0f8K70r/n713/AMKC/wD/AI/XT0UAcx/wrvSv+fvXf/Cgv/8A4/R/wrvSv+fvXf8AwoL/AP8Aj9dPRQBzH/Cu9K/5+9d/8KC//wDj9H/Cu9K/5+9d/wDCgv8A/wCP109FAHMf8K70r/n713/woL//AOP0f8K70r/n713/AMKC/wD/AI/XT1578ZvGeueBtJ0fUNKTSVtH1S2t7641XUWtFSOSVUCriCXcWLbf4SMjGScUdUu7S+92Do32Tf3K5t/8K70r/n713/woL/8A+P0f8K70r/n713/woL//AOP14toP7RWoaj8RtM3arPH4U1a5UGx1DwLq0Etgrlbe3j+2kLGWlnI5ePYp8xfM+Vd3FeMf2oPiRZ3niSz0nTYri+sfEyadBZaBpU/iC5eBI43m2Ji0BjURy7nDSNuk2fusLITe3n/mk/uv9w/6/C/6H09/wrvSv+fvXf8AwoL/AP8Aj9H/AArvSv8An713/wAKC/8A/j9ef/svfEXxf8SvCutXvjGG6sr+z1OW0Wy1Dw8+j3US8SoWja4l3KY5YscKRtIJk++fZ6qUXF2ZKdzmP+Fd6V/z967/AOFBf/8Ax+j/AIV3pX/P3rv/AIUF/wD/AB+unoqRnMf8K70r/n713/woL/8A+P0f8K70r/n713/woL//AOP109FAHMf8K70r/n713/woL/8A+P0f8K70r/n713/woL//AOP109FAHMf8K70r/n713/woL/8A+P0f8K70r/n713/woL//AOP109FAHMf8K70r/n713/woL/8A+P1laj4dg8N+JvCMlje6t/pGpSQTR3Or3dxHIn2K6fBSSVlPzIp6dVFd5XL+Lv8AkYPBH/YYk/8ASC8oA6iiiigAooooAKKKKACiiigAooooAKKKKACiiigAooooAKKKKACiiigAooooAKKKKACiiigAooooAKKKKACiiigAooooAKKKKACiiigAooooAKKKKACiiigAr5r0X4L6l4n8OW15a6HodhBq2maIPt9rrV7Y3LvbwOy3k4tI4nmdGkjCwmYBhGp81CFA+lK81+G/inU4Ph34WjTwfrVwiaVaqs0c1iFcCFfmG65BwevIB9QKP6/r+vxHdpWX9f1/WhxOk/sxpoS6tYFpfENvcabNFbavrXiLUZp47h2EgWS0kaSBh5wMvnKVYZA8tiDI/L+OP2Tdc8feIrjXNRl0MT2UMcVjay2emXf2zbGsYEs8+kvJCgUPhXF1yykFdgB+gf8AhLtV/wChJ13/AL/WH/yVR/wl2q/9CTrv/f6w/wDkqlbVv+uuva+r/UP6/L/JfoXvBunX2keE9IsdSdZL+3tY4p2R0dd4UAgMkMKkehWKMf7K9K2a5j/hLtV/6EnXf+/1h/8AJVH/AAl2q/8AQk67/wB/rD/5KqpPmbZKVlY6eiuY/wCEu1X/AKEnXf8Av9Yf/JVH/CXar/0JOu/9/rD/AOSqQzp6K5j/AIS7Vf8AoSdd/wC/1h/8lUf8Jdqv/Qk67/3+sP8A5KoA6eiuY/4S7Vf+hJ13/v8AWH/yVR/wl2q/9CTrv/f6w/8AkqgDp6K5j/hLtV/6EnXf+/1h/wDJVH/CXar/ANCTrv8A3+sP/kqgDp6K5j/hLtV/6EnXf+/1h/8AJVH/AAl2q/8AQk67/wB/rD/5KoA6eiuY/wCEu1X/AKEnXf8Av9Yf/JVH/CXar/0JOu/9/rD/AOSqAOnormP+Eu1X/oSdd/7/AFh/8lUf8Jdqv/Qk67/3+sP/AJKoA6eiuY/4S7Vf+hJ13/v9Yf8AyVR/wl2q/wDQk67/AN/rD/5KoA6eiuY/4S7Vf+hJ13/v9Yf/ACVR/wAJdqv/AEJOu/8Af6w/+SqAOnormP8AhLtV/wChJ13/AL/WH/yVR/wl2q/9CTrv/f6w/wDkqgBPCP8AyMHjf/sMR/8ApBZ11Fea+FfFOpx654xZfB+tSmTVY2ZVmscxn7Daja2bkDOADxkYYc5yB0f/AAl2q/8AQk67/wB/rD/5KoA6eiuY/wCEu1X/AKEnXf8Av9Yf/JVH/CXar/0JOu/9/rD/AOSqAOnormP+Eu1X/oSdd/7/AFh/8lUf8Jdqv/Qk67/3+sP/AJKoA6eiuY/4S7Vf+hJ13/v9Yf8AyVR/wl2q/wDQk67/AN/rD/5KoA6eiuY/4S7Vf+hJ13/v9Yf/ACVR/wAJdqv/AEJOu/8Af6w/+SqAOnrg/ih4Lu/Ftz4dmsdH0e+uNNvPta32oXL29xa4GdsDJC7AyY2MwZCqnPz421q/8Jdqv/Qk67/3+sP/AJKo/wCEu1X/AKEnXf8Av9Yf/JVJq9vKz+7Ufdd9PvPF7f8AZbntRDqbyXF/cs8GfDsnjPWo7K2SOQSoY7rzWkkdJNz5aIKxC4SI7nMnxE/Zn1HxlHc6BaHSLDwtd6o96Wkitbp7ZPslvApW3ubGYNJ+7m+ZJoSvmZ3OeB7J/wAJdqv/AEJOu/8Af6w/+SqP+Eu1X/oSdd/7/WH/AMlUWVrdP+G/yXmJNrVHH/s//CnUvhFpWsaTdGxFhJcLJa/YEs4llwu1pXitrC1EbsAmQzTHgDfxz6vXMf8ACXar/wBCTrv/AH+sP/kqj/hLtV/6EnXf+/1h/wDJVU5OWrEklsdPRXMf8Jdqv/Qk67/3+sP/AJKo/wCEu1X/AKEnXf8Av9Yf/JVIZ09Fcx/wl2q/9CTrv/f6w/8Akqj/AIS7Vf8AoSdd/wC/1h/8lUAdPRXMf8Jdqv8A0JOu/wDf6w/+SqP+Eu1X/oSdd/7/AFh/8lUAdPRXMf8ACXar/wBCTrv/AH+sP/kqj/hLtV/6EnXf+/1h/wDJVAHT1y/i7/kYPBH/AGGJP/SC8pf+Eu1X/oSdd/7/AFh/8lVi6tr19qXirwVFc+HNT0mMarKwnvJLVkJ+wXfy4imds8+mODzQB6DRRRQAUUUUAFFFFABRRRQAUUUUAFFFFABRRRQAUUUUAFFFFABRRRQAUUUUAFFFFABRRRQAUUUUAFFFFABRRRQAUUUUAFFFFABRRRQAUUUUAFFFFABRRRQAVwvw58S6Zp/w70GG5u0gfT/DtlfXRkBVYoGhIDlsYx+6k75G3nqK7qvjHUfC2qaf/wAVHpWiWWjvD4a8Pz3OraAunDUprYMzTTzz34jhiRUgZSh83eUtyWVUZal9v6RcY3Tfp+aPqHwz8WvBnjXw7ea54f8AE+ma5pllB9ouptOuFnNumwv+8RMsjbQTtYBuCMZrG8QftG/C/wAK30ljrHj3QdNvo445ZLW4vkSZFk27NyE7gSGVtpGQp3EAc1832Nr4t+Ivw3+ItpqOla7rOlapY3D3lx4xj0T/AES4VlaKTyrXEyyraeW6B0wGVCm1SpPnPxG8C3OleJNM0C31rxhBFNYQQWNp4cm1TSLRYkjjct9mttHuIZT5zoWkt32tJKp2RknCbfM0vLTrrzfqlbTbz0U20V/P005f0bv5rsfdWo/F/wAJ6dp0d8NUbUbaZIpbdtJtJ79rpJThHgWBHaZSerRhgO+KztH+PvgvWvtDR3mqWUdvA91JNquhX9hEIUkWOSTfPAilUZ13kHCDJbABI8O+IHiK3iafRJrnX9QuNS0Ox1GaG9juHjV4rW/a4PlX0TpAXjgXMbQ/MTloySa4/wCFek3nhDw/r9zp8OpeCWstE1i+glk021gEwQafMXCS6VZ7o2JMTF4ScRkI4AUjaMfflF9L/dbf77r5PQSu+Xzt+e33W+/qfZviTxZpvhLT473UpZkgkfy0+z20tw7ttZsBIlZj8qseB2rRs7yDULSC6tZo7m2nRZYpoWDJIjDKspHBBBBBFfIuseG/AN98QGOu6F8NPsklxY6nBpreE4rTV57W5uDH5sxkmcvGgILt5Sg5ydmCK+qvCcmjyeGtN/4R+CG20RYVWzhtrfyIkiHCqkeBtUAcDA4qV8Lb3v8Akl+rJvdq21vx/wCG/M1qKKKRQUUUUAFFFFABRRRQAUUUUAFFFFABRRRQAUUUUAFFFFAHL+Ef+Rg8b/8AYYj/APSCzrqK5fwj/wAjB43/AOwxH/6QWddRQAUUUUAFFFFABRRRQAUUUUAFVNS1W10mOB7uXylmnjt4ztJzI7BVXgdyevSrdeR/tEeE/wDhKrDwsv8AYGhat5Os2x+1axbrcy2mZU/1ELLtdnxtOZIwOCd+NtK+sV3aX3tIH8Mn2Tf3K52Fv8WfBdz40ufCCeKtJHim3kET6M94iXZYxiXCxEhn+QhsqDjnPQ1B4m+M3gbwWs58QeKdM0MQ3q6ex1KcW+Zysb7V343ALNGxZchQ2SQAcfLfhrWPiCvjTRrC3/4TvU9W0S4j3Wd7J4Xa2Ltchr9C6MC832YnO1vOVpSWKrJluV+I3w0l8J6X4wvoTeeGnm8Ui7u7PwbBc2EkYS1hlhh+22Vhc4AluIyEmQK0il0ZTnK5lZPpZv7nFfc09P8AgFWu2l3/AEb/AAPtrwL8UPCPxOtbq48J+JNM8QxWshinOn3KSmJgzKNwByASrFSeGAyMjBrp6+f/ANjOxutJ8AavaXN74gvkm1E39tJ4ge/nkEU0aE7Z7uytPMzIJXPlxkAyZLEtk/QFazjyu3oZxd1cKKKKgoKKKKACiiigAooooAK5fxd/yMHgj/sMSf8ApBeV1Fcv4u/5GDwR/wBhiT/0gvKAOoooooAKKKKACiiigAooooAKKKKACiiigAooooAKKKKACiiigAooooAKKKKACiiigAooooAKKKKACiiigAooooAKKKKACiiigAooooAKKKKACiiigAooooAK82+Gvw58J3Xgrwpqs3hfRZtUey0++a+k0+FpzcR26rHMXK7vMVSVVs5AJANek15r8N/AWmXXw78LTvda0ryaVauwj12+jUEwqeFWYBR7AADtR5h5HaXfhPQ7/WG1a50bT7jVWtGsGvprWNpzbMctCXI3eWSSSmcE9qoL8NPCEdrrFsvhTRFt9Zx/acI06EJfY6eeNuJMf7Wab/wrvSv+fvXf/Cgv/wD4/R/wrvSv+fvXf/Cgv/8A4/Ssh3Zq6f4b0jSUsEsdKsrJNPtzaWa29ukYtoTtzFHgfIh8tPlGB8i+gqrH4F8NRapqupJ4e0pNR1aMRajeLZRCa8QDAWZ9uZAAAMMTxVT/AIV3pX/P3rv/AIUF/wD/AB+j/hXelf8AP3rv/hQX/wD8fqru9xdLF638F+H7S01e1g0LTYbXWJJJtShjs41S9eQYkaZQuJCw4Ytkkda0rGxttLsrezs7eK0tLeNYobeBAkcaKMKqqOAAAAAOmK5//hXelf8AP3rv/hQX/wD8fo/4V3pX/P3rv/hQX/8A8fpAdPRXMf8ACu9K/wCfvXf/AAoL/wD+P0f8K70r/n713/woL/8A+P0AdPRXMf8ACu9K/wCfvXf/AAoL/wD+P0f8K70r/n713/woL/8A+P0AdPRXMf8ACu9K/wCfvXf/AAoL/wD+P0f8K70r/n713/woL/8A+P0AdPRXMf8ACu9K/wCfvXf/AAoL/wD+P0f8K70r/n713/woL/8A+P0AdPRXMf8ACu9K/wCfvXf/AAoL/wD+P0f8K70r/n713/woL/8A+P0AdPRXMf8ACu9K/wCfvXf/AAoL/wD+P0f8K70r/n713/woL/8A+P0AdPRXMf8ACu9K/wCfvXf/AAoL/wD+P0f8K70r/n713/woL/8A+P0AdPRXMf8ACu9K/wCfvXf/AAoL/wD+P0f8K70r/n713/woL/8A+P0AdPRXMf8ACu9K/wCfvXf/AAoL/wD+P0f8K70r/n713/woL/8A+P0AJ4R/5GDxv/2GI/8A0gs66ivNfCvgLTJtc8Yo11rQEWqxou3Xb5SR9htW+YibLHLHk5OMDoAB0f8AwrvSv+fvXf8AwoL/AP8Aj9AHT0VzH/Cu9K/5+9d/8KC//wDj9H/Cu9K/5+9d/wDCgv8A/wCP0AdPRXMf8K70r/n713/woL//AOP0f8K70r/n713/AMKC/wD/AI/QB09Fcx/wrvSv+fvXf/Cgv/8A4/R/wrvSv+fvXf8AwoL/AP8Aj9AHT0VzH/Cu9K/5+9d/8KC//wDj9H/Cu9K/5+9d/wDCgv8A/wCP0AdPWRrnhHQvFEtrLrOi6dq0lp5n2d760jmMO9Sj7CwO3cpKnHUHBrP/AOFd6V/z967/AOFBf/8Ax+j/AIV3pX/P3rv/AIUF/wD/AB+la+4Fu48C+G7rw7baBN4e0qbQbXy/I0uSyia1i2EFNsRXau0gEYHGOKS58C+GrzXbbW7jw9pU+s2sjTQajJZRNcRSMiozpIV3KxVEUkHJCgdAKq/8K70r/n713/woL/8A+P0f8K70r/n713/woL//AOP0+txeRoaH4Q0Hwzdajc6PomnaTcalN9ovZrG0jhe6l5PmSlQC7cnlsnk1r1zH/Cu9K/5+9d/8KC//APj9H/Cu9K/5+9d/8KC//wDj9Azp6K5j/hXelf8AP3rv/hQX/wD8fo/4V3pX/P3rv/hQX/8A8foA6eiuY/4V3pX/AD967/4UF/8A/H6P+Fd6V/z967/4UF//APH6AOnormP+Fd6V/wA/eu/+FBf/APx+j/hXelf8/eu/+FBf/wDx+gDp6K5j/hXelf8AP3rv/hQX/wD8fo/4V3pX/P3rv/hQX/8A8foA6euX8Xf8jB4I/wCwxJ/6QXlL/wAK70r/AJ+9d/8ACgv/AP4/WLq3hOy0PxV4KuLafU5JDqsqbbzVbq5TBsLs/clkZc8dcZ6+tAHoNFFFABRRRQAUUUUAFFFFABRRRQAUUUUAFFFFABRRRQAUUUUAFFFFABRRRQAUUUUAFFFFABRRRQAUUUUAFFFFABRRRQAUUUUAFFFFABRRRQAUUUUAFFFFABXyB44+Nvi74X6X4IstM8T6BYwnw/Z3sGnalZWMKzK0Hl7Jbi71e2Z8OrP+4jG35AxIPzfX9fO//CmfEPjzSvB+s6T4nj8P2q+F9OtGUS6ojyOquxJFlf2gwBIMbzJ1OAvO6Xe6sUrcsr/1qv0Ob8B/H3xtrHg34ha5Fr+heKm0O1N6toLa0tvL8zdsSO5sb7UEbYInxFJH5jMyZfBzXQSfHrxRqWm6DLbaZerNDZw6hNcaHpF9rOn60z/dtobyKz2IpQlmkwuyQoo3Kr56PwV8CdW0GDxZBr2tW/iRdVtLWO1kkl1BzFLC07KW+2Xd0+A0iMNsgGQfkBGWyPFnwr8d3ipZaNo2grYQ+WEeTxTcWwYNE8d1iFNOfyzMsr7tsh+ZUkxu3Br0u1/ht8r3/G173vpe60Jtov8At79Lfrba3SzPc9H1Maxpdtei1ubIzIGNteRGOaI91ZfUHI4JB6gkEGrtU9H+1/2Vafbra3srzyl863tJjNDE2OVRyiFlHQEoufQVcoe7FG9lcKKKKQwooooAKKKKACiiigAooooAKKKKACiiigAooooAKKKKACiiigDl/CP/ACMHjf8A7DEf/pBZ11Fcv4R/5GDxv/2GI/8A0gs66igAooooAKKKKACiiigAooooAK8u/aK8Za14C+HVxrGka5Z6AVkW2ku7qwhuWQysI0dDcXlrBGVZg26VyvGNp6H1GuJ+MHgfUfiH4N/sfStRj0q8N5bXAu5HuF8tY5VdsG3lhlzgEDZKh5+8BUSTdku6+6+v4FRdrvyf5Hzf8Pv2j/HHjTx54e0p/GvhlJLqWSyFnZ2Ok3sdxk7kmkFvr0s6vsjP+rQopkbIYAMO5t/2hPFbXnjmwl0SC4urHWl0q3bw+brWJNNUwx7p54IrNZDED5jKcMXkJQYRDIuj4f8A2e/Fmi+LNA1W88bR6vaafercS2kk+uHeoVhwLrVrmIkFgfmiPsVPNavif4T6xbnV4dA0LRb+x1K7cyw3WtTacWtDYxWxgkK2k/mqzCVipxghGBLZxfNp9/5xf/yXotuwopc3lp+un5evzOr+EfjS/wDFeiSwapZarFe2J8r+0NR0qewGox5ZUuFjljjKM2074yoKt0BRo3fvK4H4O6D4o8OaFeWviq002K/kunuPtVhqst+1zuPWQvbQbSqCNBgEEIOnSu+qpWvp/X9f1YiO39f1/XXcKKKKkoKKKKACiiigAooooAK5fxd/yMHgj/sMSf8ApBeV1Fcv4u/5GDwR/wBhiT/0gvKAOoooooAKKKKACiiigAooooAKKKKACiiigAooooAKKKKACiiigAooooAKKKKACiiigAooooAKKKKACiiigAooooAKKKKACiiigAooooAKKKKACiiigAooooAK81+G/inU4Ph34WjTwfrVwiaVaqs0c1iFcCFfmG65BwevIB9QK9KrivBWtWfhv4M+H9V1CRobCy0G2uJ5FjaQpGtupZtqgscAE8A0bAXv+Eu1X/oSdd/7/WH/AMlUf8Jdqv8A0JOu/wDf6w/+Sq3LrVbSy0qbUpZ1FjDC1w8y5YeWF3FhjORjniuL8SftAfDXwfrFvpWueO/D+lalMwT7Jd6hFHJFmMyqZVJzECgyGfaCSozllBOtg3V0bH/CXar/ANCTrv8A3+sP/kqj/hLtV/6EnXf+/wBYf/JVZ+qfHD4d6HfWFpqXjnw9p8+oWkd9Z/atThiW5gc4SSNmYK6tjjBOe1P8H/GjwF4+up7Tw94w0XVr6380zWdvexm4jWNyju0Wd4UMPvEYIIIJBBJ/wfw3+7qHl/Wuxd/4S7Vf+hJ13/v9Yf8AyVR/wl2q/wDQk67/AN/rD/5KrBvf2jPhdpc1pBf+P/D2m3F0qulvfahHbyqrR+YrOjkNGrJgguADuXGdwz39neQahaw3VrNHc206LLFNC4dJEYZVlYcEEEEEUeYrnPf8Jdqv/Qk67/3+sP8A5Ko/4S7Vf+hJ13/v9Yf/ACVXT0UDOY/4S7Vf+hJ13/v9Yf8AyVR/wl2q/wDQk67/AN/rD/5Krp6KAOY/4S7Vf+hJ13/v9Yf/ACVR/wAJdqv/AEJOu/8Af6w/+Sq6eigDmP8AhLtV/wChJ13/AL/WH/yVR/wl2q/9CTrv/f6w/wDkqunooA5j/hLtV/6EnXf+/wBYf/JVH/CXar/0JOu/9/rD/wCSq6eigDmP+Eu1X/oSdd/7/WH/AMlUf8Jdqv8A0JOu/wDf6w/+Sq6eigDmP+Eu1X/oSdd/7/WH/wAlUf8ACXar/wBCTrv/AH+sP/kqunooA5j/AIS7Vf8AoSdd/wC/1h/8lUf8Jdqv/Qk67/3+sP8A5Krp6KAOY/4S7Vf+hJ13/v8AWH/yVR/wl2q/9CTrv/f6w/8AkqunooA818K+KdTj1zxiy+D9alMmqxsyrNY5jP2G1G1s3IGcAHjIww5zkDo/+Eu1X/oSdd/7/WH/AMlUnhH/AJGDxv8A9hiP/wBILOuooA5j/hLtV/6EnXf+/wBYf/JVH/CXar/0JOu/9/rD/wCSq6eigDmP+Eu1X/oSdd/7/WH/AMlUf8Jdqv8A0JOu/wDf6w/+Sq6eigDmP+Eu1X/oSdd/7/WH/wAlUf8ACXar/wBCTrv/AH+sP/kqunooA5j/AIS7Vf8AoSdd/wC/1h/8lUf8Jdqv/Qk67/3+sP8A5Krp6KAOY/4S7Vf+hJ13/v8AWH/yVR/wl2q/9CTrv/f6w/8AkqunrE8XeMdM8D6SNR1ZroW7TJbotlZT3kzyOcKqxQo7sSfRTQBT/wCEu1X/AKEnXf8Av9Yf/JVH/CXar/0JOu/9/rD/AOSqzdG+M3hzXNasNKig8RWl5fO0VudU8L6nYxO6o0hXzZ7dEB2oxwWGccVjX37Unwk0vxFqOh3nxC0G01PT5o7e5inu1RUkcsNu8/KSpUh8E+WeH25FHbzA6v8A4S7Vf+hJ13/v9Yf/ACVR/wAJdqv/AEJOu/8Af6w/+Sqb8Pfih4U+K+kz6n4R16z16xguHtZZbR87JEOCpBwR6g4wwIYZBBPU0Acx/wAJdqv/AEJOu/8Af6w/+SqP+Eu1X/oSdd/7/WH/AMlV09FAHMf8Jdqv/Qk67/3+sP8A5Ko/4S7Vf+hJ13/v9Yf/ACVXT0UAcx/wl2q/9CTrv/f6w/8Akqj/AIS7Vf8AoSdd/wC/1h/8lV09FAHMf8Jdqv8A0JOu/wDf6w/+SqP+Eu1X/oSdd/7/AFh/8lV09FAHMf8ACXar/wBCTrv/AH+sP/kqsXVtevtS8VeCornw5qekxjVZWE95JashP2C7+XEUztnn0xwea9Brl/F3/IweCP8AsMSf+kF5QB1FFFFABRXB/EX42eGfhXcww+IIvEI81EdZ9M8ManqVuN7+WitNa28iK5fACFg3zLx8wzyHw/8A2qvD3jD7Jp+p+H/F3h7xKzIl5ptx4Q1ow2m+R0jke4eyREhfYzLJL5Y2glghVgBe9sD03Pa6K8J/4bI+Hl3oN5eaPqi+K71b260+zs/CcNzrgnmjDmJZGsYJvJ81ULLvHKhyu4I2I7r9r7QbzwzJdeG/Cni7xH4ohdUuPCX9hXVhqERWNJbnP2qOJD5MTqSQ20tJCgbdNHuFeSuvX5P+te2l7Bs0n1v+G/5P1s7bM96orwGP9qbV73WtPt9O+Dvi7UrCcm3uJ4NR0bfBdNGk1vED9u8h1khZn3LPlf3a7SZBjt9R+NdhpuqXkL6TqlxaaXaxvrB02xuNSurC6m8sw2ht7OOYySbGd32EiNRGTlZVanbr/X9f5rurq99F/X9f59mej0V5t8Jvjto3xc82Kw0rxHpt1G1zn+1PDmpWVuUinaIEXFxbRxlzgHywxdcsCPkbHpNDTW4J32CivOvGPxosfB/xJ0HwY+kaxfX2r2VxdRXFppV5Nbo0ZQKjTRwNENxY5LONmF3ffXPnvwf/AGlPG3xG8YaLpGs/Cu78NWd/DJLcXbRa2psGWIuFlN5o9rAcsAnyTMdxGAw5oj7239b/AOQTahbm6/1+p9D0V5F46/aO0b4eyTSanY3cunx6wdLFxp1tc38myOFXuLhobaCSQJG7rDnBG9lBK5BrVt/ize+NtKvG8AeHby/1a1ePfbeNdO1bwxbsjbslJp9PYyMNv3UQ4yMlcjMp8y5lt/nb8Ndyno7P+t1991tuekUV4d4e+KXxi8Saz4k023+HHgeObQb9NPuml8dXgV5GtoLkGPGjnK7LhBzg7g3GME2fFH7UWh+Fdf8AHWlXGg+JJZPCulR6lJND4d1OSK4ZmlUosi2hXaDGuJVLKwZ2HETkE3yR5pdr/K19t+pShJtRtrp+Ox7RRXmnhj9oTwj4k8N6lq5fVtK/suK2kvrPVdCv7K5Rp8iFIoZ4EknMjgonlK29sKoJIFRyeOviJr2n2GoeEvB/hXUbSZJFuY9Y8XS2s9pcJK6PbsLewuULptCviT5ZA6c7dzXKMo3uv6/r+tSI+/Hnjt/X4+R6fRXDa14+1jw3p/hi3vtAt7vxTrEzRPo+l6l5qIEieWZo5pYot4VUABdIwXdASgO4Ynhn4seLPGHieTTrb4eP4ctdNkjGs/8ACVa1bw3kEci7kkt47MXcUwIDZDzwkFfQ5qethXt/X9fceqUV89X37Ydpb+JdctrPwD4g1Xw3YWA1K28SpfaXp9rf2yf8fFzCL+7ti9tHui/0hNyHzAchWjaTqV/aDkm8H+GNag+G3jOTUPEV5NZ2nh6RNPt79fKSV2lfzbxIRGUhZlIlJYMpAwaHorsG1F2Z65RXges/ttfCnS/Bmi62fGPhy11HUW0t38P6pr9na6hZw3ksAZ54hI5UxRTGVhyMIfmA+Ya3jX9pHSfDmm6jqFlqPg5dLjkhtrHWvEnipNI026uWRJXgM7QyHd5Eiyo0SSo4DAshHNOLje/TT8v81r30HL3bc2l9P6R7NRXjHwu+OOveOfFmi6ffaV4Om0TWtLvtR0/XfB3i6TW4JTaz28MiEmygX71x95XbBjYECtP4rftDaR8KL1Le78O+LtY8qWI302j+FtTu4La2cfNcCeK2aFxHwzqJAwUPgMwCMpLktzaX/wA2vls9/wAhpN7f1/X/AAD1SivHvCn7Tnh7xRrd7byaH4t0XSk2m11jWPCWr2drOgjMkk7zS2iwwQqMAPLIpJD5VQFLx6T+0/4V8X+CNR1fwdqWieMNaj1KXSbHRdJ1uGZru586VLdTIm7y1kSJptxU7Yg7/MqE0nddP69P03voKPvbf1/wNN9ranstFeaT/HLSF8P+HtQj+zxTai8pvYL68WAaVDbf8f8AJcvghBbkeW2cDzGjQld+4c+37WHhVfGC6INB8cNEbJrv7SvgXXS+4SBNoiFjuK4OfMHy9u9Ozukut/wV/u89nstQd0rtf1e3336brd6HtdFfMXxW/bw8OfCXVtU0jVfC15Bq1jNGhtb7xR4cs5HR2XbL5Mmp/aEVkYOA8SnBG4IMka/hn9s7RfGWl31/oXgzXNbhtZ7Wzxo+ueHNQL3NxMkUMObfVZAjMXLZkKLtRvmzgFR952j/AFfT89BSagry0/q/5a+h9DUV4Jr37aHw78OfDvWtd1bWNL8M+JdPt9QdfBniTW7G01SWa1kmhMO2OaUHfLA6qyFwcjGelb2uftH+HLfSbjV9G1jwvqWgw6et0+v3viKKz0uCWVnS2WW5KMnlSPFJH5kXmurgAx4ORTi4pt9P6/r7hy9xpS0bbXnpa+nlf8+zPXaK8D8B/tGa94v1zwuo074fax4b1vVZdGOseC/HUmtfZrlLOa62sn9nxIflhwR5gI8xTgivfKJRcbN9Q/r81+aYUUUVIBRRRQAUUUUAFFFFABXylr/g/wAK6bpPgDxN4l8K+B9RsZ7Gxhk0+fRbe91zXSbRE/dmRNzNFlWEMQeR1j4Yf6tvq2uE+EPhbRdN8HaDrNppFha6xqGjWK3moQ2yJcXISBAgkkA3OFHAyTjtU21T/r+n/wAEfRo8N0f4XaZdfCHxlrmneBfhlqtvqdldPaw29hbWktlGJWZrS4mt4ZUmeEInKquJIgrZI82vNfiEnivwJ4gtvDlzrNn4c0K80uCyttPs7iDSrHVxJKnl21tu0aaNdryOZIJZpfluGJk2ebn7P1r4W+C/EeoXt/q3hDQdUvr6Fbe6ur3TIZpbiJWVljkZlJZQyIQDkAqp7CrWk+A/DOg3uq3mmeHdJ0671YltRuLSxiikvSSSTMyqDIcs33s/ePrVLR3/AK0v/nva/e+4+3fX8bf5belrWPjX4wXXiXw74mbQ7nV9R0jxFq1u1rHNbvdXB1K4e0VJtrxeGn89du3McMgQeWpCRMo27ngLW/GOteG/iFpr211NDHZtM6+JLa6SySSBYjxCuiaejZjCgwvKN4XDIVLGvrr/AIRvSP8AhH/7B/suy/sP7N9j/sz7On2byNu3yvKxt2beNuMY4xUGh+C/D3hfQn0TRtC0zSdGffu06xs44bc7/v5jVQvzd+OaiSfLJJ6tNL9Pu/4a1rhdXi+if/D/AH/1e58u+NrL4pW9nLqOj+KrnbocUN9aC81q3EkYmi2bxHLobmRSJJF/4+JADkbsrgfU3hWDVLXw3pkOtyifV47dFupRMs2+QD5jvWGFWye4ijH+yOlQ6x4I8OeIn0t9V0DS9TfS5BNYNeWUcxtHGMPFuU+Ww2ryuDwPStutW1qkZRi1a4UUUVJYUUUUAFFFFABRRRQAUUUUAFFFFABRRRQAUUUUAFFFFAHL+Ef+Rg8b/wDYYj/9ILOuorl/CP8AyMHjf/sMR/8ApBZ11FABRRRQAUUUUAFFFFABRRRQAV41+1cW/wCFU3Dnw7/wkUVtPHeGC4tLW7tN0TBkSeCe5gMqucIFjZnLFcKTgH2Wqd9o9hqk1nNeWVvdy2U32i1kniV2gl2ld6Ej5W2swyOcMR3qZR5req/B3Ki+V3PjHSvDPjDw/wDEXwxb2Hwj8P8AhjVZILm+i1HQfBulWV/AsflQy+U41x0I2XRB8wHBKkRSc7ND4qW3ir/hML648I2Hin/hH/7UXSEjTUJ4LZJ95Exh8nX7Qnc5Y/vIV5z84GK+wpNPtZb6G9e2he9hjeKK4aMGREcqXVW6gMUQkDg7Fz0FLdWNtfCIXNvFcCKRZo/NQNsdfusM9COx6iql7zjfp/n/API3Xq7k7J23tb8/1s/keT/sw6xZeIPh7JewTXl/ex3L2d3qV5dJc/amT5lKSJeXasirII8+e7ZQhjkGvX6KKqT5ncmMeVWQUUUVJQUUUUAFFFFABRRRQAVy/i7/AJGDwR/2GJP/AEgvK6iuX8Xf8jB4I/7DEn/pBeUAdRRRRQB4v8dp/Cd5qtjZ3/iHUn8YWcK3+ieHtFWS7uYpxKPKvjZwDzGjDqImllIhVWdWZN7E8N4J8UtqHi6HxR8XLqX4QfEm5nis9K0K+1IGwFvtdEtI7jItr5pnLTSRxN5i/uFO0xI5+oaKmMXHZ/1/m9m3fTS1ipNSVun9fhfVdU9bn5ufF6+1PxN4T0J7L4v2OvXOv+Ir+dI/CN1LBL5KXLst5pdjb61bveqJoEAjP2yYM8hiYbVjrT8P/BHxJ8Rvhbq66TNaeK76yvpLubwDrMs1peWxJnaOWe18RJrQt7ifcXQKlqGWZmeWQFdv6IUU4xUY8q/rb/Ly39LHM+fm/rW/+f4ep+Wmnfs6yr8RNF8OaHZ/DlvFWpXRu73QnvvD8mpWEYtDIryW7+EVksl+SLnyyu5x8oMm8fSHjT4Q+KNS8WeMxF4mvdR17T7DS7yCe2huLeW3glku1uY4Rp15pzu8hhhllYyfvWiGI8LDHH9d0Vd9Lf1/WiJWjuv69fxPj79k/wAF3UPxW8SahovxU03x74O0y1hiaPRtR1i8szdTmd5lX7RrN3EswIR33q7fvFI8ssS/0X8FbPRtP+FXhq28PeHNU8JaLHaBbXRNajeO8s0yf3cqu7sG69WPXrXbUUN3/D9f8yYx5U13dz5Q/awsfD3ib4hWmkan40tYJl8KakH8P3+vwaZawCeW3gSedhbzOyymRo1SeOeF3RAIiwzXgXwv8C6jY/ELwzJrPhfRfCOm+G9St49N1TVby3skVpZlulTafDsX2aVnuxtgU6e0odYirsjkfpZRURXK0+3+d/W/z/S1zfPFwezPkqP4Z6T4P/Z3+J/k299q+qw3mp2L3q3TLe3KtemWUJIZFETySuzFlZPm2fMAi7fQvA3jjwh8HdHvJ/GA1/4VWl5OiQSfFTxxBfG7cKSRbyS6nd7do+8oZM5BwcZHudFTBOEIxvtGK+7/AD+5EtKUnJ9W39/+S0Pmn4a/tPfByx8cfFWe5+LPga3gvfEME9rLL4ks1WeMaVYRl0Jlwyh0dcjjKMOoNcV8QIdF8b+LviZb+E/F934n8TeJbHTdB02/03Uo7pLOaaS8eSPy4/3KxQW7JI6lQzRKNzM0u5vsuitJWlZNbJL7kl+KRo6kr3Xl+Gx8v6rqPivSviNrPgxtSh0fxXrnhyxZ9a0OPi3tLX7cJrqCOcOFZj5Ee1jIIWuky0uAX5v4meCvgsv7NGhah4x0DwH/AMJxrfhGCDSbrXLKy/tK/uvsiBVt2kXzJZN8i4CZOXHrX2JRVc3M3KSu3b8ObbtdNfd56c8afs2uR2ST09eX8mn8na+l387+NvhT4M+HPjbwZqWjSWvw4tLbTtSs0vtLjtbS10a3EEk00sMckbW8RZzvkZkIby03ZCCvPPAPjbwVqXxe8Q28X7WUmpG8fTYYIo9X8NBtWYhx5AMVkrE5IT9wUcb+u7BH2XRUbu8tTS1lpv8A8Cx8H6n8MdO1jUbzXtR8ZfDPXPhnpXmFPFXxO8OX2vWSyTPGsUFvfaprEnmKBjdJbPHEZMLhn3LHt2vgmXXvBvgbXrSw8ZfEWK48SagZZ/A3ijUrOKW2ihvYYLm0a61bba27ZXiO5CSApgMNij7VopW91x7/ANf1+N3qElzfff8Ar+t/LQ+P7N7TwP8ABX4W+FtX8Srp3ibWI/BrQ+CNZugNSjmt72yWd4YZH8wKEi/eRqu1Wid+C0hOv42+HniPx/4g1X/hHdK/tVtN8fXFzdL/AMJVeeHPLjOixRhvtdmrzj53UbUUhs/NgZNfVNFdEqrk5N/a5vxcH+HLb59LBVXtVFdIy5vwa/X+rnyD8J9Mv9H8baB4M8PeLPC3/CdaLpvimbUY49Sn8Tx6Q93q9lcRxXbPLb3MjmMuu6Vo2ZkZvmwc81+2d4S1TxB45+G1prWmWni/VYNC1FrmSw8MvdQF/PtAXS3bR9baEHpyF9PMP3T9x0VnKTm4N7q/zvzfd8X4Fzk5pp9f/klL+ux+ff7LHgu88M/HqJtO8NQ+HL+bw1qaW81x4aOmRvIJLXbuI8N6QZFBwSA8vH8K9Tt67Y+F/hn4PitvFXjW0udThvvEM2hy6t43/wCEZvbWVLyYNHG0NzatNDcOjBnLlkkddxePHlfdNFS3e2m3+benbfpuJWW/f+kfA1h4X8J/FEeEfGvw1sdF8ea1p2qXGpJCmmS+KboxrIotXutSvNTgW3u1iaN2jlnEhxEojcWqBcfUJ72517VfFza94mjvotZurMWceh+PPI8lNQePyhqcerCzVCFDFlQQqeNuBiv0Ropp8rTXR38+i/JLf/gETTne730/Vfd02Pj79oTwf468XWvjDUfAvi7xV4F0a61GzkvJ9Y0zT3sri5Sa3tR9ltZrb7WwHkBmkkljjO1DEJkkJV3jHwT4jt9D1Sx8Q2XxJ8ceL7zUtEedrN7SEXNna3qOWsb+xiso4MG4kJ+0PBL8rsPkXefr+is4x5ZqV9Fb8Hda/JabWv1dyqn7yLjtdNferf15nxbfLZ/DX9mDxaviHW73wLda3Y+K9Ms/CfjPVRLe30sl5eSWojaS4kMtyRNgvG8pmEqZZ8RsO5+LfgnXPHniLxppOgaf/aOpKvhS5+zHWZtH/dxXlzJIftcAMsOFVjujBfjgE19M0VvKo5O77p/c0+vmvuFWXtt+8n/4ErP0srWPj/wHoyeBfin4a8Larq2ir4vvfHL6+/hu08YXXiO/s7MeHZrYSzzXiJclS8YwWTaokRQegr7AoopSqOain0Vvu0X4Fyk5NX6K34t/qFFFFZkhRRRQAUUUUAFFFFABXmvw38A6ZdfDvwtO91rSvJpVq7CPXb6NQTCp4VZgFHsAAO1elV4F4X8T69p3hWOHR7q40c2Wg6Ndyzazpq6nZeU8LI08EcV5HKqgREOrbcGPcqNuYkHbRvseq/8ACudK/wCfvXv/AAob/wD+P0f8K50r/n717/wob/8A+P14xq2q/FTS9H+Kl6ni7SNQm04wtajTrB7Bkf7NbyZged72NQVLDyzC293yHTOR5bceMtau9L0aXUNO8RjUtT06O3igg8VeLQIL39/LIFeysZIrhyv7wqGOwIVX92imlfe3S343/wAh2287/hb/ADPrn/hXOlf8/evf+FDf/wDx+j/hXOlf8/evf+FDf/8Ax+vE/HGua3N4cubS5n1WzMWn6XOs1rrFzayXavHOS8qSmzktXD27b0NxGGU/OyHO3zj4P+MNVg0nVNRuNb8R62kemajLNcaL4jj1HyvJntHSVBLq95DvhSQsylkLI2wpLn57Ueabh2bX3K/9fiR0jfrb8f6/yPrP/hXOlf8AP3r3/hQ3/wD8fo/4VzpX/P3r3/hQ3/8A8frxTxp4n8aeLvER8K2Hja3sJYdRSGbb4I1nT/LRy8a5vftsccoJOR5bDeV3LwDX0H4ftNQsND0+21W/TVdThgSO5vo7fyFuJAoDSCMM2zccnaCcZpLWLl52/BP9f61sN2ko+V/xt+hj/wDCudK/5+9e/wDChv8A/wCP0f8ACudK/wCfvXv/AAob/wD+P11FFIZy/wDwrnSv+fvXv/Chv/8A4/R/wrnSv+fvXv8Awob/AP8Aj9dRRQBy/wDwrnSv+fvXv/Chv/8A4/R/wrnSv+fvXv8Awob/AP8Aj9dRRQBy/wDwrnSv+fvXv/Chv/8A4/R/wrnSv+fvXv8Awob/AP8Aj9dRRQBy/wDwrnSv+fvXv/Chv/8A4/R/wrnSv+fvXv8Awob/AP8Aj9dRRQBy/wDwrnSv+fvXv/Chv/8A4/R/wrnSv+fvXv8Awob/AP8Aj9dRRQBy/wDwrnSv+fvXv/Chv/8A4/R/wrnSv+fvXv8Awob/AP8Aj9dRRQBy/wDwrnSv+fvXv/Chv/8A4/R/wrnSv+fvXv8Awob/AP8Aj9dRRQBy/wDwrnSv+fvXv/Chv/8A4/R/wrnSv+fvXv8Awob/AP8Aj9dRRQB5p4W8A6ZNrnjFGutaAi1WNF267fKSPsNq3zETZY5Y8nJxgdAAOj/4VzpX/P3r3/hQ3/8A8fo8I/8AIweN/wDsMR/+kFnXUUAcv/wrnSv+fvXv/Chv/wD4/R/wrnSv+fvXv/Chv/8A4/XUUUAcv/wrnSv+fvXv/Chv/wD4/R/wrnSv+fvXv/Chv/8A4/XUUUAcv/wrnSv+fvXv/Chv/wD4/R/wrnSv+fvXv/Chv/8A4/XUUUAcv/wrnSv+fvXv/Chv/wD4/R/wrnSv+fvXv/Chv/8A4/XUUUAcv/wrnSv+fvXv/Chv/wD4/R/wrnSv+fvXv/Chv/8A4/XUV5d+0euo/wDCtJJLDUL/AEpIb23lu7zTor2WSG2Eg8xjHZSxXDKB94Rupxkk4BqW7W9V+LsNK51P/CudK/5+9e/8KG//APj9H/CudK/5+9e/8KG//wDj9fM3g/Vrjwv8QPDN0virxbr7b5Zjog8NeL4XvofKaPK/b72e3KrJNAS0iqq5Ul14zB8Sb74h+C/iLqvm+J/G3+l3MDwy2s1w2nuSzmGG2jg8P3ca4VgrKZN0jD5w2AaqVo8t+v8AX9fcJa3t2ufUH/CudK/5+9e/8KG//wDj9H/CudK/5+9e/wDChv8A/wCP1yX7Oem+JLLwO1z4h1TWtQ+3TvcwQ+IpTLeW2XYOpZrW2fYSNyK8SlVYLhQAo9VptcrsyYvmV0cv/wAK50r/AJ+9e/8AChv/AP4/R/wrnSv+fvXv/Chv/wD4/XUUUijl/wDhXOlf8/evf+FDf/8Ax+j/AIVzpX/P3r3/AIUN/wD/AB+uoooA5f8A4VzpX/P3r3/hQ3//AMfo/wCFc6V/z969/wCFDf8A/wAfrqKKAOX/AOFc6V/z969/4UN//wDH6P8AhXOlf8/evf8AhQ3/AP8AH66iigDl/wDhXOlf8/evf+FDf/8Ax+sbVvCdjofirwVcW0+pySNqsqFbzVbq6TBsLs/clkZQeOuM9fWvQa5fxd/yMHgj/sMSf+kF5QB1FFFFABRXl/xF/aO8A/C7xxoXhjxF4u8N6Lfagsk066trdvZvawqhKSFJCCd7gIoO3PzEE7SKvv8AHfwjH4yXwwz63/aLXo08XP8AwjmonTzcEZEf277P9mzzj/WdeOvFC95pL+v6uvvQnom3/XU9Bor5K8T/ALa/ivR/EV9Y2Hwu/tGxi1+70K3u92vv5zQTSxGTdb6FPC2TCx2RTSsM4IyrY9C8F/tOHWfh/qGva94Q1nTNTttSn0xNM0fRtZ1MtIkMcqtIo02O4gVhIBmW3XpkbgRlJpxclsv+B/8AJL7ypp05+zlve3z1/wAn9x7nRXgWj/tiaBrk2kLb+C/iHEkySHVWm8D6yx0qVUU/ZnEVo++Ys44X5AquS4OxX6rT/wBpf4d33jnWPDDeL9Atr3TNNj1GaG51SKK6jGJmnjltnIkiaGOFXcMAyiQbguOatb+v6/4bUW+n9dvzPU6K808H/FzUPF2ha7IPC8un+JdPj+2W/h66vFWe7s5AWtpwSo2GVVZdrDCSI6FvlLVynj747eNfBuqeHI18L+Cbew8T30Vhon/CR+M7nSr64kkjLhJLZtMcRycbTGHc7iqjLMBU31S72/HZevluuo7b/wBba/l957tRXnuofFiTwPo+lN440LUbTWrwSF7TwdpOq+JLaLa2Bme3sQRlSp/eRpyWA3BSaxvhj+0p4e+JUOnJDo3ivTbu8eVB9s8JavFaJsZxlruS0SFQQmfmYYJ29afWxJ63RXjOsftPaFoHhfUdXvNM1W4dYri7sLPR9MvdUkms03CC5uDa28gtI5/Ldo2k4KDdnIdUq6v+1l4f0rwP/wAJSPDPih9NhEH22bVLFPD0Nr5o+Q+frMllFKC3y5iZzkrkDcMq+rXa1/nt/wAHt1sV/wAH8N/+B36XPcKK+SPDv/BRzwb4h1zUdMh8OSvNDex2dokPjLwsz3ZeKJxtDasoY75CgERkX5cbg+5E9gvP2jdG03xZa+H7rwh8QY55I2M97D4L1K5srSYFAIXnhhdHJ3nEkRki/dvmQfLuvlei7/8AD/18u5Mny7/1/X9bHq9FcBpvxOvPF2m6g3hfw7cT6hGs32I63IbOwunhuXt5VNzCk/lkNGThk3MGBCkBivmJ/aA+K6+E5PEP/Cs/Bv2JNe/4R4x/8Jxd+Z9o/tL+zt2P7Ix5fnfNnOdnOM/LSUXJ2S/pu35lR9+KlHbb71dfetT6Norya9/aF0Hwj4y8LeDfGus+E/Dfi3V7aSe404eJI38h96JDHH5scMkxlLkL+7Qko+AcV1Wn/EizuNaNldwSWMF1qMmm6VdMrul/JFEXlOQm2MBllVd7Av5TFcjGV/X6C6XOvorw7xV+2V8LfCfibUdAvvGHh+x1TTNag0e9g1TW7W0aPeiPJMqM+8pHvCsWVRuDDPBNdJfftKfDa38Kz+JdP8TxeKtBtpWhub7wfaz6/HasqeY3nfYY5vKATks+0YI55FSpJx576f8ADP8AVa7D15uXr/w6/RnptFeFad+2D4PuL6SK+0TxtYWtzcpBo13/AMINrsi6srW4m3RAWOdwCzfLg5WIuCR06XUfGfxPunN94c8FeE7vw7NElxa3WveJ7/SrwxsgbM9q2kuYGGSCjMSMc4OQKd0rtCPUKK8Q/Z/+PXif41a3rZm8H6NbeD7FfKtPF+geIZNSsNSuQ22SK3MlnbtIicgzIGjLAqrMQ232+nZq1/6/r8tdhX1a7f1/X3BRXB/EX42eGfhXcww+IIvEI81EdZ9M8ManqVuN7+WitNa28iK5fACFg3zLx8wzyHw//aq8PeMPsmn6n4f8XeHvErMiXmm3HhDWjDab5HSOR7h7JESF9jMskvljaCWCFWAS97Yb03Pa6K8J/wCGyPh5d6DeXmj6oviu9W9utPs7PwnDc64J5ow5iWRrGCbyfNVCy7xyocruCNiO6/a+0G88MyXXhvwp4u8R+KIXVLjwl/YV1YahEVjSW5z9qjiQ+TE6kkNtLSQoG3TR7hXkrr1+T/rXtpewbNJ9b/hv+T9bO2zPeqK8Bj/am1e91rT7fTvg74u1KwnJt7ieDUdG3wXTRpNbxA/bvIdZIWZ9yz5X92u0mQY7fUfjXYabql5C+k6pcWml2sb6wdNsbjUrqwupvLMNobezjmMkmxnd9hIjURk5WVWp26/1/X+a7q6vfRf1/X+fZno9FeKaL+1VoGueFdQ1e28M+MJbm0leJbCTw5e2X2g/bBaxrHcXsVvbmRmZCYzICuWB+4xEk37Wfw/0XRdQl8Waxp3w88QWZnU+GvF2tafa3ztGDjaI7iRGVjwGRm5yOoIqJSUb36K/y/X5FRTla3XQ9noryKx/aR8Na34Z0vxBo+paDqGjTaYdR1DUf7ciSz01TlQ0twR5ZjEqvE5Db0IH7tsnbynhf9pvXvEZs761sPhr4i8PHVLPS7698F/ECXWZ7R7iURofKXTUVjls7TIpIBxnpVLWXIt72/G2+2+l9rmbnGMOd7Wv+F9t9tbb2PoiivHrX9qLw3dXWtRnwx8QLKDTbV7tb3UvBWp2VrdIkLSyBJZ4EVCoQr++MYLEBS2c12H/AAsC4uPD2panZ+GdYkl064CS2E0ISaaH5W863ILJODGwdVRsk5Q7ZAyB6mnS52NFc34P8ZL4tvPE0CW32caLqraZv8zf52IIZS+MDb/rtu3n7vXnA5nUvjxo2m/ENvCzaVq08EN5b6ZeeIIUhOn2d9OgeC1lJlEu91aPBWJkBmjBYFsUv5V3s187W++6+btuQpJqUlsr3+Ts/ut+ux6VRRRQUFFFFABXjHgrwJ4qbw3ofiDQPF1rYXd7oWnWZs9U0j7XaRW8cG5dojmhl83fJId5lK4bGzIDV7PXmvw3sfFrfDvws1vreixQHSrUxpJo0zsq+SuAWF0ATjvgZ9BSDpYzPBvwY1zQ9N1fS9Y8QaTq+m6jmeRk0/UDdm5AQRytcXWo3LMqBFwmAOBgjHPN+OP2X7rxpq2g3dxN4BvE0ZIY4G1nwQb65uI0t3h8q4lN6vmR5kaQIFUBlTrtyfWv7P8AGf8A0H9C/wDBHN/8mUf2f4z/AOg/oX/gjm/+TKf/AAPw2/P7g/4P47/kcTq37PNl4o1rTNT1nVXElvo7aVNaaTC1pZ/6mWFHghLusQVLmfCtvOTHhgFIepp/7OEel3HimO0114rDVtMudPgMwury8iaeKCOSaa4ubqUzMFtogiqsaqBjB616D/Z/jP8A6D+hf+COb/5Mo/s/xn/0H9C/8Ec3/wAmU7u9+uv4/wDDgtEl2/r9Dif+FF6ozao58bXcG8QDT7e3sk8mFreTzbaa4MjPNPKsnLlZYkkBIKLnNeleGdJuND8P6fYXd/Jql3bwqk17Lu3TPj5nwzMRk5wCxwMDJrL/ALP8Z/8AQf0L/wAEc3/yZR/Z/jP/AKD+hf8Agjm/+TKP6/r+u3YDp6K5j+z/ABn/ANB/Qv8AwRzf/JlH9n+M/wDoP6F/4I5v/kykB09Fcx/Z/jP/AKD+hf8Agjm/+TKP7P8AGf8A0H9C/wDBHN/8mUAdPRXMf2f4z/6D+hf+COb/AOTKP7P8Z/8AQf0L/wAEc3/yZQB09Fcx/Z/jP/oP6F/4I5v/AJMo/s/xn/0H9C/8Ec3/AMmUAdPRXMf2f4z/AOg/oX/gjm/+TKP7P8Z/9B/Qv/BHN/8AJlAHT0VzH9n+M/8AoP6F/wCCOb/5Mo/s/wAZ/wDQf0L/AMEc3/yZQB09Fcx/Z/jP/oP6F/4I5v8A5Mo/s/xn/wBB/Qv/AARzf/JlAHT0VzH9n+M/+g/oX/gjm/8Akyj+z/Gf/Qf0L/wRzf8AyZQB09Fcx/Z/jP8A6D+hf+COb/5Mo/s/xn/0H9C/8Ec3/wAmUAJ4R/5GDxv/ANhiP/0gs66ivNfCtj4tbXPGIj1vRUcarGJS2jTMGb7Da8qPtQ2jbtGCTyCc84HR/wBn+M/+g/oX/gjm/wDkygDp6K5j+z/Gf/Qf0L/wRzf/ACZR/Z/jP/oP6F/4I5v/AJMoA6eiuY/s/wAZ/wDQf0L/AMEc3/yZR/Z/jP8A6D+hf+COb/5MoA6eiuY/s/xn/wBB/Qv/AARzf/JlH9n+M/8AoP6F/wCCOb/5MoA6eiuY/s/xn/0H9C/8Ec3/AMmUf2f4z/6D+hf+COb/AOTKAOnrhfi38JdI+MOh22j6zaabcWSykyve6bHdTpGVIYW7vxBIeB5oDEDOAGIZdP8As/xn/wBB/Qv/AARzf/JlH9n+M/8AoP6F/wCCOb/5MpWvuNNrVHGS/st/DP8A4S7StYg8CeFLa1srS4t3sE0C22TSSPAyTE7fvRiFwMgn962COcniT9mDwB4mvZL688N6Le6lcasNUur/AFHSbe5nmG7LQF2QHZjAAbdgDoa7P+z/ABn/ANB/Qv8AwRzf/JlH9n+M/wDoP6F/4I5v/kyn1T7f53/NL/hg6W/rqv1ZT+Ffwq0f4Q+H7jSNGZnguLp7yRmtra2BkZVXiK2iiiQYRR8qDOCTkkk9nXMf2f4z/wCg/oX/AII5v/kyj+z/ABn/ANB/Qv8AwRzf/JlNtvcR09Fcx/Z/jP8A6D+hf+COb/5Mo/s/xn/0H9C/8Ec3/wAmUgOnormP7P8AGf8A0H9C/wDBHN/8mUf2f4z/AOg/oX/gjm/+TKAOnormP7P8Z/8AQf0L/wAEc3/yZR/Z/jP/AKD+hf8Agjm/+TKAOnormP7P8Z/9B/Qv/BHN/wDJlH9n+M/+g/oX/gjm/wDkygDp65fxd/yMHgj/ALDEn/pBeUv9n+M/+g/oX/gjm/8AkysXVrXxDD4q8FNquqaZeW39qygR2emyW7hvsF3g7mnkGMZ4x3HPqAeg0UUUAfOP7S2oaxceKrbSPD2hXXjn+0NIm03XdG02BTc6Zpk0ime7WV5Uj3SLEYlt2PmSkb48iGRWzrrxxqF1q1np0HgrxDFo0njmG4j8RzLaJaDJDhGgNwLwPn5SptxhuOBzX0/RSiuVxfb/AOTUvzXrdvW1klO84uL6/wDyLjf7nr3sut2/zv8AGHwK8ReKta0zWLT4f/C28ttU19ro6x4q+Gc9lfardziaUq8VzqUlyYtxlDLcLBtKxeWrR4K9H4w8KXWh/s1eNvDE3hvT9ID61o1zJ4Z0r4f3Wk20M8t5AHRFLaraXm4ImVtI50Ug7kdnxX3bRSiuRNLq0/kuXT/yX8u2tylzzVSWrX563f4/n3Pyqi+Gn9k6tod5/wAIJ/Zvk6vp7fav+EK+yeV/pcXPnf8ACE2ez6/aYf8AfFfUvxa8PWOhePPiLr3jnxLZv4dvNO0oXei6hrCaNZyx/a7tbcR3jMjx3EaRF1HmKjyOwO07JI/rCin1v/X9ee66E9/62PgOx8Q/BzxxofxEtbzVNH8dXWl6bcWdnYSeKr3xbfX1w80iQm0t5ru6LQur6e+2NWBndN22S2AXuZviJ8F/Edn4SbxX8U/BerXDTmHVdP1rWrTT302yNhcwi0NrLKskTrJIgkDDzTJkttCIkf2HRTWjk+6S+6/58z+WmxUnzW8r/ikv0uvPXc+a28M6Z8V9N0e08NeKvEfjWX7LJFF400Pxbqdjo0Fqs8ixeY1leJHe3SqGVvLyzNFmVoQ6Z4r4M/CC0+H/AII0WfXpviJ400aS4mEeqR+J9Yv/ACpPtMieVfaZBOI54WYL80cLKwdxMiqrSv8AZNFEtb26/wBf11J63/r+ultrfefnuvgPVPAfw40nwY9hceGdB1jWLm6TUtB8D61p7amstu8kryaXo2sC6IbCLtuEgWJQqeSABt734Ww3l54J8T+Gba+8d6nqlrrVj/Zd5pel6tZ3cLRRRzgmLxJPdx20a5bLOVSRRhFZwoP2XRSd+bmTtt/5La1/u6WFa++u/wCN7/n5nw34P+GvxSt/EPxM/wCEy8eeKfFWhf2/bf21p/ha00k3CMNPsJcuGsFe7jWJljZrYQSt9nBjt2eYqmL8avB/hPXv2i7jxVqul/bRFCviW/0CO00e41qSK0fTYrLCyWD3kAuGMii1M6tKFIBjYvDX39RWnN70Zdlb8Eut9mk1e/XfRrb2lm2lurP+uny8raKz+D/hL4N+Fnwp8ReLvDHiLQ9C8K+Kri+huL+Xw5etpWq6ZZvpthKUt5rIR3Jge9YW6qhRZHfaAzHYeo1j9nPRNJ+CGl393P460691LxZp14bG78b60Ggiu9fhdVki+17RMscwy5HmCQF9xkG+vsiiqU7SjK23Lp/h+/e3/DkqTUk+it+Ct/n9/kfLfxS8M3fhXxp4f8OeHLXWvFeheVbDW999eapqOi2QvhcyztNcSyvOLhoooRCrCVFjd4w4UhPGPhjoPhf+1fAt5P4T8NGW+1a3L383wu1+01GAmQuJF8TXN04kdCoxIWIkA2r8pAr9C6KwiuVryd/xvb039G21a9jOXvKSfVfpa/rt62V+58Q+PPjB4X0G08OaV4L+P/wS0/wxZa9ayWOmrbrcz2ieYWMs8y6wvm4YlnfYhYsSSCST6TB8QLP4yaXpHhGD4teGPHmp3muQteXHwwvptLktbFI3lcStb6hPMgYxFd4lQHeq49fpWinFcseXzv8Ady//ACOvV3CWruu1vz/z0PGYP2Rfh3a3FjcQv4zhnsYZLe0lj8f6+rW8TlS8cZF7lFYxpkDAOxc9BVb9qTxl4T+H/wCz94t8Oat4ksNMv9U8Nahp+kWOramDeajJ9maNY4vNcyXEhLoONzEuM5Jr2+inuuV7GtObp1I1FutjJ8P2tt4f8KabbR28en2llZRxrBHGI0hREA2hQPlAAxgdMVH4L8VW3jnwjo3iKzt7q1s9VtIr2CG8QJMscihk3qCcEqQcZ4zW1RVSlzScn1/p/wBf0sIx5IqK6Hi/x2n8J3mq2Nnf+IdSfxhZwrf6J4e0VZLu5inEo8q+NnAPMaMOoiaWUiFVZ1Zk3sTw3gnxS2oeLofFHxcupfhB8SbmeKz0rQr7UgbAW+10S0juMi2vmmctNJHE3mL+4U7TEjn6horOMXHZ/wBf5vZt300tY1k1JW6f1+F9V1T1ufm58Xr7U/E3hPQnsvi/Y69c6/4iv50j8I3UsEvkpcuy3ml2NvrVu96omgQCM/bJgzyGJhtWOtPw/wDBHxJ8Rvhbq66TNaeK76yvpLubwDrMs1peWxJnaOWe18RJrQt7ifcXQKlqGWZmeWQFdv6IUU4xUY8q/rb/AC8t/SxzPn5v61v/AJ/h6n5aad+zrKvxE0Xw5odn8OW8ValdG7vdCe+8PyalYRi0MivJbv4RWSyX5IufLK7nHygybx9IeNPhD4o1LxZ4zEXia91HXtPsNLvIJ7aG4t5beCWS7W5jhGnXmnO7yGGGWVjJ+9aIYjwsMcf13RV30t/X9aIlaO6/r1/E/PXwz8NdU1aHx1J4X+ILfFXwtp40xDpvgzVtZm864lvTLcJbyz65PFDcKFV3dzuXerBofmdvX/D91pvwo+G+vav4p1rUPhfYXGoaraR6R8QtcWea+EsAaJftEt3Ksk25CyusspKb09Nn1XRWU486ku8eX77X/L8Qh7lutpc35pL5fofMHi7wjrHizQZdA0mxa61ifwJpCR2j3r6eSy3e5lM6/PCQFPzqCy4yoLACuYtdFPw58Wf2L4g1HRrHxZr+ueHbjT/CqePL3xLqk0FteO8swfUEjn8vBY7VBRRG7ZHzV9jUVUfcqe0Xe/8A5Uc/zduvoYSpKdN032t/5Ioflr09T84YPgv4U17xh4ogt9E07xLfa1cy+Hxp9tBoN22l6jeB5Zvts0Fgkk7WqK0r75pDG8ajEuRIPSfhnH8A9N8C3/hi5+G/g3xIdPudsmm6fotne3V9q/n3qJZCARYN1HDEzHcwMcchZ/LjBevtWihK0eXp5fL126X8t7a79bvX+lf70kna3W1unwd4w+CXwt+G/hTVtE8R+Evgza+OvFWnXNzYeHpLGzTVrS/uGeO2hsUK5uIlJiiHlrFh4ZHBYyYT0XWvBuq2vi3XfAkOgahJNrHjrQ/E1lqkOkTPp4sLRLBpmmuwPKSVTp8qCNmDnfFtUg5H1ZRWtObpyUo9LfcmpJfJxXqhSSkrevybVm/+BsnrqFFFFZjCiiigAr530/8AaW0b4f8AhfT9Fm0bVb650fwrYajM627WsGHjCjNzcCO3VML/AKwy4ZgyKGcba+iK+O/FfwvjvtAtdZuNHvvEFxqXhbSLe2mS2ndYACpNuPKsrsNH8m9klheMlgXx8pGU2+aKXW/32dvx/wCH6O42s2+lvzV/wPTvht+1dpvxPPiUaZ4emVdE07+0JJV1rTbpD+637GFtcSuuTlQQrDg7trfLWJJ+1L4st7H7bP8ADnZaqgkdvL8QJhepO+TQ0jHHdnVfVgOa82+Hvg7xZ8L7DxfFc+BLWx1rUNEaB47W0YQpHLIoVd2laAsc0iCTkCSVsoxCohZl5i6/Zw8fWvhO0v1+FGm2940nlSW6XPh1rmzVc/6Q/kaGHZflztglafkbRu6bxtz3l8On5u+vpa/b7zGSlye7vr+St+N/w7o+u/Enxy0Pwr43g8O31jri7oJppr6PQdQkt4thhwRKluY2TEpLSB9se3DEZrntM/aX03xF4VN7pGj3/wDbUkcM8Fjq9jf6faNDNcrDDI15Ja+XtYOr5QP0bbuC5rjtevPHHiTxVH4iu9C8WnTrdbZWsbC00+bSfsE0drLewvFdQx6hM5CuMJEG3KqhVIdaZpvh/wAX2OieIbDVPC11NqF9dafJoNnOQ9pHpkN9G8dndSwLKsUsfmyGTCsvlkFDL5b7Z5ZW13/r+vkzbS67af1934tDtU/bo8N+HZra11XRk+3JbpcX6WPiLSikAdThYxPcwyu4baCjxRsAS2MAZ+hPCviS08YeG9N1uwZHtL+BJ49k8U4AYZ2+ZC7xsQeCUdlyOCRzXyD4r+GPxQ0/W4oLLRPEcyXyQWd1LpV5MLVDFabN0TQ69Z+Yn7pVDXEEbHuSdqH638Dwz2vg3RLe5s7nT54LOKF7a88rzkKqFw3lSSJnjPyuw56mnHWLb3/4f/gGcrqSS2t/l/wTcooopDCiiigAooooAKKKKACiiigAooooAKKKKACiiigAooooA5fwj/yMHjf/ALDEf/pBZ11Fcv4R/wCRg8b/APYYj/8ASCzrqKACiiigAooooAKKKKACiiigArivi58Qbr4a+E01ay0n+27qS7gtI7TdOMmRtucQQTynHXCRMT+tdrXlP7R2ia/4k8CppfhyQLqlzOFtlWyu5JBOAWidbi3uYDaBSuTMzEY+XaxYI0yvpbuvz1Kik3Z+f5GH4N/aC8R+IPGuhaHqngf+ybXVJ5IPtmzWY/KZYJJR/wAfek20Zz5WMeaDzkA4NYviD9se08NeKdQ02/8AC0VrZQzKltcXni3RLS4uIw7pLKbae7jdFBT5M/fBOfLxg4Vx+zv47TxzoOnXXjaTVNGlsbqa8FyfEE9k8kclsEjnSTWmVi4eTCkhCFk3I/GzT+Jvwi+IHibxRc69ZayNAN5rEVp9n0ttXR5LRDsSaY2uqxREFRyfLRgMDcMZqpbw5eu/32/P8Lsno29rfPq/yX32PVPgz8WH+LWhXd/NoZ0OSGYqiJqVrqEM8LEmKWOe2kdG3KORn5WDD5gAx9Crzj4C6X4k0TwJ/Z/iXTl0ya3u5RaxNuMzwsQ5kmLXl4S7SNKcmdyRgnBJA9HqpWvpt/X49/MmN7e9v/X4dgoooqSgooooAKKKKACiiigArl/F3/IweCP+wxJ/6QXldRXL+Lv+Rg8Ef9hiT/0gvKAOoooooAKKKKACiiigAooooAKKKKACiiigAooooAKKKKACiiigAooooAKKKKACiiigAooooAKKKKACiiigAooooAKKKKACiiigAooooAKKKKACiiigAooooAK81+G/xI8JWfw78LW9x4p0WCeLSrWOSKTUIVZGEKgqQWyCD2r0quY+F3/JM/CP/YIs/wD0SlAB/wALR8Gf9DdoX/gyh/8AiqP+Fo+DP+hu0L/wZQ//ABVdPRQBzH/C0fBn/Q3aF/4Mof8A4qj/AIWj4M/6G7Qv/BlD/wDFV09FAHMf8LR8Gf8AQ3aF/wCDKH/4qj/haPgz/obtC/8ABlD/APFV09FAHMf8LR8Gf9DdoX/gyh/+Ko/4Wj4M/wChu0L/AMGUP/xVdPRQBzH/AAtHwZ/0N2hf+DKH/wCKo/4Wj4M/6G7Qv/BlD/8AFV09FAHMf8LR8Gf9DdoX/gyh/wDiqP8AhaPgz/obtC/8GUP/AMVXT0UAcx/wtHwZ/wBDdoX/AIMof/iqP+Fo+DP+hu0L/wAGUP8A8VXT0UAcx/wtHwZ/0N2hf+DKH/4qj/haPgz/AKG7Qv8AwZQ//FV09FAHMf8AC0fBn/Q3aF/4Mof/AIqj/haPgz/obtC/8GUP/wAVXT0UAcx/wtHwZ/0N2hf+DKH/AOKo/wCFo+DP+hu0L/wZQ/8AxVdPRQBzH/C0fBn/AEN2hf8Agyh/+Ko/4Wj4M/6G7Qv/AAZQ/wDxVdPRQBzH/C0fBn/Q3aF/4Mof/iqP+Fo+DP8AobtC/wDBlD/8VXT0UAea+FfiR4Sg1zxi8ninRY0m1WOSJm1CEB1+w2q7l+bkblYZHdSO1dH/AMLR8Gf9DdoX/gyh/wDiqTwj/wAjB43/AOwxH/6QWddRQBzH/C0fBn/Q3aF/4Mof/iqP+Fo+DP8AobtC/wDBlD/8VXT0UAcx/wALR8Gf9DdoX/gyh/8AiqP+Fo+DP+hu0L/wZQ//ABVdPRQBzH/C0fBn/Q3aF/4Mof8A4qj/AIWj4M/6G7Qv/BlD/wDFV09FAHMf8LR8Gf8AQ3aF/wCDKH/4qj/haPgz/obtC/8ABlD/APFV09FAHMf8LR8Gf9DdoX/gyh/+Ko/4Wj4M/wChu0L/AMGUP/xVdPRQBzH/AAtHwZ/0N2hf+DKH/wCKo/4Wj4M/6G7Qv/BlD/8AFV09FAHMf8LR8Gf9DdoX/gyh/wDiqP8AhaPgz/obtC/8GUP/AMVXT0UAcx/wtHwZ/wBDdoX/AIMof/iqP+Fo+DP+hu0L/wAGUP8A8VXT0UAcx/wtHwZ/0N2hf+DKH/4qj/haPgz/AKG7Qv8AwZQ//FV09FAHMf8AC0fBn/Q3aF/4Mof/AIqj/haPgz/obtC/8GUP/wAVXT0UAcx/wtHwZ/0N2hf+DKH/AOKo/wCFo+DP+hu0L/wZQ/8AxVdPRQBzH/C0fBn/AEN2hf8Agyh/+KrF1bxp4e8Q+KvBVtpWu6ZqdyuqyyGGzvI5XCiwuwWwrE4yRz7ivQa5fxd/yMHgj/sMSf8ApBeUAdRRRRQAUUUUAFFFFABRRRQAUUUUAFFFFABRRRQAUUUUAFFFFABRRRQAUUUUAFFFFABRRRQAUUUUAFFFFABRRRQAUUUUAFFFFABRRRQAUUUUAFFFFABRRRQAV8va9qLL8PIrTV9Mb+xn8L6VHcx6beRTTarYuh85HiuTBFAyBJSZPNfELSkgEAp9Q15R4d+F2k+MfBPgrU5ri/03UE0KztZbvS7j7PcS23lBjbiYDzIUZyGYwNG7FFBYgYqWtU/6/rv5XKVrNP8ArVfpt52PL9Ps9Q021+KA+H3hg/DeytbG2e90iO3sNPkWcIzs8F7aSXkKSeQAWje2L/vImDpuVh84eHfidBoVra22m32sQy21ymonRIPipDhhJcu5j+2x6iyTK2GDQx6eJ8MMvuYO/wB6+HfgnoXg7SbzRdAutS0jw1dWs9u+hRXAltUaX700ZlV5I26/KjiMlmYoWJasmf8AZl8GTRXOLrxWtxcWyWkty3i7VJHeNNxRGV7hkdQXchGUp87fLya0jZVOZ7aeul7/AC7foRPWm4rfX06W/X59+vB+M9Y1lvitpbHxd4k0fWo7WS0lsrDSRe6HYXs5tDBatfHTMmOU4LM7Bx8uDHuAPOeGdH1DU/A2r6HdeJr7xXpenTabpupaPrVnZCxOqSaihu4m8u2SRlHysQ7NlbjLbiRXuviH4I6F4k1rUtXm1HxBa6jeTRXKtZazcQwQTRIixSLbBvIdlMSMDLG/zAZyAAKrfs9+EUs7qwgiu4dIv/LbU9Mkn+02+pyJMkomuRMHMkrbNryE7pFYiQvtQpCStZ/1/Wv4djS9mmvL/g/16nxV4q1ltG1RrCLxaugQaXYWo060stYGnJbMbdSzxwv4gs1V/neMtDB5bDJAySK+/Phr9rPw98Ntfzpc3bafA0kqeaQxKA9ZpZZCcHlnkZieSSTXL6r+zz4R1S90+dJvEelxWMokt7LSfE2o2drCBE0SpFBFOqQoFbgRBMYx90sD3+j6TBoel21hbPcyQW6bEe8upbqYj/allZnc+7MTVRdouL/rf/MzkryTXb/L/Iu0UUUhhRRRQAUUUUAFFFFABRRRQAUUUUAFFFFABRRRQAUUUUAcv4R/5GDxv/2GI/8A0gs66iuX8I/8jB43/wCwxH/6QWddRQAUUUUAFFFFABRRRQAUUUUAFeIftd3vh6H4WRw+I9Qs7WzbULe4NtPNp6zXSROHdIY7/wD0eVwvOxwc44BOK9vrD8XeE7fxppY0y+urqLTZH/0u1t3VFvYsEGGU7S3lnIJCFScYJKllMyXNb1T+53Ki0nrtr+R8MeC/GXws8H/ETwvqnh/A1i3llngW7n8EWVsytE0BWW5sHSaLm4Vto3MwRsRvtO1/xim0DwL8WNeDeIrOe/uLuBp79PEj/annBdkWaM+I7IwiHftQeVtReQwzgfdFz4XtLrxVpmvs8q3mn2dzYxRqQIzHO8DuSMZyDbpjBA5bg8YqXfgLSbmCOKNJrVF1Qau3kynL3G4sSS2cAk9Bj2xVSvJw8v8AP/LX1sTsn3at5dX+dvlc81/ZL0nTLH4ayXek6pa3kF7dSSz2ljqjahBa3G9jJiQ3l2FaQFZGRZmAZzySc17bWJ4T8G6X4JsZ7TS0utlxO1zNLfXs95PLIQF3PLM7u3yqoGWOAoAwBW3VSfM7/wBf8N28iYrlVv6/4fuFFFFSUFFFFABRRRQAUUUUAFcv4u/5GDwR/wBhiT/0gvK6iuX8Xf8AIweCP+wxJ/6QXlAHUUUUUAFFFFABRRRQAUUUUAFFFFABRRRQAUUUUAFFFFABRRRQAUUUUAFFFFABRRRQAUUUUAFFFFABRRRQAUUUUAFFFFABRRRQAUUUUAFFFFABRRRQAUUUUAFea/Dex8Wt8O/CzW+t6LFAdKtTGkmjTOyr5K4BYXQBOO+Bn0FelV5X4O+IUfhHwD4bj1bRtZNkNI082t5pOl3OpifdbjcrR20TvGylTncu0hkIYksqg7HW/wBn+M/+g/oX/gjm/wDkyj+z/Gf/AEH9C/8ABHN/8mV5tH+1Lp62viu/uvC3iO20vRLa4uEvX0LU1WTyn2lJd9ovlMQyNxv2rvL7AnPNeLv24vD/AITuhby+G70O1pBdKt/qunabI3mMo/1F1cRzqAGJBeJS2N2NhD1PMtPv++7/ACT0Ftf+trL9Ue3f2f4z/wCg/oX/AII5v/kyj+z/ABn/ANB/Qv8AwRzf/JlbGg6qdc0Wx1E2k1j9qhWb7PPJFI8YYZALRO8Z+qOw9Cav1bVnZiTuro5j+z/Gf/Qf0L/wRzf/ACZR/Z/jP/oP6F/4I5v/AJMrp6KQzmP7P8Z/9B/Qv/BHN/8AJlH9n+M/+g/oX/gjm/8AkyunooA5j+z/ABn/ANB/Qv8AwRzf/JlH9n+M/wDoP6F/4I5v/kyunooA5j+z/Gf/AEH9C/8ABHN/8mUf2f4z/wCg/oX/AII5v/kyunooA5j+z/Gf/Qf0L/wRzf8AyZR/Z/jP/oP6F/4I5v8A5Mrp6KAOY/s/xn/0H9C/8Ec3/wAmUf2f4z/6D+hf+COb/wCTK6eigDmP7P8AGf8A0H9C/wDBHN/8mUf2f4z/AOg/oX/gjm/+TK6eigDmP7P8Z/8AQf0L/wAEc3/yZR/Z/jP/AKD+hf8Agjm/+TK6eigDmP7P8Z/9B/Qv/BHN/wDJlH9n+M/+g/oX/gjm/wDkyunooA5j+z/Gf/Qf0L/wRzf/ACZR/Z/jP/oP6F/4I5v/AJMrp6KAPNfCtj4tbXPGIj1vRUcarGJS2jTMGb7Da8qPtQ2jbtGCTyCc84HR/wBn+M/+g/oX/gjm/wDkyk8I/wDIweN/+wxH/wCkFnXUUAcx/Z/jP/oP6F/4I5v/AJMo/s/xn/0H9C/8Ec3/AMmV09FAHMf2f4z/AOg/oX/gjm/+TKP7P8Z/9B/Qv/BHN/8AJldPRQBzH9n+M/8AoP6F/wCCOb/5Mo/s/wAZ/wDQf0L/AMEc3/yZXT0UAcx/Z/jP/oP6F/4I5v8A5Mo/s/xn/wBB/Qv/AARzf/JldPRQBzH9n+M/+g/oX/gjm/8Akyj+z/Gf/Qf0L/wRzf8AyZXT1keItbn0GG2uE0241G1aYR3Js1MksCEHEgjALSANgELyAcgHBpXtuBn/ANn+M/8AoP6F/wCCOb/5Mo/s/wAZ/wDQf0L/AMEc3/yZXB6x+0pp9p4l0fS9O8L+KtRjvAzzPJ4Z1a2liUSRIWSN7PDgeaGYllChepJVToeMv2gtE8FalLbXVvcXMUWoiwdrKCe6lUJCs1xN5MMTv5cQkhUsBjfKoJXrT6J9/wDO35vfYP6/N/ozrP7P8Z/9B/Qv/BHN/wDJlH9n+M/+g/oX/gjm/wDkypvCPjnTvGsdy+n22sW4tyof+19EvdNJznG0XMUZfpztzjjOMiuhpgcx/Z/jP/oP6F/4I5v/AJMo/s/xn/0H9C/8Ec3/AMmV09FIDmP7P8Z/9B/Qv/BHN/8AJlH9n+M/+g/oX/gjm/8AkyunooA5j+z/ABn/ANB/Qv8AwRzf/JlH9n+M/wDoP6F/4I5v/kyunooA5j+z/Gf/AEH9C/8ABHN/8mUf2f4z/wCg/oX/AII5v/kyunooA5j+z/Gf/Qf0L/wRzf8AyZWLq1r4hh8VeCm1XVNMvLb+1ZQI7PTZLdw32C7wdzTyDGM8Y7jn19Brl/F3/IweCP8AsMSf+kF5QB1FFFFABRRRQAUUUUAFFFFABRRRQAUUUUAFFFFABRRRQAUUUUAFFFFABRRRQAUUUUAFFFFABRRRQAUUUUAFFFFABRRRQAUUUUAFFFFABRRRQAUUUUAFFFFABXyjqPhu5s/D0U2k+HdaiTVvDGit/aHhd7u0urzUljuEjRpLUpn5CoeSd1iQCIMRlSv1dXmvw3+JHhKz+Hfha3uPFOiwTxaVaxyRSahCrIwhUFSC2QQe1H9f1/W476Nf1/X6HA6lpOs6t4R8XeAz4Z8Q6XY6hZS6lHNeSm7laDyYh9lknVpVlmklWZGXzmcoQ2Tu48V8a/BXUNS166l0XwAj6Jp9vFHfSXunxyvGqwpGI7ZLvQbmYjdkhLV541WNgBGWUV9l/wDC0fBn/Q3aF/4Mof8A4qj/AIWj4M/6G7Qv/BlD/wDFVHLq33S/C6Xns+++o77Jef42b+d1f8Cb4evI/gXw/wCbatZSCxhU27+bujwgAB82GGTOBzviQ+qjpXQ1zH/C0fBn/Q3aF/4Mof8A4qj/AIWj4M/6G7Qv/BlD/wDFVrKXNJy7mcY8sVHsdPRXMf8AC0fBn/Q3aF/4Mof/AIqj/haPgz/obtC/8GUP/wAVUlHT0VzH/C0fBn/Q3aF/4Mof/iqP+Fo+DP8AobtC/wDBlD/8VQB09Fcx/wALR8Gf9DdoX/gyh/8AiqguPi94Es8faPGvh2DIyPM1WBeMgd39WA/EUAddRXMf8LR8Gf8AQ3aF/wCDKH/4qj/haPgz/obtC/8ABlD/APFUAdPRXMf8LR8Gf9DdoX/gyh/+Ko/4Wj4M/wChu0L/AMGUP/xVAHT0VzH/AAtHwZ/0N2hf+DKH/wCKo/4Wj4M/6G7Qv/BlD/8AFUAdPRXMf8LR8Gf9DdoX/gyh/wDiqP8AhaPgz/obtC/8GUP/AMVQB09Fcx/wtHwZ/wBDdoX/AIMof/iqP+Fo+DP+hu0L/wAGUP8A8VQB09Fcx/wtHwZ/0N2hf+DKH/4qj/haPgz/AKG7Qv8AwZQ//FUAdPRXMf8AC0fBn/Q3aF/4Mof/AIqj/haPgz/obtC/8GUP/wAVQAnhH/kYPG//AGGI/wD0gs66ivNfCvxI8JQa54xeTxTosaTarHJEzahCA6/YbVdy/NyNysMjupHauj/4Wj4M/wChu0L/AMGUP/xVAHT0VzH/AAtHwZ/0N2hf+DKH/wCKo/4Wj4M/6G7Qv/BlD/8AFUAdPRXMf8LR8Gf9DdoX/gyh/wDiqP8AhaPgz/obtC/8GUP/AMVQB09Fcx/wtHwZ/wBDdoX/AIMof/iqP+Fo+DP+hu0L/wAGUP8A8VQB09Fcx/wtHwZ/0N2hf+DKH/4qj/haPgz/AKG7Qv8AwZQ//FUAdPXnPxo0OXULHQNQ0/QotZ1vT9SR7SRozvtQyMsjiRQXjXb94p8xAwMsVB3/APhaPgz/AKG7Qv8AwZQ//FUf8LR8Gf8AQ3aF/wCDKH/4qk1ez7NP7ncfRrumvvVjxLwdcaz4NeLxDZeEfHGrQLcahZ28mvXt1dSXENxLutWWKeWW5t0X7PDG5kij2+aHYFQzjpdQ+G40v4ffFKy0vRZJNQvbi4FtJ88Vxd+bbwM7CZF3/PLvJdASGyQMivSP+Fo+DP8AobtC/wDBlD/8VR/wtHwZ/wBDdoX/AIMof/iqr/K3ydn+n47Cev33+ev+ZmfCfwzq/hjSr2DV7AWEkkweNf8AhLNQ8QFhtAJ828jRo+n3FyO/U13Vcx/wtHwZ/wBDdoX/AIMof/iqP+Fo+DP+hu0L/wAGUP8A8VQ3cS0OnormP+Fo+DP+hu0L/wAGUP8A8VR/wtHwZ/0N2hf+DKH/AOKpDOnormP+Fo+DP+hu0L/wZQ//ABVH/C0fBn/Q3aF/4Mof/iqAOnormP8AhaPgz/obtC/8GUP/AMVR/wALR8Gf9DdoX/gyh/8AiqAOnormP+Fo+DP+hu0L/wAGUP8A8VR/wtHwZ/0N2hf+DKH/AOKoA6euX8Xf8jB4I/7DEn/pBeUv/C0fBn/Q3aF/4Mof/iqxdW8aeHvEPirwVbaVrumancrqsshhs7yOVwosLsFsKxOMkc+4oA9BooooAKKKKACiiigAooooAKKKKACiiigAooooAKKKKACiiigAooooAKKKKACiiigAooooAKKKKACiiigAooooAKKKKACiiigAooooAKKKKACiiigAooooAK+Y9B03VrzVtOXUPFOmaR4Yl8H6GJo0hurO9aPdLtijvIb2IxyNIGwwXkMF2nBLfTlePaN8FfCnxC8F+DNV1exL6iuhWNo9zG2JHtRFua33EEpHJ5jCTy9rSL8jEp8tS1dr+uhSfutd7fg0/wBPv7bnlWsaLdeFPhWZZPFPjET6h4Be51Fvt15rM0l03kYYQT/aViVt0quyIoVWY7lxuXj/AB18Wo7rxJGNT1vQrTW9FnTTVuLz4mPo+opDHBHczRXEFlB9n3vInlORvXzBsX7qsPp+++DJ1SPXheeMvENxJq1sLASGOwU2VpvZnt4QtqF2uG2lnDvhRhgRmr03wns76e4vL7W9avtX3N9h1OS4SOXTF3blW2SNFjUA4BLoxkUBJTKg21o5N6rR6/LVtW9E7dFutt5sm7S6/dtFP8Vfvt8vNPFvj1fH/gfxlr9trWrafpVvoFvFa/8ACOwm/JkuYRPI+xYpVlUgxR+YYz5aiUgpuYjw74heIIfDfiCS21fXLx7i4srS51HS/FuoWEYmJhQBJbWHXrC2uEKIikfZpFblWd/uj621f4V3GqR30S+K9Utf7T0tNN1K8jgtjd3LI3yTAmIwoxR5UfEOCHXbs2DLda+B/h7xBqV/fXN94kglvI44nj03xHf2EQVIxGP3dvNGrHAGS4Yn1xgVlJNNuHf8Pe/z/wCGKi9IqT6O/wA+X/Jl3wPdajZ6R4Q0+305b3RpdHEs2rIIbRYHVYvKiW1TO1WV3wFJCCIAk5BqT4uXl3Z/D3Vm0+/vtN1KRFhtJtNjieYzu6pGgEsUiBWZgrMyEKpZsjGRoWPgXSLC90O+EDy3+jWD6bZ3Ukjblgfy94KghSW8mM5I428Yya3ZoxNC8bZCupU4681ddKako9b/AJv9P6fWaPucvN0sfIfiC18Uyfs36dZT+NPEdrrJ0NRPpax6ZJayWqRo7z+YbFZDH5ckcYK4IcqpyQ71f8TeJtT8J/tGW+l6nrIutOsdGmmm1jVfEEtnGcrD8txJBp4itiWRHMQkVTvRgRv8t/adS+Buj3mjjTrXU9U0uGaC3s9RktjA8uo20MYjjt5XlicpGAGO2Hy8NJIwwzsT1o8JWC+LI/EMatFfLay2jLGFCSCR4mZ2GMlv3KAHPT8MaTkpVeZbXl+KaX5/frba2Ki1Fx8o/g03/X/Bv88R/ELSNb8L+PU0vVtW1aWLRLe5h1OzlvLqEGJpiEGoaeYxLtO1QqTCWQKQ2X31wun6Xa6lNcS6veeJdZuI9RuvDVjG+qeJdI+23E9la3EEUlvdXks8SsxkDEsEKIHIIANfW+seA9O12TVWubjUov7SSBJjp+oz2UiiEsV2SwMki53HOG5HHTOeSvP2dPC920k32zXFvUVDZahPqkt3dafMrFhcRTXBkcydFzIXAQFAoR5FeNHJuS3/AM/ztdfibQ9xJLofL37UHhexi1y6tNP0W112G08Hwz/b4dJGozyyK1zGztdyaXqEpAEUYBkuIduPvk5ZZfAelJ4e8G/F+N9NuvC88Hh21MV1o/hSOK/Ima6DoR/Ylm7QuYYwxMLqgDMJVIJX6Tvv2bPD2uW+mWOuavrmtaPpkCxWOnSXEVqLdwqq0q3FtFFcFn2ksplKEtnZ8qbdS++Euq6ppup6dffEvxZd2F/A1s9vJDpQCRsRuCstiG5XKZYk4Yn72GDi9Gpbu+vz/rv+hpzRTi0tFb8OX/Ly3+Z8v+Ovi1HdeJIxqet6Faa3os6aatxefEx9H1FIY4I7maK4gsoPs+95E8pyN6+YNi/dVg/4sfFq+1bVPF2t2ut6ho2mXOi6Xf2Vxp93JbWk4GJEgNyYrQNlvtSlotRXcHKpG8isq/VU3wns76e4vL7W9avtX3N9h1OS4SOXTF3blW2SNFjUA4BLoxkUBJTKg21V8VfBHRvGVqJNR1TWxrv2BNOPiCzvja3hRS5DYiVYQSzszARhW+6ylflrOV3Gy/ru/v1a2v1d2RC0dfl91v0ul5dEfIXwU+IV7pB8VHw3rt/reqW3h+SWw0+fxJDeRteSrE011JEur3QKpJ50x2wAgO4Zi21T6D4s+IEWg+JvDlnbfFTwF4atNM1O2s4NG1iVbuawSGymTz5gt9EEDM7AqVDfNHufI2V71pXwS03S2lc6zqt3LcadPptw84tv3iShQWULAFgxtHyQCONj8zo7fNXV6j4VtNT/ALC82SZf7HuVurfYwG5lieIB+ORtkbpjkD6Vq373lp+Df6fn3SJ+zbq+b8Ypfn93oz5z+Il0l/4g1O/fxb4c8aS6n4OjurLQ9YS0/sHVGjkYs0caxSzyRqw85UWV23FV34IIofBqPUfhfqnijStF+HHhTQfE93Z3F3dasmqv9maS3FqTG8dvp8SJHGt5gLEPmaFwxLEyn6N1r4a+Htamu7r+zrex1S5lS5fUrSGNZzcRoyQzPlSsrxBsp5quFIUgZArI0H4N6boN5dyrq+rXlvJYS6dbWt3JCyWccrK0zI4iEkjyOodnmeRi2Tnk5xinGLS7S/Hma283Z97X02NLptN91+UV+l193mfNFj498dwzWviNLBYfF80sZufE99Y+IhYzWzMP9Ga3bRUjjtQDlAJVZG+dpWLSGTufF+v+PrX4nSavbQ6rBqFvfadovl20umzaDEs6W7yW7ySxrfEtJJ/rI0AI8vONpA9Nb9nXwv8A2bHZDU/GBjRFQeb4w1SZDtxjdFJcNEw4+6yFT0xjitHWPgroOteLG8Rz3uuJqB1C21HyYdWnjtPMgEYQNahvJcHylyzIX9GGFxt7vNHsn+Gl/vV/6bvi+aUJp7uOnr0+52t/wx5M8OteFvCV/o+j+OPE1zLcaNeeXZ3tlpqXFpqS3EC7DsszgO87b3fzQVfzFYjDnL8O+B7fVtCsdU8V6Tb6x4j0nSfDy2up6nDa3Nxasb6Zh5EscMe1dhTGEVsY3ZOSfe9K+HJs9e1LV9R8R6vr9zd2z2cK6gtqiWUDvuaOHyYIyQSE5kLn5F565hh+E+m23hXUtEg1DUIWvmidtSDRNcxNEsawlN0ZT5BEmAyEcHIOTmYytF6au34OX42a/LzdPdLpd/daP4XX6+ngHxN8T6rD8ZvEWq6Rq0ep6Rp+jyXUd9ZaZLqh0m7EYjxAHu5Y4rgI6sXitdpWba6kturpP2b/ABNd3HjO+0tPEnirWLGaTWbqW38RaCNPQSJfRBJEf7HAWciV96BiFJAKpwK9p8K/DvTfCLae9pLcTT2lkbJp5vLD3OShaaXYigyMYxkgAew4xqeHfDtt4ZtbqC1eWRLm8uL1zMQSHmkaRgMAcAscd8dzRT9xRT1smvvbt/Xkhz95t+a/CNn+P9WMzwj/AMjB43/7DEf/AKQWddRXL+Ef+Rg8b/8AYYj/APSCzrqKQBRRRQAUUUUAFFFFABRRRQAUUV5H+0ReXNrYeFvsmpa7YznWbZli0e1t3ilAlQkzzTwvHCqjLAs6buQN5wtK6uk+rS+92DWza6Jv7lc9cor4a8P/AB402H4j6P4qu9a8KxXF1dQSatFpnxPuZEumnlWzU/YTCsBWCPMhTAO1I2MmQ27I+IEPxA1TTvFmoaff61fae3i1LiO+1Fr9IYoIraKYSzQ6NBHOrMI4NruHRVII8qT5mOifr+Din+dyra2/rVNn35RXz5+xho/iDSvAOunxGlwL19WlaGR31kQywuqzB449UIkX55pFLKih9oJLsCx+g60lHldjNO+oUUUVBQUUUUAFFFFABRRRQAVy/i7/AJGDwR/2GJP/AEgvK6iuX8Xf8jB4I/7DEn/pBeUAdRRRRQBxWv8Axk8H+GfiLoHgbUde0+18T63FJNZ6fJeQpMyp0Pls4c7sMFwpyUf0rK8I/tBeE/GPiz/hGreLXtP1aRbqW2GqeH721try3t3VXuILp4hBLEd8bKyyHKyIe9cH+0h4X1/xP410K0t57rUNHuNB1mBdA0SOO21C9leFEZDeSzoiRsHU4XynDJnzcEofEvg3qM158UrbUNA8GfE281G2ubWI3V58QYb+3ls4VMV5lJdakS5jS4kfOxZBG2V+ST5axpz5qjg+6X39fRbvXZ9Cqlox5l/Vunq+mm66n0brn7ZXwQ0J7FZPir4Nu/tV2loxs/ENlL9nLZxJKBLlYwQAWAO3cCcKCR3Hgf4veBPidNdxeDvGvh3xZLZqrXKaHqsF60AYkKXETttBwcZ64NeR+DfhHr/xIh1Hxu3xY8ZeH7vXnu4AmiWuixRmwW5mFoFdtPeRsRbSjs7Ou9iGG41uaz8P7L4RfBTxbb+JPiv4yTwrb6UUfVQljb3ejwop3S2z2NlG/mYOcsJDkAgZJzvFX0f9eX9enS7neVo7f1/Xy87L26vL9U+NWpw+Jtc0jRPhd4w8Vx6PcrZ3Go6XcaRFbmUwxzbVFzfwyHCypklAM5xmvTYcGFCrF12jDN1PHWvjX43fC+H4ieKdXC+B7rxdKvjWSG5l0nQtD1C+t7Y6LbvhX1eNreKMypFuOVJIAGScUlfma7K/4xX6i5lyp97fqfR3gv4p33ibxM2hat4B8S+C7trN72B9cm02WOdEdEcKbS8nIIMqfeC8HgnFd/Xyl8Evhp4g8A2+i6NommaL8PvFlxp+tXO3U9A09sw/2nbCB7q20mW3geY2qwqWicAEDOcEV6x/wjnxv/6KH8P/APwg77/5c1pKKSVvP8JNfoJfFJdn+i/4c9H13XdO8MaLfavq99b6ZpdjC9xdXl1II4oY1GWd2PAAAJya5j4X/FjSfitpt5c2FnqekXVnKEn0vXLQ2l7EjDdDK0LHcqSph0JwcZDBXV1XPtfhTc+JLrStR+Ier2/i3UNNYS29jY2clho8cyyF0uPsbTTGSZf3eGmkkCNGHiWJixPOeBtAb4teA9I8Vape3kHiy1ur+CLVtMaO3mkgjvZkFtIpQxSwsiBSkqMufnGJFVxnsrv+v8/632Bu8lBf1/lv+mm5seKv2iPDPg2zW51DTvE1wjatJo4Gk+HrzUsTJMsTMxto5AilnG0MQz8hVY8Vit+1l4Pb4Z+IPG8el+JYtL0S5S1uI9X0iTRi7NdG1BSbUPs8BAcZYmUeWOJNjfLXw549+COnfDHwVLqM/h3RZRHr+qz3um6Z4MSWJJDMVjgW6XRdQt9itL5UKTwxsAfkkUFlru/AVvfWX7MfjO18MeGdQW11PVLHXhqmm2KaHY2FnF9mlNyZ5bfw8jgrbSHda/MPlLSqGDVlRk6lHmfaLv6qN+/d9fyN+Ve1S6czX3N/pb9D3PRP+CgfgHXPEGjaRFps/n6pqFtpsJt/FHhm9YSTzJCh8m21aWZlDOCdkbEAE4wDXpvjr41az4EbV5pPhL401bSNNVpH1bT7nRvImjVclo0l1FJj6BTGGJ4A6V8RzQ+OP7Y8ANK2t6t/auradq2labceK1P9tQW93BcSG1W58a3UU/yLkfuJBkr93Idfrz4p32s+P/h/4vnvdFvvDnh3TNMmZbXUggub68EZJJCMyiGFuAwJ8yRdy/u0R5urkTgmnZ3afp7v63Wnz7mN7Jv+v6f6XWzNb/hfWrWeg32tav8ACLxzoWm2tmbvzL+XRi0p42whI9Qd1kYsAA4VQc7mWp/+FyeLv+iE/ED/AMDvD3/y1rn/AItf8JzonhDxTp+rmz8SeGbqMzWusQhba8sSZVYQXEP3JUH3UmjIblFeM4aZvER+zXFqXxkuL6D4QyfYE8VDdcTeFPCEeiNp4mUyPueEakzbNxDjJL8glaxi+atGnsmt+2qWv3/crkybhTlLdrp30b0+773Y+lW/aU+G+k6Ro934q8YaF4DvdTtRdx6T4o1izs7xELMh3L5xU4ZGXcjMuVOGNZnhH9r/AOC/jO1s3s/if4Rt7u6ma3j06616zS6MokMewRiU7ssPlK5DAqVJBBrhJPCl78W7HwJ4MtvFOpeHtBGk32sX0mjW1jLMZ4723+wur3VtOIyree6NGEcNGGVvl47zSvgHrel+LP8AhI5PjL481C+ZYopY7y30MxyQo27ycLpoMaMT83llC3BzkKQQalCNR7O/3JtefVNfj5Fy00jvZff+HTX5mhqHxn1mPWtUstH+FHjLxNa6fctaNqem3OjR28sigbtguNQikwCcfMg5Bxkc1o6J8YrLVPBtv4gu9D1fRDJrC6HJpl8LdrmC5N2LT5zDNJGVEhBysjfLzyeK+LJPE3gbxdP4m8SavpnwI8feILnwtqvie/U+F47m+0e7t3tUjjv5JL6Z2TbM4KkQf6k428gdTDZfD3XvhPqOhzWnw3+JHhPwz4r0eawPgXw6J7NGu72N7mCK2+0XnzkMwKRsAVk27AKqEXy03L7XL/6Uovb5207WYVLRlJev3Wdvnovx6WPovxJ+1X8PfCOsa1pmqt4pt7rRYWudQKeC9alit4Azr55lS0KeSTFJiUMUOxiGIBq742/ae+F3w38XaV4c8UeN9C0DUNRga4j/ALR1O3gES7QyearuHiDruKsyhDsK7txVW8fvI9L1z4Z/G/UtB0GHwtoNv4PXwpBpttHCkFrNBHevNCghzETE16sb+UzIJEkQMShNeZftYaPc3us/EzUrfxB4p0m2bTVgNna+EvGL28zRW2xi1xZXFtYlSRje6TLjqxX5QT9xwS1v+Vt1+HXqaNRl8L/4D93068y+R9XeAf2lvhx8TtL8U6l4b8U6bq2n+HGlN7NZXkNy3kxg7pxFE7yCMskiqXRS/llkDIUZol/aI0rVF8rw94P8f+IdTYZisP8AhEL/AEvzB3IuNRjtrZcDJw8yk4woZiAfmnwik3hPSviVNd6x4o8ST6x4UfTLEap4U8XWCi4PmhIvO1ia6Vd7TRqoSVCWONjHBqDxF4s8JeHvFGvaI3iXQ9JbSL2SwMHir9pLxDpN+3l4G9rXbJ5YbqvznIwe9RzK6T0um/udm/8A0l/PQjdXj3t+Ca/X7j7l0XUJtW0m0vLjTrrSJ54leSwvTGZrdiOUcxO6FgeCUdl9CRzVuSRIY2kkZURQWZmOAAOpJry74O+NPD9v8JfhteebfWI8W20E2n2mpavd61cNNPbtdGL7VOWlkCosh3uQAqfwjAr0+dZGhkELrHMVIRpFLKGxwSARkZ7ZH1Fa1YuEpRtqm18+2/6ij0ueLN+2f8G10GfWB8QPDr2MWrpoxkXWrIgyNKEEoPnY8rBMm7Odis2OK77/AIW14RuvBsPijS/EGn6/ot1J9nsrnRrqO7W+n3FBBAyMVkkLgqFB6g5xg4+ZxY+KLHUdN0TTdcm8YeJr7x3e6td6PdCK1gazsp1nkkiKKfs6rKI0Vn8wu1yscj/ckiv+IPEWo6ho+s+HNIFrpt/Y+KHudanvIBLdQWN/qzwfZ7d0ceVLNGZAZQTtTO3LEMmFKSqU4a6yUX8moXe213LW2lrWbshtNSfZO3o7zST+6PXW+63Pc9e+KHiXR9YuLK0+EHjPXLaMgLqNhd6IsEuQCSom1GOTgkj5kHIOMjBPoinKgkY9jXz/APEr4G+HtL1Twp/Z+r+NtOXVNfjtZ7ax8d65BB5LRTO0ccKXgSJBsGFjVQoXAwBiverGzTT7O3tYmlaKCNYlaeV5ZCFGAWdyWY8csxJJ5JJq4yUovydvwT/X77ku6kk+qv8Ai1+jJ6KKKYwooooAKKKKACiiigAooooAKKKKACvmPQdN1a81bTl1DxTpmkeGJfB+hiaNIbqzvWj3S7Yo7yG9iMcjSBsMF5DBdpwS305Xgug/s8aF4+8I+GtZ1nVdUnv5vD9nZLKq2oaG22bjDG3kblRt7K4BzIh2uXXipau1/XQpP3Wu9vzT/Q4PWNFuvCnwrMsninxiJ9Q8Avc6i32681maS6byMMIJ/tKxK26VXZEUKrMdy43Lx/jr4tR3XiSManrehWmt6LOmmrcXnxMfR9RSGOCO5miuILKD7PveRPKcjevmDYv3VYfUupfCBNXku3u/FWuSG6sG0yXCWSg2zZ3RgC2AXOeowenPAqHUvgrFq2tWur3Xi/xJJqFqsa28yzWyeQEfd+7VYAE3dH2geYoCPuUba0cm2mtNX8tW1b0Ttba2nrOjvzLf/KKf4pv7vkzwr42Gt+NPD13ZXhutJ8V+Hn1WOFLgTwQSQPbqTE3o63Sg44JiBwCWJ9Krim+G9xJrUWrN4w11tQit3tUmMdj8sbMrMoH2bAyUUk4z8o9Kvf8ACI6r/wBDtrv/AH5sP/kWhtdFbf8ANtfhYSv18vy/D+mdPRXMf8Ijqv8A0O2u/wDfmw/+RaP+ER1X/odtd/782H/yLUjOnormP+ER1X/odtd/782H/wAi0f8ACI6r/wBDtrv/AH5sP/kWgDp6K5j/AIRHVf8Aodtd/wC/Nh/8i0f8Ijqv/Q7a7/35sP8A5FoA6eiuY/4RHVf+h213/vzYf/ItH/CI6r/0O2u/9+bD/wCRaAOnormP+ER1X/odtd/782H/AMi0f8Ijqv8A0O2u/wDfmw/+RaAOnormP+ER1X/odtd/782H/wAi0f8ACI6r/wBDtrv/AH5sP/kWgDp6K5j/AIRHVf8Aodtd/wC/Nh/8i0f8Ijqv/Q7a7/35sP8A5FoA6eiuY/4RHVf+h213/vzYf/ItH/CI6r/0O2u/9+bD/wCRaAOnormP+ER1X/odtd/782H/AMi0f8Ijqv8A0O2u/wDfmw/+RaAOnormP+ER1X/odtd/782H/wAi0f8ACI6r/wBDtrv/AH5sP/kWgBPCP/IweN/+wxH/AOkFnXUV5r4V8LanJrnjFV8Ya1EY9VjVmWGxzIfsNqdzZtiM4IHGBhRxnJPR/wDCI6r/ANDtrv8A35sP/kWgDp6K5j/hEdV/6HbXf+/Nh/8AItH/AAiOq/8AQ7a7/wB+bD/5FoA6eiuY/wCER1X/AKHbXf8AvzYf/ItH/CI6r/0O2u/9+bD/AORaAOnormP+ER1X/odtd/782H/yLR/wiOq/9Dtrv/fmw/8AkWgDp6K5j/hEdV/6HbXf+/Nh/wDItH/CI6r/ANDtrv8A35sP/kWgDp653xd4PbxY2nf8TrUdKjs5/tHl2K25E0gH7tn82Jz8jYYBSoJHzbhxUX/CI6r/ANDtrv8A35sP/kWj/hEdV/6HbXf+/Nh/8i0gMyH4T21qourbX9bt/ETMpuPEImie7ulGMpIrxtD5ZwcRrEqoWYxhGYmsXxr+zh4S+Iesm88QRtqlpJevfTabdWlnNDJI0UMWBI8DTRDFvGf3UiEnO4sMAdb/AMIjqv8A0O2u/wDfmw/+RaP+ER1X/odtd/782H/yLRZf1/W2mwbGX8Lfgz4f+EC6tF4eijt7bUJVf7PHYWdsIVXIVA1vBG8gAb70zSP/ALXJz3dcx/wiOq/9Dtrv/fmw/wDkWj/hEdV/6HbXf+/Nh/8AItVdvcDp6K5j/hEdV/6HbXf+/Nh/8i0f8Ijqv/Q7a7/35sP/AJFpAdPRXMf8Ijqv/Q7a7/35sP8A5Fo/4RHVf+h213/vzYf/ACLQB09Fcx/wiOq/9Dtrv/fmw/8AkWj/AIRHVf8Aodtd/wC/Nh/8i0AdPRXMf8Ijqv8A0O2u/wDfmw/+RaP+ER1X/odtd/782H/yLQB09cv4u/5GDwR/2GJP/SC8pf8AhEdV/wCh213/AL82H/yLWLq2g32m+KvBUtz4j1PVozqsqiC8jtVQH7Bd/NmKFGzx645PFAHoNFFFAHB+OfBnw513X7OLxX4U0LW9W1+FtIjbUNGjvJLmCPNyYZHMbYhVot+HITeE/iK50L7RfBnxCkfSNQ0bStfXw5ewstvfaek0VjdLGrxtHvQqsipIpBTlQw6Zr52/aq8C/wDCYeNPFtx/wrvwX44/s/wQJftXiu48qbTP3l4fNtB9juNznbnG6LlE+buur4k+A+haPrmnald+D9DuNdl8SaXeWvjtoIhq9z5l0pnilmCiVHVQVUxkJ5ZVVEYTbRD3uRfzO3z5rL9X27O460nSi5LVpN/dFN/ml+Ox6jffHjwD4PWw0i3GrTOqzQQ6X4f8L6jfyWq2xjjdHgtbd2gC+ZFgOqgq6lcgg1o+G/jp4P8AFDMsF3qWmSLeQ2Bi17RL7SZBPKpaJNt3DEfnwQpxhmwoJYgV8YfGjxFHdeC9TtYtc1zT9J0WDVdCudY1W5ummeGfWlt7dRd3Gp2LOmEx501y0TCF1IkwQOw+EuvG28DxeJb7xjIPD8UmjvfSXgja2u7RmlH+kS3NxfyDywNyyxXZ5UMrbcKGveipPVtpet5NedtLPrvfXZ4NuM3SXS+3ZRT0763XTbp0+uvGXxC0D4fw282v3zWMM5bbILeWVVVQC7uUU7ERTuZ2wqqGZiApI2rPT7OzkuZrW2gge7k8+eSGMKZn2qu9iPvNtVVyecKB2FfGXh/4fjxF8QNG/wCEn07xB4fsLDXZ9E+0ad8XfE2pySStpr3WR5ohaFduwZDAsSykdN31z4Z8Q6Jf6bo8GmakLhbrTo72ziuZ3a6ltcKFlYSnzWHzJln5yw3HJquV2v3t9zV/0v6ehfOn+P4O2nzur99CHw/8N/CPhPXtW1zRPC2i6NrWruZNR1LT9Ohgub1ixYtNIihpDuJOWJ5JNJ/wsXw59gluxqsTxx6gdJdEVmlF4H2+R5YG/fnnGPund93mqHxm0bTNe+FPiu21bStP1mzXTZ7j7HqlnFd27SRoZIy0UqsjbXVWAYEZAr8yLH4PI8P9sf8ACvJGubiyiV/+KGYwYUMwKxf8ICY1JMjZZTlgFBZgq45vae9KH8qT+9v/ACf4ehs46KV9ZN/hb/NfdbzP1dvNYs9Pv7Cynm8u5v3eO2Tax3sqF2GQMDCqTzjpWD4a8WeEh4m1fwToc9pBquiolzeaZaQGJIPPJkByFCFiW3sFJYeYjMB5ilvlCH4fXt7/AMKHuvDGgXOj2KaJDcXMei6td6LYNdT27zNNDY2UkMLvEyySSx7I/OWdU3/KUrc8C2uvz+LvDVjp/jux1u/juHvrPVLfwlLbahcxXULXEk17NJqLKbeQwrDKn2dCsiRCNIvLjKdUo8k5Ql0uv0X9fdfW2CmpJNbtK34P0fon69n694s8YfArwf42TUvFV/4F8O+KNHuJI4NU14WtncQTyxJLKsFxMFJdo5o2cRsTiVd33hmtp9n8EWtfEXj9/BejaImk3h1fUfEOs+EX0xzcRh2+2rNcW8bTEB3InjLZ3nDfNz5/Y/8ACy/D/wAGfH9vaaf4d8YXkt1rba3rGqazNpchm+ZT5MMdlOHRUAVA8ikLGiknG6pvG2jfFTxn8L9AbUfAPg+/t9PW2mi0mCVvEiXg8riSW3u59Jt08vCsN8k+GIKqpQMeOnUcoXhpaMGvLmu9uytfz30sbyS5uV9XJPz5Xb8b+dvmejJ+0N8CfihZxeHm+I3gDxLDrgW0XRLjWbKc3vm4Cwm3ZyXLEgeWVyScYzxWrqnxq+FEPiqT4dah4y8LDXTbyLL4dnvoC6xois8ckROF+Rg2xsEoGIBVWI+WPBK+NLuHwf4rjt/iD9ja9W00W8+IQ0HX9Asorm62W13Fb2d/a3PnEOipNumMcUsiIZEIesD9ozVPH6/FbUxqGqeOJtI0W3MV55NrBHbTxTSQzEQG20O+gjtcwD93qF0HZRiTamWk6+X3ox2u2vu27a66rz0MZvkhKUuiv5efy03R9V6t+018Lr6LU7C/udQu7WFZ8i58NagbS+aGZYXjtpXt/Kun85kRUhZ2dmUKCSK4nxZ+1p8FvHHgWOPxZ4Z8RazoF1vk1HS9b8A6hcRWa2zE3ElxHJbGNltpVVJGj8wRyFAeoNYfw11rT4fEWr6Dba7Z+JfEN1p/iC0m0lJY31LTRHqN1IJ2ijIKx3BkRWOxQXjhAJBAX49svh7ZweDhLP4HgQ20K2lxLJ4HX91cABDG7nwE2JN5C4MpO443k81i5LVPWyv66yX6K/rbRmySur92vwX46u3kvu/Tn4e+IvA8ljoa+GtKbQI9RtWttPtJvD9xpMptrXgR+TNDG6Rp5h2BlC4clMg1L4U+Onw78deJr3w3oHjfQNV8R2U09vc6Nb6hE17E8LlJcwbt+FYEbtuO+cGvmf4gfD68CfCbUJ/DdjpOpab4FuIT4gtNJkv/ABNBOllGggtoFty8UkbyBkkBlKlpB5IzvrH+Gfjh/wDhamn3DeK/in4iudFksdFfTNS+HbJbW1pPAr3Eb+Vo0TWwEnl8h4yyxRli6KMXKSeInSvezt9+z9L76aJryvzwlehGq1a6v6aJteuunpt2+vdf0zwZottpNrq2laXDa3B/sOyjlsUaILNtJth8pVEkMSDacKzKg5O0UvjPxp4H+F9u+seLNd8P+EoNRkW2bUNavILJblwrFYzJIy7yFDYXJ4B96+VPD/7Hln8QLjWfFej+H/g1oFnqU95Y21jdfC4X/lRQXU0UM4LX6x+aVXcWWJFfcNyttXEGsfCZP2VZPAN0vif4QeATJqj23/CRnwWdKgfbp95kXbHVAZ2Yt8n7xApLYDA4EtvkfN0/q39d1o3cuUrO8dVt+O/pr+D1sz6Q17wr8Ib7w34Q8Qaj4c8J6toenPZw+G79dKgvIbT7RNDHbGzZUYRq0jQYaPCj5WyAMja8bePvC2k2+raVrkF5qXl2qSXOlWuiXWpS3FvI3lkpbwxSNOgJAfYrBNw37QRXyRpPwlj1j9nrwFqmq3PiJ7O8h8FyWd5pfjDV7a1xJdWEU0RtEvfKRwQZEkjRQPMUjEke9tf4twXmm+bo2l+IPEGh2snj+a3ln0yDXdUuZo00KJlWRNLuYbyb5kUljKRkbn3V11KfK5pP4XL8HBffeW/W3zHWfslCW95ct/k3+nfT5H0b4Z+Mfg34jeIofDcNnrkWp+S2pQWviLwpqWlq6QSRAyRteW0asyPJCflJYFlPvXfWenWmnrMtraw2yzStNIIYwgeRjlnbA5Ynkk8mvmD9neLW4PEXwzj8QXOr3t+uk+MAlxrltfW91Lb/ANsWX2dmiv5JLlFMXl7VmdnC7QWPWvqeoqU1BK3W/wD6U1+iLlHl/rs2v69TNtfDekWNvpcFtpVlbwaUuzT44rdFWzUIYwIgB+7Gwlflx8pI6VoSRpNG0ciq6MCrKwyCD1BFOorF+9uT1uc/4T+HvhXwHbpB4Z8M6P4dgSEW6x6TYRWqrEJHkEYEajCh5ZX29N0jnqxzZ/4Q/QftGoz/ANiad52pTRXN9J9kj3XUsQURSSnHzsgRNrNkjauMYFa9FNtt3YHN3Pw18I3njS18YXHhbRZ/FtrH5MGvSadC1/DHtZdiTlfMVcO4wGxhiO5rpKKKXkHmFFFFABRRRQAUUUUAFFFFABRRRQAUUUUAFeH2fxI1vQfAPhyLw3p+j31vonh611DXrjW72ezgt7c2u5EjkigmJl+UuV2HCAZ5kU17hXi+h6Lr/wARPh/4a8MS6fHpXg1tIsV1K+uJlkn1OIwRl7eCJSdkbg7HkkIbAdVj+ZZVTvpb+v6+/tcqNvtbFrU/jH4k8I2eu3Pi7w/4e0O0021trkX0PiQvbt50rRhDJcW1socBSwXcc/KuQWFUPDH7QVz4q+Hdnr9hb6Jf3EunNdzf2dq0VybdlAG+SFWysbOHXCuzqxRWH3yms3hHxdN4Z1TwJft9o0J7M29j4isrkLdSWw2g21yjYKSshKCaJmDYZyIW2g81N8ANTuPhHo+kSeIfERubLRo7YaG13bMqzGICRRdtGblRuyPkuAMAKPk+Wrj9p9NLX/7e/LT8PJvGafuq+ut7f9u/nrv5+i7/AMefEi+8Np4hj0fQZtduNH0o384gljUrIxPkoFkdFYbUld/3ilVVcBi4A871j48ePbS+ktf+EEm0mC4jhkt7y803U9Qkt1eNdztFp1rcwTbX3kJ9riYjAOz7x0PGngK403TvG2gWOkeJNdttb0yCSxNhq0y3LTRKIGjku5bhCMAwuRJLmRTKMPtYHzv4jfsq6vr/AIkv5dE8K+GU0qKytrW0juDpkW3ZAFZY0m0e8ZVDZ6SRjOSFH3jhzNK9r6//ACX/AAF+p0W26b/+2/8AB/E+lvDXiaPUdN0RNQmW01q/svtQsbmIWtw4UL5ji3Z3ZAC65UsxTeoY5pfH2t3XhrwN4h1exELXthp1xdQC4QtGZEjZl3AEErkDIBBx3FZHh3w5qljceDpJrDSRDp+itZ3c86Fr+GYiDCQuMqIz5b7xnkrHjOKufE7StR1/wPqek6XCJrnUFWzfdIqCOGR1SaTnglYy7Bf4iAO9dE0lK176v87GVNu0ZNdj5i8TftY+L/C3ibWNKuvEXg9k0uWW3mlfT9PtpmljYhgtvceI45dvGQSoJ4wuCDXr6/HbU9P+IWheDrnw3eavf32hvqYuLJrC1F6yrGwaCGa/3qnMilWyQwB3FAz1y158G9d8U+Kbpv7O8QeGbLUI7zUZ1TxTex6cJZSnl28kNtqAJl3ea8hijSIbyFaTaGbr7v4Z6rNrFrrOl6Zb6fq9xpoVn1S6NzFptwr2YjVNhDOkaQyuEBVXbcGZPNY1FO91Gf8AWj/W1umnmmOW75f61X6Xv6+TRkTftLXtjrHjGPVfCNx4b03w/BZNLc67qWm26QyzMwKSSLeOpJXaUUYyVZWZSVzb8MftBXPir4d2ev2Fvol/cS6c13N/Z2rRXJt2UAb5IVbKxs4dcK7OrFFYffKLofw51XV7HxzaSafqvhq01OzttPEt7PbNeX+xp2uJt1vK6p53nkbiVcFmO1cLWfN8ANTuPhHo+kSeIfERubLRo7YaG13bMqzGICRRdtGblRuyPkuAMAKPk+WnH7V/K33O/n2/Xzxd2o7r4vzVvLa/6M98rnfiB4sl8D+D9S1yHSLvXJLOPeLGxaJZZOccebIinr03bj0UMcAu0Vb3RdRi0OPS7p9DgtB9n1efUmu5CykAxzeaxlLEEFXzJu2vuKELvrfEzw/ceKvBt7plrp0OqzyvE620+sXGlDKSq4YXVujyxspUMNq8kAZAOaie2h0R31PEvHf7Xkng/StDtbnRItH8QahBHM39qavogh2NHJiVI/7VVvLZ0BDFtu043buK2rH9qa0vPHek6BMfDmmPd6cbyaC88S2ZkgJihlXc8Ujj7ryfKqtuAVw2zcR5c37NPxKs9G0O4j1CYXGn2VoHsLTUdSaUukdyWjWQaxArshkSMMSmd3yGNAUHqPhH4G67a+JPCurXms6xpN5Z+E00prnT7uMLZSqtuoh8l/MjmyRcOWdHGSOflStI6yd+7/8ASX+tvnt2eVTRe72X/pSX5fgddefFTWLXw/4k1T+x7FH0mxtrxbW4vJDG6uZN7Ca3inZ1KoGj2RFmDKCqkkL5je/Hj4h+KJJf7K03w/4bt7S2vReSX+rX1o1tLCltPuljvNHSQARSZwEIZZGO5SqmumufgPqFhH4uS0uNR8QXOpafDYwyalrzaVDKrNIZj5dnAYYnUMNrrbbskncCzNXKyfBjxxp8kk0GjK1vb6rFr9zpx8TXGpzaoRElu9jHeXXluytHCkhE6hNypHko7NHOjk+35a/ira97lw91Lm1/X9F+Xc6Txx+1PafDzxD4d0jWLbTDezad9t1iCDWrO2NtI4XyY4mv5rTdnLs2V3qoTKDzAa6vT/jtbX2na5c3Xh3UNAfS7O0v1Gs3liIryK5d1h8ia3uJo2ZjGwVWZdzMg6Nkcl4k8D6xfy6Fq2u+EfE2t6hd6WyalD4P12PSZI7lmUkXBS9tVmGwKgIaQfuz0BBOX4R8J/ES8i1OzvPCktjDJp1tYxi41E6Aiw2zf6PDFcWOoX1wrASTM7tgMFRcDLGhe9F6a/8ABf6Wt0aDaSXTT8l/wU+2nmxniT9sqx8LR6ILzSTFJf6hMrLeXun6dILRbi4iXMF5eQzRyfuV3NIioDuGQeB1XxG+I3i7QPAsvjnT/EXhrRdEntYprHSdW0U3l1JLIg8uH7TBqSwuXY8MmVCnO4gFq8ps/wBnHx5p0Wp31t/a1lLNdSJe/Y/GOpre3EAllIksIzeiONmDGVRdzygyXEhYIE2Seu6v8IZ9e8J399df2pf6pFoc9loOjaxcrLJpry2xjYySmWQTXLksrTtKwCnau0Fy7UU09d39y7f1/wAPW012/wCDv/XQv2OueP8AR/A+seJdZ8ReEtaSz0m5uFtdF0aeJUuokJKmY3sodFdHQgIpJHVSMV5tqvx+8W6ZY38qeJLW6vrOzN61hJ8JfENtlMNt3Svc7YkYow8xhtGCT0Nev+JPBc+hyapr3g60kh8SalELea3juFhs55XKot3cIeC8S8l0HmOqhDuwgXy3UvC/im68XRTeIvAnjXWPsOjW2ljUvCPi2Oxju5I3lZpSf7QtZXDB0OJVJVt4GR87Cl797f1q/wDLfv1s7RtC3X8/hX+b0/yv7nbeJy3i+fQLm1+zyGzW+tLgSbluY92yUYwCrRsUyOQRKhBzuC71efaPZXeufETR9Vk0rUdIttH0KS1KakyvI0108DmLeruJGjW1Xc6uykygBmIbHoNGll8/zf6WH/wPy/r8uhy/hH/kYPG//YYj/wDSCzrqK5fwj/yMHjf/ALDEf/pBZ11FIAooooAKKKKACiiigAooooAK4P4zeLPEPhDwlBc+FrSK+1q5v7ezhhlt1uMiR8NhGuLdScZxumQe/au8rzD9oT4f6n8TvAreHdNluEN+5glAhsJbRQQSJblbqGUlEZQQIVEhbbyoy6zK+lu6/MqNr6+f5HK+G/iF8WrHxTpH/CYaHFpnheSWRdQ1CfRrW0S2jEEjq7TRa1dbBvRFy0W35sbgSKxda/aC+JOl+MtYsY/COj3FhbzxiG1jtNfuLqKIM4JnkttMmiDyqEdVB+QHnzMg1Rg/Yp0bSPiL4bvrC7kXTrOzuXlvU8P+Ho3iuVltjAAq6cMkhZjv2ll2cOm47tH4qfssy/EvxAdd1e+jv9Ql1ePaiaPo0og09WO0GS4sWlYqvVWd1JJ4I4qpN3hb5/fb7+vomTbRt9vx1f8AwPWx6T8D/HXibx74du7zxPpun2U63Di3m0tbtIZotzAKUuoYpUkjKlHBX7yk4XO0ej1598D/AAXr3gHwT/Y2uzWTGG5c2Vtp4g8q1tyF2xgwWlqh+be3EK434y2Mn0Gqla+n9f8AB7kxvb3t/wCvw7BRRRUlBRRRQAUUUUAFFFFABXL+Lv8AkYPBH/YYk/8ASC8rqK5fxd/yMHgj/sMSf+kF5QB1FFFFAHAfED4A/Dj4r6kdQ8Z+CtF8UX32P7DHcataLcPBDlmxEWB8psuTvTa3Tn5Ri3efCDw3qXja08VXf9sXWp2cizW9vNr1++nxSLGY1dbEzfZgwUnDeVncd2d3NdpRQtLJdBtt3v6fL+kY7eENFk1C8vpdNt7i7u5YJ5ZrhfNJeHHkld2duw5ZQuAGZmHzMSeXtPgP4LtoLqKbT73VRc6jDqsja1q95qLm5h5hYPcSuyrGfmRAQqsAygEA16BRSsv6+X+S+5C/r8/8397PMLP9mj4bWWl6paR+Gla61QKL7W5r25l1i52uHQvqTSG7YoyrsJlym1QpAAA7TS/BujaLqx1OyshBe/YINLEgkchbaFnaOMKTgYMj8gZPGSdq426Kr+v6+9/eKy18/wDh/wA0vuKuqaZba1pd5p17F51ndwvbzR7iu+N1KsMggjIJ5BzXmEf7I/wOjt1hHwc8BFFXYC3hqzLYxjljHkn3zmvWaKjlV27b/wBfqyrs5r/hXOgL4f0nRYrSa10/SbQ2VgtreTwS20RhMGElRw4YRkgPu3A4IIIBrkdL/Zq8GaR4ksNfhu/GUurWJHkT3njrXLkbd6uY2SW8ZXjLIhaNgVbaMg16nRWnM+bnvr36k2XLydOx594r+BHhLxlbS21+NetbaaW4nng0jxNqWmxzvOQZTKttcRiQHHRwQASAACc1NP8A2c/BFlpjaZNFr2taS7IZNM1/xRqmq2kqqjoI3gurmSN48SHMbKUJVGKkohX0yioilBWjotPw2+7oN6u7OP1b4U+Htc8YWXiW+/ta4v7No3gtW1y+Gnq6fcc2Im+zM6n5gxjJDBWzkAjM8a/s8/DP4ja1c6z4o8DaHr2szxxw/wBqX1mkl3EqZ2CKYjfFgkkGMqcnPXmvQ6Ka0tbpr8+4nFO91urfLt6HIa98KfDPiLwHqvg+60u2l0TUWnlkguraK9RZpZWmaUR3KSxswlcyKHRlBA+XAxXmlr+wv8ELbwimht8OvDc8u9ZZdXl0OxN7NJ5gkdiwgCoGYEGONVjVWKoqKAB71RS6NdyuZ2seaj9nP4f2yRx6Xos/hq2itHsoLXwzqd3o9vbRvKssjQxWksaQyO6jdLGFkZcqWKkitOX4LeDfI0mKz0f+xf7LkaS1k0K6m02QbpPNkR3t3jaSOSQ73jcskjfM4Y8129FMLvYoaDodj4Z0Wx0nTLcWun2MKW9vCGLbEUAKMkkk4HUkk9SamudNtLy4tbi4tYZ7i0dpLeWSMM0LMpRmQkZUlWZSR2YjvVmim9dybK1jitY+DnhTW7zQJp7O8ht9C8j7Bpdjql3aabH5Lq8O6yilW3k2MqFd8bbdq4xgV0mk+H9P0O41Oaxt/Il1K6N7dtvZvMmMaR7uScfLGgwMDjpkmtGii7W39Xtf77L7kOXvO71/r/gv7zk9J+F+gaN42vPFsI1O41y6ikgMt/rF5dwwRyMjSJBBNK0VurNHGSIkQHYvpXWUUUuiXRB1uFFFFABRRRQAUUUUAFFFFABRRRQAUUUUAFFFFABRRRQAUUUUAFea/Dfx7plr8O/C0D2utM8elWqMY9CvpFJEKjhlhIYe4JB7V6VXI/DW+trX4c+CIZ7iKGW50u0jgjkcK0rC3DFVB+8dqs2B2UntQBP/AMLE0r/n013/AMJ+/wD/AIxR/wALE0r/AJ9Nd/8ACfv/AP4xXSTTR28LyyusUUalndzhVAGSSewrgrX9oT4WX1zDbW3xK8H3FxM4jjhi161Z3YnAVQJMkk8YFG7sg2VzZ/4WJpX/AD6a7/4T9/8A/GKP+FiaV/z6a7/4T9//APGK6eigDmP+FiaV/wA+mu/+E/f/APxij/hYmlf8+mu/+E/f/wDxiunooA5j/hYmlf8APprv/hP3/wD8Yo/4WJpX/Pprv/hP3/8A8Yrp6KAOY/4WJpX/AD6a7/4T9/8A/GKP+FiaV/z6a7/4T9//APGK6eigDmP+FiaV/wA+mu/+E/f/APxij/hYmlf8+mu/+E/f/wDxiunooA5j/hYmlf8APprv/hP3/wD8Yo/4WJpX/Pprv/hP3/8A8Yrp6KAOY/4WJpX/AD6a7/4T9/8A/GKP+FiaV/z6a7/4T9//APGK6eigDmP+FiaV/wA+mu/+E/f/APxij/hYmlf8+mu/+E/f/wDxiunooA5j/hYmlf8APprv/hP3/wD8Yo/4WJpX/Pprv/hP3/8A8Yrp6KAOY/4WJpX/AD6a7/4T9/8A/GKP+FiaV/z6a7/4T9//APGK6eigDmP+FiaV/wA+mu/+E/f/APxij/hYmlf8+mu/+E/f/wDxiunooA818K+PdMh1zxi7WutES6rG67dCvmIH2G1X5gIcqcqeDg4wehBPR/8ACxNK/wCfTXf/AAn7/wD+MUnhH/kYPG//AGGI/wD0gs66igDmP+FiaV/z6a7/AOE/f/8Axij/AIWJpX/Pprv/AIT9/wD/ABiunooA5j/hYmlf8+mu/wDhP3//AMYo/wCFiaV/z6a7/wCE/f8A/wAYrp6KAOY/4WJpX/Pprv8A4T9//wDGKP8AhYmlf8+mu/8AhP3/AP8AGK6eigDmP+FiaV/z6a7/AOE/f/8Axij/AIWJpX/Pprv/AIT9/wD/ABiunooA5j/hYmlf8+mu/wDhP3//AMYo/wCFiaV/z6a7/wCE/f8A/wAYrp6y/EnirRfBukyapr+r2Gh6ZGyq95qVylvCpY4UF3IAJPA5oAzP+FiaV/z6a7/4T9//APGKP+FiaV/z6a7/AOE/f/8Axiqfh/41fDzxZq0GlaH488M6zqlxu8my0/WLeeaTCljtRHLHABJwOgJre/4SzRP7UudM/tnT/wC0rZoUns/tSedE0ufKDJnKl9rbcj5sHGcUwM3/AIWJpX/Pprv/AIT9/wD/ABij/hYmlf8APprv/hP3/wD8Yra0nWtP1+0N1pl/a6jaiR4TNaTLKgdGKOu5SRuVgVI6ggg1dpAcx/wsTSv+fTXf/Cfv/wD4xR/wsTSv+fTXf/Cfv/8A4xXT0UAcx/wsTSv+fTXf/Cfv/wD4xR/wsTSv+fTXf/Cfv/8A4xXT0UAcx/wsTSv+fTXf/Cfv/wD4xR/wsTSv+fTXf/Cfv/8A4xXT0UAcx/wsTSv+fTXf/Cfv/wD4xR/wsTSv+fTXf/Cfv/8A4xXT0UAcx/wsTSv+fTXf/Cfv/wD4xWLq3iyy1zxV4Kt7aDU45F1WV83mlXVsmBYXY+/LGqk89M56+leg1y/i7/kYPBH/AGGJP/SC8oA6iiiigAooooAKKKKACiiigAooooAKKKKACiiigAooooAKKKKACiiigAooooAKKKKACiiigAooooAKKKKACiiigAooooAKKKKACiiigAooooAKKKKACiiigAr5x8VeEdJ1D4P6JqGtWmleKNXu9AstL8K6LrGnw3MMN+9uMOiSKwd2bDO+MLHCTgAOx+jq88+EvgnRLXw54b8SLYLLrtxodnAb+4dppI4vIj/dRFyfKjJUMUj2qW+Ygnmk1f8Ar+v66MqMuXX+v6/PY4vw/wCGPBfh34feMPHXgrw/ouiXc2gS21xpdpp8VslvcQJK0sNwkGxjIHba6khhswCM5rzTWvhpqGgza/oa+P7C/wBQ8O6KmttodxP4gaKWBfMKJ5Ta+wKgwgHKFRvTrnFfS2sfC3w1rWqahqb2U2n6pqEKwXl/o97Pp1xcopUp5ktu6M5XYArEkqpZQQHYFn/CofBbaHHpEvhnTbuxjuftoF5AJ5GusY+1NK+Xa4PeZmMhPJbPNWnZ8y0f/D/5t/h5guVJJ6r/AIb/ACt+PkdZC5khRz1ZQT+VPqrpenRaPpttYwPPJDbxrEjXVxJcSkAYBeSRmdz6sxJPc1apO19DON0kmFFFFIoKKKKACiiigAooooAKKKKACiiigAooooAKKKKACiiigAooooA5fwj/AMjB43/7DEf/AKQWddRXL+Ef+Rg8b/8AYYj/APSCzrqKACiiigAooooAKKKKACiiigArx39qbVLfSvhmbmeDUbj7HdR6h5enjUYtywHzHDXVjFJJajaDiQgDIwSASR7FWV4g8L6b4phtodVt2u7e3nW4W3aV1id1zt8xAQsignIVwy7grYyoImSva3dP7ncqLS38z4803x1qNj468LrbeDvEtpqa+dfW82qa54x1aCIKggcvZ3OmgS4W6yChUAqA0qbhu5/4w+D9C0z4haqNH8Mw6zYS6iLVp08JpJJ9sd2abzJ38OXgnbex+5MTjA2Eg5+6J9BsbnXbPWZIN2pWdvNawTb2GyOVo2kXbnByYY+SMjbxjJzFeeFdJvo445bCERx3gvwsY8sG4Bz5jbcbiTyc5z3zTl7zh5b/AH7elr/O3qLZPva35/rb5XPLf2WdA0bRPAt2dNtY7HUmujFqtrDpB0xI7hVBX9ybO0O7yniy/kIG6gCvZ6y/DfhXRfBumLpugaPYaHpyu0gtNNtkt4gzHLNsQAZJ6nHNalXJ8zuRFcqsFFFFSUFFFFABRRRQAUUUUAFcv4u/5GDwR/2GJP8A0gvK6iuX8Xf8jB4I/wCwxJ/6QXlAHUUUUUAFFFFABRRRQAUUUUAFFFFABRRRQAUUUUAFFFFABRRRQAUUUUAFFFFABRRRQAUUUUAFFFFABRRRQAUUUUAFFFFABRRRQAUUUUAFFFFABRRRQAUUUUAFfJV54/8AiL4E/wCEK0vTnutR0W+8ORXlt9lE084KJbghktdGumjVTIVG7duABLqflP1rXyqPgHe/F6XwVe6ot6+h2Wi20CzatHotxBDG9tCx+xW8un3LPl0Adp3iZTnZuU4pa867a/l/mD+F/L81+hZ8J/GDxW2m+OPEXjTWrvwx4V8NxKzzD93dmQxoyx+Rd6RbswcthWwvzFVCtndUMPxo8YtqlhpyR+NNTurfUJdP1X7DY6dbrvSxFwfIN5Fbg/MW5BdSke7I8yMHS8L/ALPmreBNP8daLZ2s9xpesWN01nb2p0mOwlnEQSF5YYrC1aCc/Lt8syJ8rF2B250/GHg3Wm8VXyXHgzxPrulyaq2prceHNRs7Uyo+nR2pi81763micMrElQQRgZ5ODo2uq09b9fx+SXXdPaPrr6abf13LPiD4gazb+HbjVtB1LxXrscWiw6q8ca6VHNG1wAbaLZJCqsSA7OBJkAIFDlxjP/4Trx9qUlpY6QusR6usF5Lf2viPUdNsfJNsYA/lm1srxX3GcY+YY2kHmtlPCuuR2Os6Xc+Gnkutf0+xuYbe1vJILayuINkRie4RiUEQED/KSZNsm1W2kVm2Pw/+KXg+60xIbbQPG11Bp2p21zrN1fyaT9qe5lt5fMeJYbjbKXWUbVPl4UEGPIjCne8nFae9b1V7f5eemrsyqauoKe+l/wBf+B21uj0LRI7jVrPRmk8e6ta3+qWQvobBv7OMpTahcqPsoLKpkQFgMDcM4yKu6x4Z1yz0m9ntfGOuz3UUDvFH9nsW3uFJUYFrk5OOBTfDvhzVLG48HSTWGkiHT9Fazu550LX8MxEGEhcZURny33jPJWPGcVL8W/D114r+H2q6VZaZaa1cXBhA0+/kCW9womRmSRirAIVBz8rcZ+VuhvEJLmUPP83Ymi3aDn5XPnm38afFR7W2kX4i67d3j+XnTf8AhT2pW25iRmP7Q6lI+pHmMCo6niuw+J3j7xn4J8YS6LpFxrWuxQ2cF1JceW7sDK0oC+XZaJd4A8knc5XOcDODXOL8A9bN0I3+EfgO401b+/uI9Bnv0/sm3EltZIksJ+xE7y0MvHkJglstggtsX/wx1e+h8P2mu/DweKra3g0+BdPuWsJdPVrexli3XJll3KnnXkh3RxTMBbkhCWUEl70XbR6fitV8v66hHR2eu/4bfeV/hX4t+IPxi0n7dZeOtT8Mz3+nR3lnZah4LmmgtSWTlr6W3torrcpOFiVMFshpFQlq+k3Hxb1v4j6t4VtPjh4ek/syONJ7k+FYA7Xbh3+zJF9qyxWONnZs8dMEhtvQ/Dr4Pa94RvtRtLTQdG8A3eo6XbWlxrng+3tXtnMMjF5ShjgKXMiyttHkSxx7QS7/AHK7HTPgpoNrd6nor6KjeFm0yxht98xMv2mOe7leYSbvNE4aZJPOyH3tuDbskVJK91939f8ADvrZbt9V6fp/w33vfU8y+Jnj74j+BtcTwtper6h4g1uPSLe+n1VdLma28ySSaPAtrLSrtlXMDECSVT82AW2k1P4b+K3iXV9F8W3Otavr3hebQ4LacS/2XNdKyzNINzwS6PbThF8o7nVGQAklvlYVo+Nvgevi/wCIklvrPgqDxnp50TTbG18T+IGspDaPDc3LzNyrSNIVkiO0Q+XKVKuygk0zwr8GdW8O6P450K18LaVour69pk9smq6DbWtj4ewQyQj7NGwuBLht7eYsuCWVZtuFC3vfz/r+tO1ypJKSttp+Sv573/4B5t8QPjT8QvC/xJg8OR/E/TdNS6u2txFeWGkSSWoAIBcy3ttJICynBWBQQQF3P8temeEPHHivXNFt7q31vV/GV21hYXN1Y+Fp9FW6sJp4BI8dxDciPYvRkO8llfG35N742pfCT4ntDpfiSXWNQN5HLHfXugaHcSRTXEjXrSvEE+329oB5HlxOZTOCA+3OAWl8WfB3xHqXhex0e78H6d4otV8NaVpYtLv7NIkeoRC4BmZpW/dxRCX5njV5D5g2IwDAqGlO0t1Zfnd+n/AE/ib9fzX9feS+H/G/j68k8UXPiTWtW8A+HLJZooNf8RLoa21lcLKEjScRysZdwdScGIAqVDHeCvI2fxW16417UbGT9qz4cw2ltFC8V4dKscTs+/eoH23A27V6E/e6Dv6/4XtfHPgG6vdO0/wPpY0eSMXdtaaTfRraW0rRwwraI7iJlRGSSVnEGPLbCqXGxpjpvizwDr+n6ymkap40k1CG7fWLfQ7i2hQXbtbeUwjuriJfLSKFo1IYsByR8zGktOVPt+Nv89L+m+4tdX5v7v6/G9trHLa78TtX0rxFbRWOseI9d8PCCGSfWrG88NrA4nUNbyxeZIr+WwWUYZMtgFC2Pmz9B+NOpN4W1PW/EN94y0SwtbCbVotQli0b7PcWxnZLVERVeYTSDYux41O/cMDgV0l54b8fa5q1jr/9kJpVpbRwza14Ya6jZdfm2q58rEjJA0JJAZnHnsmyTZGkclZ2kfC/xbZ6b4/g1fRLHUJvFVjcz2f2O7WVNKkzNJHYsZdpcebcSSrMowGkkUqipGWduj/r/g9V06PVpFxS5l20/PX8Pzv0Zx/iL4mfGXwzrcthJYalqJso8SGytbuZdRZoo3RoJYdClhiGWZSryNhgQWAXc2x4w+Kfi/wz4ovvC82o61Z67D4YuNaEhm0a4tfMSMsGUFIriWEOrof3KOSAcKvzUviv9lHQ9a+I1qLLQZLLS7wveajqJ0Lw7dW6OyuSivc2st28rS7WJcMmGYBhgAdbr3wPt9LuIdM8NaHF/ZFzYf2a0k0iMlhEXiRvLDNuAWBZQqoPvOem5jRGzlHm63v9zt6a9fyM+ZqLdui/NX/C/wDwTT+Hui+OLm51/T/EvxEudSvNPuY447nSdJtLKNkeFJMGORJjkFiM7sHjgV2X/CI6r/0O2u/9+bD/AORa5ieHxjpfxI1uTStEafSbiL7aLia6gitrqRYIoktyfnmRgQ77hHtwByScV6Lpt1Lfada3M9nNp000SyPZ3LI0sDEAlGMbMhYdDtZhxwSOaW+v9f1/XUe2h8wfF745a/8ADHxh4l0QatrCppOhx6uL3VZtLhgdGlMZl/cwTTsmcJtW33b8biiMHqp+zP8AH3XP2g/FGtadD4vjNpp1tDO8ulzh5VLKARsn0mJWG/cM7gVwAA4+au2+MHwn1LUPEWu6rougS6xcapb2hFzlZJLe4jlOHj/02zki2RhcNHMpG84DZYVH8B/hv4/8BeNpv+EsmbWEksGD6sLi8vIAzOr+RFLd6pNIoUkji1TcEUl89Yo6pOfn96crfp/Vgq7vk8vxUb/qdv4V8LanJrnjFV8Ya1EY9VjVmWGxzIfsNqdzZtiM4IHGBhRxnJPR/wDCI6r/ANDtrv8A35sP/kWk8I/8jB43/wCwxH/6QWddRVgcx/wiOq/9Dtrv/fmw/wDkWj/hEdV/6HbXf+/Nh/8AItdPRQBzH/CI6r/0O2u/9+bD/wCRaP8AhEdV/wCh213/AL82H/yLXT0UAcx/wiOq/wDQ7a7/AN+bD/5Fo/4RHVf+h213/vzYf/ItdPRQBzH/AAiOq/8AQ7a7/wB+bD/5Fo/4RHVf+h213/vzYf8AyLXT0UAcx/wiOq/9Dtrv/fmw/wDkWj/hEdV/6HbXf+/Nh/8AItdPXB/GbxZ4h8IeEoLnwtaRX2tXN/b2cMMtutxkSPhsI1xbqTjON0yD37Um9vNpfe7D7vtr92pq/wDCI6r/ANDtrv8A35sP/kWj/hEdV/6HbXf+/Nh/8i15b4b+IXxasfFOkf8ACYaHFpnheSWRdQ1CfRrW0S2jEEjq7TRa1dbBvRFy0W35sbgSKxda/aC+JOl+MtYsY/COj3FhbzxiG1jtNfuLqKIM4JnkttMmiDyqEdVB+QHnzMg03ZWu9/6/4Iu57Z/wiOq/9Dtrv/fmw/8AkWj/AIRHVf8Aodtd/wC/Nh/8i1z/AMD/AB14m8e+Hbu88T6bp9lOtw4t5tLW7SGaLcwClLqGKVJIypRwV+8pOFztHo9Nq2jEmnqjmP8AhEdV/wCh213/AL82H/yLR/wiOq/9Dtrv/fmw/wDkWunopDOY/wCER1X/AKHbXf8AvzYf/ItH/CI6r/0O2u/9+bD/AORa6eigDmP+ER1X/odtd/782H/yLR/wiOq/9Dtrv/fmw/8AkWunooA5j/hEdV/6HbXf+/Nh/wDItH/CI6r/ANDtrv8A35sP/kWunooA5j/hEdV/6HbXf+/Nh/8AItYuraDfab4q8FS3PiPU9WjOqyqILyO1VAfsF382YoUbPHrjk8V6DXL+Lv8AkYPBH/YYk/8ASC8oA6iiiigAooooAKKKKACiiigAooooAKKKKACiiigAooooAKKKKACiiigAooooAKKKKACiiigAooooAKKKKACiiigAooooAKKKKACiiigAooooAKKKKACiiigAr5a8ZfHnWfhZoPw/0qw1DQtNt7jwzaXTPqyWZZ22BcKbnVbEYAA+75h5528Z+pa+LJdM8deNNa8MyabNfaP4es9DsbJ759J1+2LRiBXzCdOvYzdkSFgTMsKgFfL35ZjDTco2/rR/rYtW5Zd/+Cv0uem/Cr9oi+8XeGfGOo61r/hu1g0j7KsOrRQwG1haZnX9/wDZdSvE2gquWMyFQSWAUZLvG/7RHjfwj4wtdFXwHZ3StIyNLB/btwkn7nf+7kh0d0bB7xmTocheSvB+B0+I3gm68aWuoWt5rUer2Rt7S4t9E1m/j+VzHE0kmpXEkiMFmkkaARyREJgSbiVbk/F3wPudY8VeLL7TvBdr9hvL6SW0a60CGOR1KL822Tw7dMuW3HmccknCVU5e9dLS1/norevUiMfd1et/w3/4B9KW3xV8Z6h4kg0e0+Hswnm0qO9W6vL+K3sRK2CQ0jf6UqDlPmsxJvHKKuSOh8K+LPFV14ofRvFHh/R9IdrNryCbSNalvw4V1RlcSWsG374Ixuzz0rwbS/C2jW9+XX4UXmqy6foNpp1vB4q0+8bTGdkCzraKsF19mQJuVwsEayH+8Durb8A7/AvifUtV0z4S6P4SLaW0McHhjT79YrybzUZVnb+y4SmAGwdknU9O+lkpJdPe/wDbrf8Atv8AkZ3k4t9fd/Hlv+vofStfP3xe/aguvhj4w8S6IPD8SppOhx6uL3VbyKGB0aUxmX9y007JnCbVt92/G4ojB69R034n6ffada3M+keJNOmmiWR7O50C8aWBiASjGONkLDodrMOOCRzXhfxg0xNQ8Ra7qui+FvEWsXGqW9oRc/2BeySW9xHKcPH+/s5ItkYXDRzKRvOA2WFc9Tm5lFef5O34m8WuVt+X5q/4EnwS/bAvPjN/wmRsbbw1JHoWkm/D6feXzuH8rIDJPZwhlLhgcOpGMAMPnrjV/bI8U/Z45V17wdcSEKfsyRaTucnHyjy/Ekkme3yxO3ohPFRaDZ/EXwhY+IrS6tfEOv6je6S1v/aSeHtY1SL97Im+CFr/AFZGBQM4yYogRGrF2YbWz9Q+GvxRk8GwRtq7z6gzGK7sI08aTRrbgH5ojNe+VNIQB+6ljSMkkF9vJ3jZT5ntp+bv+Fv+GMZKXJyrfX8lb8bn0H8RvjpqXgPxZqOny+GdR/si0GlsNUjs/tiyLcXTRy7Y7eR5v9WrbcxD542BzujD3fBPxsvfG2ueJ9KtPC97HcWQkn0ua6lgit72FY4CAXSWVkdjOrDei/Ky5AYMB5ZHa3PijxrLrmqeEfEVvqV1aaat1qmoaNeYRohNPKlpCHuTboZRao8auFLK75fAZsbwReamzzW3ir4W+Jdc0Q6aIJdM1jwtEyTzGWE9RcTLIq7EILRoVSHgO5ApQ0up+f4rT7mvLfVdS6t21yeX6X/X/M+hG+JN/JfXsdpoF7dSf2bY3VpprwmG58+eS5VknYkrEi+QuWPA+bBclQfO/ir+1Mfhn42udJkj8Jw2drbM0q694k/s68eZU80iKEQSM8bJlUdlRXdSu4ZTdwzfDHwL4O03w7ez/BRPGN+bm8m1Sx0XwWoEZnLSIiG6igV4YiRGpJDYCnYMnGb4s8F+LNY0uxudMtbvTdKurILf+E4dO8UW/wBjQQAfZreC31GKzfJGzYDDGAfvN1MSvzf12/rX+nStt/X9eXqerfC39oTW/H1v4jMdp4L12fRopLg2/hfxV9suZUJDxqIhBsB8slC3nEGRCPlByvtuk6pa65pdnqNlKJ7O7hS4hlXo6MoZT+IIr5f+CP8AwlHhKLWvEniFfGN7ceTcJY+HL3T9cknJCoUGZdRu7YBirAZyw3ZMijK17H8O9f03wX4B8N6BLDrk0ul6db2TyL4fv8M0caoSP3HTIrWyt8l+N7/PYhefd/p/S7/I9IormP8AhYmlf8+mu/8AhP3/AP8AGKP+FiaV/wA+mu/+E/f/APxioGdPRXMf8LE0r/n013/wn7//AOMUf8LE0r/n013/AMJ+/wD/AIxQB09Fcx/wsTSv+fTXf/Cfv/8A4xR/wsTSv+fTXf8Awn7/AP8AjFAHT0VzH/CxNK/59Nd/8J+//wDjFH/CxNK/59Nd/wDCfv8A/wCMUAdPRXMf8LE0r/n013/wn7//AOMUf8LE0r/n013/AMJ+/wD/AIxQAnhH/kYPG/8A2GI//SCzrqK818K+PdMh1zxi7WutES6rG67dCvmIH2G1X5gIcqcqeDg4wehBPR/8LE0r/n013/wn7/8A+MUAdPRXMf8ACxNK/wCfTXf/AAn7/wD+MUf8LE0r/n013/wn7/8A+MUAdPRXMf8ACxNK/wCfTXf/AAn7/wD+MUf8LE0r/n013/wn7/8A+MUAdPRXMf8ACxNK/wCfTXf/AAn7/wD+MUf8LE0r/n013/wn7/8A+MUAdPRXMf8ACxNK/wCfTXf/AAn7/wD+MUf8LE0r/n013/wn7/8A+MUAdPXmH7Qnw/1P4neBW8O6bLcIb9zBKBDYS2iggkS3K3UMpKIyggQqJC23lRl16j/hYmlf8+mu/wDhP3//AMYo/wCFiaV/z6a7/wCE/f8A/wAYpNKWjKjJxd0eCwfsU6NpHxF8N31hdyLp1nZ3Ly3qeH/D0bxXKy2xgAVdOGSQsx37Sy7OHTcd2j8VP2WZfiX4gOu6vfR3+oS6vHtRNH0aUQaerHaDJcWLSsVXqrO6kk8EcV7T/wALE0r/AJ9Nd/8ACfv/AP4xR/wsTSv+fTXf/Cfv/wD4xTeri30/zv8A8D0v3J6cq9Pz/wA/yMX4H+C9e8A+Cf7G12ayYw3LmyttPEHlWtuQu2MGC0tUPzb24hXG/GWxk+g1zH/CxNK/59Nd/wDCfv8A/wCMUf8ACxNK/wCfTXf/AAn7/wD+MU2+bViSS0R09Fcx/wALE0r/AJ9Nd/8ACfv/AP4xR/wsTSv+fTXf/Cfv/wD4xSGdPRXMf8LE0r/n013/AMJ+/wD/AIxR/wALE0r/AJ9Nd/8ACfv/AP4xQB09Fcx/wsTSv+fTXf8Awn7/AP8AjFH/AAsTSv8An013/wAJ+/8A/jFAHT0VzH/CxNK/59Nd/wDCfv8A/wCMUf8ACxNK/wCfTXf/AAn7/wD+MUAdPXL+Lv8AkYPBH/YYk/8ASC8pf+FiaV/z6a7/AOE/f/8AxisXVvFllrnirwVb20GpxyLqsr5vNKurZMCwux9+WNVJ56Zz19KAPQaKKKACiiigAooooAKKKKACiiigAooooAKKKKACiiigAooooAKKKKACiiigAooooAKKKKACiiigAooooAKKKKACiiigAooooAKKKKACiiigAooooAKKKKACuS+HN3Bp/wAKPC91dTR21tDotrJLNMwVI1ECksxPAAAySa62vkfx/oHi+4+HdlrUSeJ20218FC1sv+EXOk+RHE9qjTm7+3N5hZmRR+4TKonDFnIEylylwjzNI+tkkWRFdGDowyGU5BHrUKahayX8titzC17DGk0lssgMiRuWCOV6hWKOATwSjehrwGztdfuPhb4qfxPp/iTWbSLRxJbaZ8QrTQbrTp5VG9MRaf8AO+GVeJCOox83Iwo/2LVjt7OAQfC0Q292bvafh0zNLlmYRPIdQ3tGGYELu5ChTlMqdJLllboZRlzQv1/r8Oh9R0Vk+E9BTwv4a03So4NPtltIFi8rSbL7HaKQOfKg3N5a5zhdzY9TWtSe+g1tqFFFFIYUUUUAFFFFABRRRQAUUUUAFFFFABRRRQAUUUUAFFFFABRRRQBy/hH/AJGDxv8A9hiP/wBILOuorl/CP/IweN/+wxH/AOkFnXUUAFFFFABRRRQAUUUUAFFFFABRRXnHx20DXvFHg0aZpCX8lnNMh1GPRfsv9oywhgRHB9rZbcBmxvMpI2BlCMX4TdhnoFrf2169wlvcRTvbyeTMsThjFJtDbGx0bDKcHnDA96Lq+trERG5uIrcSyLDH5rhd7t91RnqT2HU18yfCOPxxJ4y19ZpPidFbHxEPtb3A8LeQP3Fvu+07AZPu4z9n/h27fmzT5/2a7fx94o8R+ItP0j4Z6VHNdXenJHe+BBqEjeXMw+0OzXaIZt/mEsIxnOH37V2vX3X3V/wT/G+n3kxd+a/R2/F/otfuPp+ivNPgj8HIfg/pN1ZR2vhWJ5ViT7R4b8PHS3lVAQDOWuJmmbLEhiRjLcc16XVSST0YJt7oKKKKkYUUUUAFFFFABRRRQAVy/i7/AJGDwR/2GJP/AEgvK6iuX8Xf8jB4I/7DEn/pBeUAdRRRRQAUUUUAFFFFABRRRQAUUUUAFFFFABRRRQAUUUUAFFFFABRRRQAUUUUAFFFFABRRRQAUUUUAFFFFABRRRQAUUUUAFFFFABRRRQAUUUUAFFFFABRRRQAV4/4Z+DPhzxr8P/D1xqtx4icXmi2kc9ta+KNTtbZ1+zIpXyIrhYwCOoCjOSTkk17BXmvw38LanP8ADvwtInjDWrdH0q1ZYY4bEqgMK/KN1sTgdOST6k0h3a2L+lfBXwzpEyOkniC9RDGy2+qeJtTvoAUdZEPlT3DpkMikfL2x0JFd3XMf8Ijqv/Q7a7/35sP/AJFo/wCER1X/AKHbXf8AvzYf/ItVdk2S2OnormP+ER1X/odtd/782H/yLR/wiOq/9Dtrv/fmw/8AkWkM6eiuY/4RHVf+h213/vzYf/ItH/CI6r/0O2u/9+bD/wCRaAOnormP+ER1X/odtd/782H/AMi0f8Ijqv8A0O2u/wDfmw/+RaAOnormP+ER1X/odtd/782H/wAi0f8ACI6r/wBDtrv/AH5sP/kWgDp6K5j/AIRHVf8Aodtd/wC/Nh/8i0f8Ijqv/Q7a7/35sP8A5FoA6eiuY/4RHVf+h213/vzYf/ItH/CI6r/0O2u/9+bD/wCRaAOnormP+ER1X/odtd/782H/AMi0f8Ijqv8A0O2u/wDfmw/+RaAOnormP+ER1X/odtd/782H/wAi0f8ACI6r/wBDtrv/AH5sP/kWgDp6K5j/AIRHVf8Aodtd/wC/Nh/8i0f8Ijqv/Q7a7/35sP8A5FoA6eiuY/4RHVf+h213/vzYf/ItH/CI6r/0O2u/9+bD/wCRaAOnormP+ER1X/odtd/782H/AMi0f8Ijqv8A0O2u/wDfmw/+RaAE8I/8jB43/wCwxH/6QWddRXmvhXwtqcmueMVXxhrURj1WNWZYbHMh+w2p3Nm2IzggcYGFHGck9H/wiOq/9Dtrv/fmw/8AkWgDp6K5j/hEdV/6HbXf+/Nh/wDItH/CI6r/ANDtrv8A35sP/kWgDp6K5j/hEdV/6HbXf+/Nh/8AItH/AAiOq/8AQ7a7/wB+bD/5FoA6eiuY/wCER1X/AKHbXf8AvzYf/ItH/CI6r/0O2u/9+bD/AORaAOnormP+ER1X/odtd/782H/yLR/wiOq/9Dtrv/fmw/8AkWgDp6wfFngvT/GlvBBqFxq1ukLl1Ok6zeaaxJGPma2ljLD2YkVW/wCER1X/AKHbXf8AvzYf/ItH/CI6r/0O2u/9+bD/AORaW+4HO2P7PfhLTZ5prW68WQSTTefMU8aaz+9kwBucfa/mOFUZOeAB2rvNH0az8P6dFYafALe1jLFUBLcsxZmJJJJLEkknJJJNYv8AwiOq/wDQ7a7/AN+bD/5Fo/4RHVf+h213/vzYf/ItVfSwrK9zp6K5j/hEdV/6HbXf+/Nh/wDItH/CI6r/ANDtrv8A35sP/kWkM6eiuY/4RHVf+h213/vzYf8AyLR/wiOq/wDQ7a7/AN+bD/5FoA6eiuY/4RHVf+h213/vzYf/ACLR/wAIjqv/AEO2u/8Afmw/+RaAOnormP8AhEdV/wCh213/AL82H/yLR/wiOq/9Dtrv/fmw/wDkWgDp6K5j/hEdV/6HbXf+/Nh/8i0f8Ijqv/Q7a7/35sP/AJFoA6euX8Xf8jB4I/7DEn/pBeUv/CI6r/0O2u/9+bD/AORaxdW0G+03xV4KlufEep6tGdVlUQXkdqqA/YLv5sxQo2ePXHJ4oA9BooooAKKKKACiiigAooooAKKKKACiiigAooooAKKKKACiiigAooooAKKKKACiiigAooooAKKKKACiiigAooooAKKKKACiiigAooooAKKKKACiiigAooooAK8T8P8AxGv7bwHpei+Fm03Wteg0DT4obWF/tEljdyRL5f22FHDRwlD5gclBiNxnJQN7ZXznrnw41jxr4D8MRw6LZ+I9H1Hwzp9hJp9yYUVZ0UyxzzSTLIEijJU4SCdnfYCoQPul7rt/X9eu+lykrp9/+CjpdU+MGu/C2HxLH45+x6tLY28N1p99p+mvoun3Ac7DE93d3L20bhyOGnViD8qMcA8Bon7Wni5dHs73WPC/hD7HLemCTWoPFMsOlpCZyglW9azazcquCY1uTKcH92rZRel+HPwi1TwLovjbTpfBOh6drXiDT5FOoeEEgtNKYJGyQW/kNskjkzJISxWUHJJlUbYk8Y/4Yv8AGVrcXWoJ4f8AChZrKCKO3guNLEqSRtIxZcaBGoY71GUeJ8rzMfkKaRV6lm9NPTrdfhrr9xE9Kba31/T/ADdtOnXY95+Jvx4uNPkQeC9S0nULRLawnuL+Oxn1gAXt2sNu0UNrIrTDZHcttQkk+XjjOa/w9+NXiLxHceJVW5svFEen6SNRtCnhXVdA8yQSSI0eJzcSSj931hjYg5G0nirnjX4U32sfEjXr2w06/t7fWrLTYjq2n65Ppoinia9Essv2eaOaUJHJCFj+6zFBlQC6cp4b/Z5vNF8B6loesQeJNciuLaV03a4mpNlZ94gay1B5LFnfajJKY+NzBvLKh3izS08/xW3yeq2vtuXJLntfT3f0b+/VW1sZdl+0/wDEu7vWsF8Eaa9zZXQe9kTTPE214HMhSFUGkFopQnlEyOCrclU+bCfUts0slvE0yLHMyAuiMWVWxyASASM9yB9BXzHb/sX+FT4V8HaXdeENDhvY9Vur7U9RsrK0kmt1kjuniTfJCBOkckkKBGjKHYuY9owPo7wzoMPhfw7pmj27mS3sLeO2jYwxQ5VFCj5IkSNeB0RFUdgBxWmiTXW/9f1/wSNeby/4P9f1Y06KKKgYUUUUAFFFFABRRRQAUUUUAFFFFABRRRQAUUUUAFFFFAHL+Ef+Rg8b/wDYYj/9ILOuorl/CP8AyMHjf/sMR/8ApBZ11FABRRRQAUUUUAFFFFABRRRQB88eNP2tNN8LKJbdrHU7W61k2dtdQXNrFBFBECJ1lmnuoohPujfCs6YE0QwzKy0/wv8AtTXXjP4b2niDQvCN3rd2NQsrG6XT9Q0qZB50yITtW/JiZlbCo7ZVmXdlQWqLXvgv45lWGYT/ANuNca62oPYSeLdUsntU8m7XcL+NsopM0YEVvaxAZCsZApkrN0v4E61ZfDvQvC3iHwtNraQajYmRLTxleapYyQxyo87XNvemFPKKR4WFUmXcwO1cbqUNlzd4/pf9e+/3VK3Mn01/X/gf8Hr3v/C69fHiZpf+Ffa23gsTNp0mrmXT1aG7W6+zl9v2wu8JYkcRqy+XkCQP8nOfEX4/aroeu3S6dqemaV4ftrm9t5dUk8O32usptI4DOXjtJkaNVeV1LtwvlHP3hW/4T/Z803/hH7CbWrnXrPWZLr+1Lm0svEt99hhna4+0GJbYS/ZyisduPKwQM4yc1xXj74B6v4g8L+NdD0nTtW0tbhdQmspbHxFPaQXO+MCKD7PHOscjSODve4XAU4+YsSjfxKHk/vuuvpf/AIJUbSab0u0vlZ/8DX/hzoNN+M3jK4+G3iPVrSxstf1fTtV/s+FpNB1fSwY2t4pFkaxWG6ush5QCu1QyjduUYJyPhz+0R4+8deKtItm8Hafa6PLLJZXc32XXkYypKEeZJpNKSFFUJKPKlZTuKguhBBZ40/Z1fxF4In8OXen6tr06zqsFxqmrpqlvcK0boJZG1Dz5bTYCRIbQI53KY2PSO237IXg3/hNNIubPw3pehwaVpcEcOp6bpOn7pbpZcuXilhkUsQkZ8wpuXnY65bLi17RX20X/AJLdv+ur7owu3Tulrq/xtb+ui7M+hqKKKRYUUUUAFFFFABRRRQAVy/i7/kYPBH/YYk/9ILyuorl/F3/IweCP+wxJ/wCkF5QB1FFFFABRRRQAUUUUAFFFFABRRRQAUUUUAFFFFABRRRQAUUUUAFFFFABRRRQAUUUUAFFFFABRRRQAUUUUAFFFFABRRRQAUUUUAFFFFABRRRQAUUUUAVf7Stv+en/jp/wo/tK2/wCen/jp/wAK+Y6KAPpz+0rb/np/46f8K8/8F+KNT8PeDtC0q58H601zY2EFtK0c1iVLJGqkgm5HGQe1eR0UAe6/8LAvP+hN13/v7Y//ACTR/wALAvP+hN13/v7Y/wDyTXhVFAHuv/CwLz/oTdd/7+2P/wAk0f8ACwLz/oTdd/7+2P8A8k14VRQB7r/wsC8/6E3Xf+/tj/8AJNH/AAsC8/6E3Xf+/tj/APJNeFUUAe6/8LAvP+hN13/v7Y//ACTR/wALAvP+hN13/v7Y/wDyTXhVFAHuv/CwLz/oTdd/7+2P/wAk0f8ACwLz/oTdd/7+2P8A8k14VRQB7r/wsC8/6E3Xf+/tj/8AJNH/AAsC8/6E3Xf+/tj/APJNeFUUAe6/8LAvP+hN13/v7Y//ACTR/wALAvP+hN13/v7Y/wDyTXhVFAHuv/CwLz/oTdd/7+2P/wAk0f8ACwLz/oTdd/7+2P8A8k14VRQB7r/wsC8/6E3Xf+/tj/8AJNH/AAsC8/6E3Xf+/tj/APJNeFUUAe6/8LAvP+hN13/v7Y//ACTR/wALAvP+hN13/v7Y/wDyTXhVFAHuv/CwLz/oTdd/7+2P/wAk0f8ACwLz/oTdd/7+2P8A8k14VRQB7r/wsC8/6E3Xf+/tj/8AJNH/AAsC8/6E3Xf+/tj/APJNeFUUAeuaD4o1PTNU8R3Mvg/WjHqF+l1DtmsSQotYIiG/0ng7om9eMVs/8LAvP+hN13/v7Y//ACTXhVFAHuv/AAsC8/6E3Xf+/tj/APJNH/CwLz/oTdd/7+2P/wAk14VRQB7r/wALAvP+hN13/v7Y/wDyTR/wsC8/6E3Xf+/tj/8AJNeFUUAe6/8ACwLz/oTdd/7+2P8A8k0f8LAvP+hN13/v7Y//ACTXhVFAHuv/AAsC8/6E3Xf+/tj/APJNH/CwLz/oTdd/7+2P/wAk14VRQB7r/wALAvP+hN13/v7Y/wDyTR/wsC8/6E3Xf+/tj/8AJNeFUUAe6/8ACwLz/oTdd/7+2P8A8k0f8LAvP+hN13/v7Y//ACTXhVFAHuv/AAsC8/6E3Xf+/tj/APJNH/CwLz/oTdd/7+2P/wAk14VRQB7r/wALAvP+hN13/v7Y/wDyTR/wsC8/6E3Xf+/tj/8AJNeFUUAe6/8ACwLz/oTdd/7+2P8A8k0f8LAvP+hN13/v7Y//ACTXhVFAHuv/AAsC8/6E3Xf+/tj/APJNH/CwLz/oTdd/7+2P/wAk14VRQB7r/wALAvP+hN13/v7Y/wDyTR/wsC8/6E3Xf+/tj/8AJNeFUUAe6/8ACwLz/oTdd/7+2P8A8k1Qu9cvvEXiLwwx8OanpltY38l1Pc3klqUVTaXEQGI5nYktKg4HrXjNFAH05/aVt/z0/wDHT/hR/aVt/wA9P/HT/hXzHRQB9Of2lbf89P8Ax0/4Uf2lbf8APT/x0/4V8x0UAfTn9pW3/PT/AMdP+FH9pW3/AD0/8dP+FfMdFAH05/aVt/z0/wDHT/hR/aVt/wA9P/HT/hXzHRQB9Of2lbf89P8Ax0/4Uf2lbf8APT/x0/4V8x0UAfTn9pW3/PT/AMdP+FH9pW3/AD0/8dP+FfMdFAH05/aVt/z0/wDHT/hR/aVt/wA9P/HT/hXzHRQB9Of2lbf89P8Ax0/4Uf2lbf8APT/x0/4V8x0UAfTn9pW3/PT/AMdP+FH9pW3/AD0/8dP+FfMdFAH05/aVt/z0/wDHT/hR/aVt/wA9P/HT/hXzHRQB9Of2lbf89P8Ax0/4Uf2lbf8APT/x0/4V8x0UAfTn9pW3/PT/AMdP+FH9pW3/AD0/8dP+FfMdFAH05/aVt/z0/wDHT/hR/aVt/wA9P/HT/hXzHRQB9Of2lbf89P8Ax0/4Uf2lbf8APT/x0/4V8x0UAfTn9pW3/PT/AMdP+FH9pW3/AD0/8dP+FfMdeofC/wD5F+4/6+m/9ASgD0z+0rb/AJ6f+On/AAo/tK2/56f+On/CsOigDc/tK2/56f8Ajp/wo/tK2/56f+On/CsOigDc/tK2/wCen/jp/wAKP7Stv+en/jp/wrDooA3P7Stv+en/AI6f8KP7Stv+en/jp/wrDooA3P7Stv8Anp/46f8ACj+0rb/np/46f8Kw6KANz+0rb/np/wCOn/Cj+0rb/np/46f8Kw6KAP/Z;" parent="1" vertex="1">
          <mxGeometry x="249" y="1320" width="711" height="380" as="geometry"/>
        </mxCell>
      </root>
    </mxGraphModel>
  </diagram>
  <diagram id="Itg9xJHt9c6SaHCCMgdC" name="第 2 页">
    <mxGraphModel dx="1038" dy="580" grid="1" gridSize="10" guides="1" tooltips="1" connect="1" arrows="1" fold="1" page="1" pageScale="1" pageWidth="3300" pageHeight="2339" math="0" shadow="0">
      <root>
        <mxCell id="sst771WhAO_1PTalGaOI-0"/>
        <mxCell id="sst771WhAO_1PTalGaOI-1" parent="sst771WhAO_1PTalGaOI-0"/>
        <mxCell id="sst771WhAO_1PTalGaOI-7" style="edgeStyle=orthogonalEdgeStyle;rounded=0;orthogonalLoop=1;jettySize=auto;html=1;exitX=0.5;exitY=1;exitDx=0;exitDy=0;entryX=0.5;entryY=0;entryDx=0;entryDy=0;" edge="1" parent="sst771WhAO_1PTalGaOI-1" source="sst771WhAO_1PTalGaOI-2" target="sst771WhAO_1PTalGaOI-6">
          <mxGeometry relative="1" as="geometry"/>
        </mxCell>
        <mxCell id="sst771WhAO_1PTalGaOI-2" value="方法入口" style="rounded=0;whiteSpace=wrap;html=1;fontSize=14;" vertex="1" parent="sst771WhAO_1PTalGaOI-1">
          <mxGeometry x="340" y="120" width="100" height="40" as="geometry"/>
        </mxCell>
        <mxCell id="sst771WhAO_1PTalGaOI-3" value="记录方法信息，&lt;br&gt;标记方法分类，&lt;br&gt;开始时间，&lt;br&gt;如果没有requestId则生成" style="rounded=0;whiteSpace=wrap;html=1;" vertex="1" parent="sst771WhAO_1PTalGaOI-1">
          <mxGeometry x="580" y="200" width="140" height="60" as="geometry"/>
        </mxCell>
        <mxCell id="sst771WhAO_1PTalGaOI-5" value="如果有，记录http方法，url，解析token后的用户信息" style="rounded=0;whiteSpace=wrap;html=1;" vertex="1" parent="sst771WhAO_1PTalGaOI-1">
          <mxGeometry x="580" y="290" width="140" height="60" as="geometry"/>
        </mxCell>
        <mxCell id="sst771WhAO_1PTalGaOI-10" style="edgeStyle=orthogonalEdgeStyle;rounded=0;orthogonalLoop=1;jettySize=auto;html=1;exitX=1;exitY=0.5;exitDx=0;exitDy=0;entryX=0;entryY=0.5;entryDx=0;entryDy=0;" edge="1" parent="sst771WhAO_1PTalGaOI-1" source="sst771WhAO_1PTalGaOI-6" target="sst771WhAO_1PTalGaOI-9">
          <mxGeometry relative="1" as="geometry"/>
        </mxCell>
        <mxCell id="sst771WhAO_1PTalGaOI-12" style="edgeStyle=orthogonalEdgeStyle;rounded=0;orthogonalLoop=1;jettySize=auto;html=1;exitX=0.5;exitY=1;exitDx=0;exitDy=0;" edge="1" parent="sst771WhAO_1PTalGaOI-1" source="sst771WhAO_1PTalGaOI-6" target="sst771WhAO_1PTalGaOI-11">
          <mxGeometry relative="1" as="geometry"/>
        </mxCell>
        <mxCell id="sst771WhAO_1PTalGaOI-6" value="方法打印日志" style="rounded=0;whiteSpace=wrap;html=1;fontSize=14;" vertex="1" parent="sst771WhAO_1PTalGaOI-1">
          <mxGeometry x="340" y="550" width="100" height="40" as="geometry"/>
        </mxCell>
        <mxCell id="sst771WhAO_1PTalGaOI-9" value="记录到threadLocal里" style="rounded=0;whiteSpace=wrap;html=1;" vertex="1" parent="sst771WhAO_1PTalGaOI-1">
          <mxGeometry x="810" y="540" width="120" height="60" as="geometry"/>
        </mxCell>
        <mxCell id="sst771WhAO_1PTalGaOI-20" style="edgeStyle=orthogonalEdgeStyle;rounded=0;orthogonalLoop=1;jettySize=auto;html=1;exitX=1;exitY=0.5;exitDx=0;exitDy=0;entryX=0;entryY=0.5;entryDx=0;entryDy=0;" edge="1" parent="sst771WhAO_1PTalGaOI-1" source="sst771WhAO_1PTalGaOI-11" target="sst771WhAO_1PTalGaOI-13">
          <mxGeometry relative="1" as="geometry"/>
        </mxCell>
        <mxCell id="sst771WhAO_1PTalGaOI-11" value="方法出口" style="rounded=0;whiteSpace=wrap;html=1;fontSize=14;" vertex="1" parent="sst771WhAO_1PTalGaOI-1">
          <mxGeometry x="340" y="760" width="100" height="40" as="geometry"/>
        </mxCell>
        <mxCell id="sst771WhAO_1PTalGaOI-21" style="edgeStyle=orthogonalEdgeStyle;rounded=0;orthogonalLoop=1;jettySize=auto;html=1;exitX=0.5;exitY=1;exitDx=0;exitDy=0;" edge="1" parent="sst771WhAO_1PTalGaOI-1" source="sst771WhAO_1PTalGaOI-13" target="sst771WhAO_1PTalGaOI-19">
          <mxGeometry relative="1" as="geometry"/>
        </mxCell>
        <mxCell id="sst771WhAO_1PTalGaOI-13" value="记录方法耗时&lt;br&gt;记录返回值&lt;br&gt;如果异常返回，记录异常信息" style="rounded=0;whiteSpace=wrap;html=1;" vertex="1" parent="sst771WhAO_1PTalGaOI-1">
          <mxGeometry x="580" y="750" width="160" height="60" as="geometry"/>
        </mxCell>
        <mxCell id="sst771WhAO_1PTalGaOI-23" style="edgeStyle=orthogonalEdgeStyle;rounded=0;orthogonalLoop=1;jettySize=auto;html=1;exitX=1;exitY=0.5;exitDx=0;exitDy=0;entryX=0;entryY=0.5;entryDx=0;entryDy=0;" edge="1" parent="sst771WhAO_1PTalGaOI-1" source="sst771WhAO_1PTalGaOI-14" target="sst771WhAO_1PTalGaOI-15">
          <mxGeometry relative="1" as="geometry"/>
        </mxCell>
        <mxCell id="sst771WhAO_1PTalGaOI-14" value="threadLocal中的日志对象推入日志队列&lt;br&gt;清空threadLocal" style="rounded=0;whiteSpace=wrap;html=1;" vertex="1" parent="sst771WhAO_1PTalGaOI-1">
          <mxGeometry x="600" y="950" width="120" height="60" as="geometry"/>
        </mxCell>
        <mxCell id="sst771WhAO_1PTalGaOI-15" value="日志对象处理逻辑" style="rounded=0;whiteSpace=wrap;html=1;" vertex="1" parent="sst771WhAO_1PTalGaOI-1">
          <mxGeometry x="1220" y="950" width="120" height="60" as="geometry"/>
        </mxCell>
        <mxCell id="sst771WhAO_1PTalGaOI-17" value="获取配置信息" style="rounded=0;whiteSpace=wrap;html=1;" vertex="1" parent="sst771WhAO_1PTalGaOI-1">
          <mxGeometry x="580" y="110" width="140" height="60" as="geometry"/>
        </mxCell>
        <mxCell id="sst771WhAO_1PTalGaOI-18" value="方法参数json" style="rounded=0;whiteSpace=wrap;html=1;" vertex="1" parent="sst771WhAO_1PTalGaOI-1">
          <mxGeometry x="580" y="390" width="140" height="60" as="geometry"/>
        </mxCell>
        <mxCell id="sst771WhAO_1PTalGaOI-22" style="edgeStyle=orthogonalEdgeStyle;rounded=0;orthogonalLoop=1;jettySize=auto;html=1;exitX=0.5;exitY=1;exitDx=0;exitDy=0;entryX=0.5;entryY=0;entryDx=0;entryDy=0;" edge="1" parent="sst771WhAO_1PTalGaOI-1" source="sst771WhAO_1PTalGaOI-19" target="sst771WhAO_1PTalGaOI-14">
          <mxGeometry relative="1" as="geometry"/>
        </mxCell>
        <mxCell id="sst771WhAO_1PTalGaOI-19" value="todo 记录返回的code" style="rounded=0;whiteSpace=wrap;html=1;" vertex="1" parent="sst771WhAO_1PTalGaOI-1">
          <mxGeometry x="600" y="850" width="120" height="60" as="geometry"/>
        </mxCell>
      </root>
    </mxGraphModel>
  </diagram>
</mxfile>
